<ttFont>
          <CharString index="0">
            209 112 rmoveto
            -35 callgsubr
            rlineto
            -48 15 26 -7 32 hhcurveto
            20 31 5 9 20 -68 callsubr
            -197 -538 -78 callgsubr
            18 183 -85 callgsubr
            return
          </CharString>
          <CharString index="1">
            -83 callgsubr
            4 -18 -34 2 25 callgsubr
            -33 -2 70 callgsubr
            -101 callsubr
            return
          </CharString>
          <CharString index="2">
            -105 callgsubr
            285 hlineto
            46 29 21 40 73 callsubr
            4 callsubr
            return
          </CharString>
          <CharString index="3">
            177 342 rmoveto
            115 23 140 131 130 23 -140 -115 -115 -23 -141 -130 -131 -23 141 115 vhcurveto
            -133 hmoveto
            -107 26 -33 callgsubr
            84 52 25 36 44 hvcurveto
            80 69 26 119 107 vvcurveto
            107 -26 118 -80 69 vhcurveto
            36 -44 -52 25 -84 -25 callsubr
            -26 -118 -107 vvcurveto
            return
          </CharString>
          <CharString index="4">
            hintmask 11010000
            -107 callsubr
            return
          </CharString>
          <CharString index="5">
            166 273 rmoveto
            -72 callgsubr
            -129 hmoveto
            -15 callsubr
            47 -19 77 hhcurveto
            77 48 19 30 38 hvcurveto
            73 56 26 97 85 -62 callgsubr
            -6 callgsubr
            return
          </CharString>
          <CharString index="6">
            -224 -674 -79 callsubr
            24 244 -87 callgsubr
            return
          </CharString>
          <CharString index="7">
            550 478 rmoveto
            140 -95 70 -139 -71 -74 -36 callsubr
            18 25 1 4 20 hvcurveto
            265 66 vlineto
            59 21 -32 -42 15 hvcurveto
            45 -123 rlineto
            -50 17 16 -26 47 hhcurveto
            33 36 15 24 17 hvcurveto
            -23 17 -14 28 -10 27 -39 105 rcurveline
            -14 41 -24 34 -35 12 rrcurveto
            66 23 60 66 94 vvcurveto
            -339 112 rmoveto
            -1 32 39 0 26 hhcurveto
            89 22 -54 -57 -55 -22 -56 -89 -21 -40 -1 -1 -36 hvcurveto
            return
          </CharString>
          <CharString index="8">
            rmoveto
            9 -23 22 -20 21 -6 177 135 rcurveline
            -11 34 -37 32 -33 11 rrcurveto
            endchar
          </CharString>
          <CharString index="9">
            54 120 rmoveto
            -11 -13 -5 -18 -15 vvcurveto
            -10 1 -10 13 -55 vhcurveto
            337 hlineto
            50 35 25 43 22 -3 14 -5 17 hvcurveto
            -25 -12 -39 -4 -42 -1 -59 -1 rcurveline
            -34 -1 -45 -1 -44 -4 -2 4 rcurveline
            23 22 31 33 17 22 205 251 rcurveline
            11 14 4 15 14 vvcurveto
            9 -2 9 -16 59 vhcurveto
            -385 hlineto
            -5 -22 -3 -16 -21 vvcurveto
            -14 1 -13 3 -15 vhcurveto
            129 hlineto
            22 83 2 5 37 hvcurveto
            3 -3 -25 -23 -33 -34 -17 -21 rlinecurve
            return
          </CharString>
          <CharString index="10">
            544 553 rmoveto
            -43 hlineto
            -49 -22 -15 -56 hvcurveto
            -138 vlineto
            -46 8 -103 4 -58 vhcurveto
            -6 -2 -14 29 -31 71 -14 26 rlinecurve
            -154 287 rlineto
            4 -20 -36 1 -16 hhcurveto
            -16 -36 -3 -5 -20 hvcurveto
            -545 48 callgsubr
            25 -1 15 hhcurveto
            16 20 -21 callsubr
            200 vlineto
            35 -4 101 -3 68 vhcurveto
            3 1 14 -29 29 -63 14 -26 rlinecurve
            155 -287 rlineto
            -4 19 39 7 callsubr
            15 36 2 5 20 hvcurveto
            545 vlineto
            return
          </CharString>
          <CharString index="11">
            595 683 rmoveto
            4 -20 -28 14 callsubr
            -18 -24 -21 callgsubr
            -439 vlineto
            -103 -42 -53 -90 -90 -42 53 103 vhcurveto
            363 vlineto
            66 callgsubr
            -12 callgsubr
            -6 rlineto
            -437 vlineto
            -167 99 -92 160 161 99 92 167 vhcurveto
            return
          </CharString>
          <CharString index="12">
            -14 vhcurveto
            -8 14 22 -5 -8 callgsubr
            22 5 8 14 hvcurveto
            return
          </CharString>
          <CharString index="13">
            133 hintmask 11010100
            -104 callsubr
            return
          </CharString>
          <CharString index="14">
            rmoveto
            -36 13 -49 -6 -29 -21 rrcurveto
            8 -15 5 -20 -17 vvcurveto
            -41 -21 -31 -42 -26 vhcurveto
            4 -24 15 -21 20 -6 rrcurveto
            83 28 52 59 73 vvcurveto
            19 -4 24 -6 12 vhcurveto
            endchar
          </CharString>
          <CharString index="15">
            5 -19 -29 1 -16 hhcurveto
            -18 -24 -1 -4 -19 hvcurveto
            -348 vlineto
            -73 -33 -41 -76 -75 -33 41 73 vhcurveto
            272 vlineto
            57 -25 24 -49 vhcurveto
            -47 hlineto
            -5 -6 rlineto
            -348 vlineto
            -135 85 -78 149 149 85 78 135 vhcurveto
            return
          </CharString>
          <CharString index="16">
            130 hintmask 11010100
            -102 callsubr
            return
          </CharString>
          <CharString index="17">
            rmoveto
            -16 4 -20 6 -14 vhcurveto
            -9 -23 callgsubr
            8 13 hvcurveto
            6 14 4 20 66 callsubr
            -24 callsubr
            6 -22 hhcurveto
            -23 -25 -6 -8 27 callsubr
            -14 -4 -19 -16 vvcurveto
            return
          </CharString>
          <CharString index="18">
            -91 callgsubr
            hintmask 00101000
            -93 callgsubr
          </CharString>
          <CharString index="19">
            hintmask 00000000
            hintmask 10010000
            208 -96 callgsubr
            return
          </CharString>
          <CharString index="20">
            hintmask 11010000
            -97 callgsubr
            hintmask 00101000
            return
          </CharString>
          <CharString index="21">
            119 hintmask 10101000
            -97 callsubr
            return
          </CharString>
          <CharString index="22">
            35 61 callgsubr
            119 -75 50 -94 -67 -89 -20 -25 -60 vhcurveto
            2 -31 12 -38 19 -20 rrcurveto
            19 52 54 17 47 hhcurveto
            49 27 -24 -55 hvcurveto
            -30 vlineto
            3 -31 -32 1 -24 hhcurveto
            -106 -88 -52 -117 -71 48 -78 101 return
          </CharString>
          <CharString index="23">
            rmoveto
            3 -22 14 -29 19 -11 227 91 rcurveline
            -4 38 -26 43 -22 17 rrcurveto
            endchar
          </CharString>
          <CharString index="24">
            24 61 rmoveto
            -47 70 93 -28 82 hhcurveto
            169 83 89 117 89 -60 63 -90 39 hvcurveto
            -118 50 rlineto
            -47 20 -26 23 37 vvcurveto
            42 36 38 68 52 71 -22 -26 52 vhcurveto
            25 24 17 37 2 37 rrcurveto
            26 -52 -81 28 -87 hhcurveto
            -135 -98 -85 -115 -89 56 -52 83 -37 hvcurveto
            118 -50 57 -25 24 -33 -1 -37 rlinecurve
            -47 -38 -36 -72 -69 -75 30 36 -57 vhcurveto
            -26 -21 -22 -39 -4 -36 rrcurveto
            return
          </CharString>
          <CharString index="25">
            rmoveto
            62 -34 38 -56 vhcurveto
            -17 hlineto
            -18 -34 -1 -3 -30 -67 callsubr
            21 hlineto
            34 11 -20 -34 hvcurveto
            -374 vlineto
            -70 -18 -26 -57 -27 vhcurveto
            3 -30 15 -31 17 -15 rrcurveto
            146 34 17 71 137 vvcurveto
            return
          </CharString>
          <CharString index="26">
            82 hmoveto
            -55 callsubr
            548 -66 callsubr
            return
          </CharString>
          <CharString index="27">
            67 160 rmoveto
            -96 43 -73 93 63 55 32 40 43 vhcurveto
            16 -38 32 -27 49 84 callsubr
            28 5 10 callgsubr
            355 vlineto
            3 -17 -23 2 -22 hhcurveto
            -22 33 callsubr
            -344 vlineto
            -33 -32 -42 -17 -31 hhcurveto
            -43 -12 26 59 hvcurveto
            238 vlineto
            51 -17 27 -49 -30 -29 -11 -16 -18 vhcurveto
            14 -24 5 -33 -36 vvcurveto
            return
          </CharString>
          <CharString index="28">
            5 -6 rlineto
            -6 15 26 -3 20 hhcurveto
            20 19 1 4 16 hvcurveto
            49 158 rlineto
            16 26 -1 9 hhcurveto
            return
          </CharString>
          <CharString index="29">
            272 390 rmoveto
            -14 -35 -11 -45 -11 -35 rrcurveto
            -6 hlineto
            -5 29 -11 37 -15 38 -53 128 rcurveline
            35 -14 -20 13 -33 hhcurveto
            -24 -25 -7 -11 -25 hvcurveto
            161 -369 rlineto
            -168 29 callsubr
            23 -48 callsubr
            164 vlineto
            162 374 -5 7 rlineto
            5 -22 -13 3 -21 hhcurveto
            -16 -20 -1 -5 -18 hvcurveto
            return
          </CharString>
          <CharString index="30">
            -53 callgsubr
            70 72 22 35 49 vhcurveto
            -30 callgsubr
            -31 callsubr
            return
          </CharString>
          <CharString index="31">
            482 248 rmoveto
            84 -18 68 -53 53 vhcurveto
            39 -39 -51 18 -61 -13 callsubr
            -85 18 -67 53 -53 -17 callsubr
            53 18 67 85 vvcurveto
            -316 hmoveto
            -10 callgsubr
            -77 -18 79 89 vhcurveto
            return
          </CharString>
          <CharString index="32">
            -12 3 -28 7 -14 vhcurveto
            -10 16 29 -5 23 hhcurveto
            22 31 5 10 15 hvcurveto
            7 0 callgsubr
            -7 15 vhcurveto
            9 -15 -31 6 -22 hhcurveto
            -23 -29 -6 73 callgsubr
            -7 -15 -3 -27 -12 vvcurveto
            return
          </CharString>
          <CharString index="33">
            394 320 rmoveto
            -38 callsubr
            -140 59 -146 182 97 78 37 46 52 hvcurveto
            -40 callgsubr
            84 21 -63 -79 1 hvcurveto
            return
          </CharString>
          <CharString index="34">
            -35 callsubr
            -375 35 callsubr
            -470 vlineto
            -45 28 -28 45 vhcurveto
            return
          </CharString>
          <CharString index="35">
            128 hintmask 10101000
            -96 callsubr
            hintmask 01010000
            return
          </CharString>
          <CharString index="36">
            hintmask 10010000
            -81 callsubr
            return
          </CharString>
          <CharString index="37">
            -52 25 rlineto
            9 -17 -22 8 -23 hhcurveto
            -49 -40 -32 -47 -22 hvcurveto
            -8 -19 9 -22 29 -15 24 -1 rlinecurve
            10 14 rlineto
            16 12 13 8 14 -45 callsubr
          </CharString>
          <CharString index="38">
            131 hintmask 11010100
            -100 callsubr
            hintmask 00101000
            return
          </CharString>
          <CharString index="39">
            hvcurveto
            -195 542 rlineto
            4 -25 -25 1 25 callgsubr
            -30 -1 -4 -24 hvcurveto
            return
          </CharString>
          <CharString index="40">
            hvcurveto
            -4 -15 -1 -16 -14 vvcurveto
            -16 1 -13 4 -14 vhcurveto
            return
          </CharString>
          <CharString index="41">
            -9 callsubr
            -24 14 callsubr
            -16 -28 -21 callgsubr
            return
          </CharString>
          <CharString index="42">
            rmoveto
            -33 -11 -36 -32 -12 -34 177 -135 rcurveline
            21 6 23 20 9 23 rrcurveto
            endchar
          </CharString>
          <CharString index="43">
            -9 13 31 -7 22 hhcurveto
            23 30 8 8 14 hvcurveto
            6 10 4 27 18 vvcurveto
            17 -4 24 -6 11 vhcurveto
            -9 7 -20 3 -14 2 1 42 42 30 33 13 2 23 -11 26 -21 10 rrcurveto
            -99 -32 -49 -75 -85 vvcurveto
            -26 3 -24 9 -21 vhcurveto
            return
          </CharString>
          <CharString index="44">
            rmoveto
            18 16 4 15 14 vvcurveto
            16 -12 27 -9 16 vhcurveto
            -248 hlineto
            -7 -16 -1 -19 -11 vvcurveto
            -9 0 -15 6 -17 vhcurveto
            74 hlineto
            20 41 2 3 18 hvcurveto
            3 -3 -13 -8 -18 -14 -11 -11 rlinecurve
            -73 -70 4 -21 20 -27 17 -7 rlinecurve
            5 11 13 3 12 hhcurveto
            40 21 -27 -34 -40 -29 -22 -42 -34 -28 14 18 -27 hvcurveto
            -19 -17 -17 -27 -5 -26 rrcurveto
            -27 33 51 -19 62 hhcurveto
            83 80 49 94 73 -51 51 -67 3 hvcurveto
            11 6 9 6 7 7 rrcurveto
            return
          </CharString>
          <CharString index="45">
            rmoveto
            -66 52 -54 77 77 52 54 66 65 -52 54 -77 -77 -52 -54 -65 vhcurveto
            79 hmoveto
            30 20 return
          </CharString>
          <CharString index="46">
            49 112 rmoveto
            -13 -19 -5 -15 -14 vvcurveto
            -15 4 -16 11 -33 vhcurveto
            300 hlineto
            54 18 22 35 17 -4 14 -8 21 hvcurveto
            -12 -26 -37 -3 -39 hhcurveto
            -43 hlineto
            -25 -31 -2 -3 -31 hvcurveto
            -3 4 25 28 29 36 22 31 rlinecurve
            148 198 rlineto
            9 13 4 14 12 vvcurveto
            18 -6 20 -11 33 vhcurveto
            -340 hlineto
            -4 -18 -3 -20 -17 vvcurveto
            -12 1 -15 3 -12 vhcurveto
            95 hlineto
            39 58 3 4 32 hvcurveto
            3 -5 -24 -27 -33 -37 -23 -31 rlinecurve
            return
          </CharString>
          <CharString index="47">
            rmoveto
            -11 3 -27 6 -13 vhcurveto
            -10 14 24 -5 20 hhcurveto
            19 26 5 10 13 hvcurveto
            6 13 2 27 11 vvcurveto
            12 -2 25 71 callsubr
            8 -13 -26 6 -19 hhcurveto
            -20 -24 79 callsubr
            -15 -3 -25 -12 vvcurveto
            endchar
          </CharString>
          <CharString index="48">
            vlineto
            -3 18 20 -2 22 42 callgsubr
            207 vlineto
            1 13 13 1 14 hhcurveto
            39 17 -12 -48 19 hvcurveto
            36 -94 rlineto
            -43 16 15 -19 40 hhcurveto
            32 32 17 21 19 hvcurveto
            -24 17 -12 30 -12 34 rrcurveto
            return
          </CharString>
          <CharString index="49">
            rmoveto
            -23 -23 -15 -34 -5 -31 rrcurveto
            -22 32 60 -19 56 hhcurveto
            140 54 74 141 hvcurveto
            346 41 callsubr
            -16 18 callsubr
            -350 vlineto
            -74 -23 -36 -59 -29 -36 12 16 -26 vhcurveto
            return
          </CharString>
          <CharString index="50">
            39 242 rmoveto
            -151 58 -105 117 58 51 28 38 34 vhcurveto
            16 -32 29 -22 44 84 callsubr
            29 6 22 rrcurveto
            -20 17 -8 33 36 vvcurveto
            517 -4 callsubr
            -252 vlineto
            16 -31 -35 12 -39 hhcurveto
            -101 -95 -87 -176 hvcurveto
            206 -154 rmoveto
            -43 -36 44 109 111 35 57 53 28 30 -14 -17 28 hvcurveto
            -236 vlineto
            -39 -29 -37 -15 -29 hhcurveto
            return
          </CharString>
          <CharString index="51">
            -1 16 -46 callgsubr
            return
          </CharString>
          <CharString index="52">
            -4 20 28 -56 callsubr
            return
          </CharString>
          <CharString index="53">
            rmoveto
            -107 hlineto
            -26 -34 -3 -6 -35 hvcurveto
            11 12 19 14 22 17 56 43 rcurveline
            51 39 31 40 62 vvcurveto
            75 -57 59 -90 -77 -55 -51 -60 -15 vhcurveto
            12 -18 41 -16 26 -1 rrcurveto
            28 9 21 25 28 hhcurveto
            28 19 -21 -26 -25 -11 -17 -27 -22 hvcurveto
            -80 -66 rlineto
            -42 -35 -29 -38 -39 vvcurveto
            -23 20 -23 13 -17 vhcurveto
            216 hlineto
            33 21 17 32 6 hvcurveto
            1 12 1 21 11 vvcurveto
            endchar
          </CharString>
          <CharString index="54">
            rmoveto
            -22 -17 -26 -43 -4 -38 227 -91 rcurveline
            20 12 12 27 4 23 rrcurveto
            endchar
          </CharString>
          <CharString index="55">
            rmoveto
            -37 -22 27 36 47 28 31 54 22 29 -1 -3 26 hvcurveto
            -89 vlineto
            -31 -31 -37 -17 -32 hhcurveto
            return
          </CharString>
          <CharString index="56">
            -7 29 -28 35 -26 18 rrcurveto
            -42 -54 -57 -32 -65 hhcurveto
            -97 -57 85 156 167 46 90 98 100 30 -83 -79 -2 hvcurveto
            return
          </CharString>
          <CharString index="57">
            0 -1 -24 hvcurveto
            112 vlineto
            26 -1 15 27 vvcurveto
            return
          </CharString>
          <CharString index="58">
            11 2 19 15 vvcurveto
            15 -2 17 return
          </CharString>
          <CharString index="59">
            1 4 20 hvcurveto
            return
          </CharString>
          <CharString index="60">
            rmoveto
            -8 16 23 -8 23 hhcurveto
            48 40 30 49 23 hvcurveto
            8 19 -9 21 -29 16 -24 -34 callgsubr
            -13 -9 -14 -34 callsubr
            return
          </CharString>
          <CharString index="61">
            -20 hstemhm
            79 126 hintmask 00000000
            hintmask 10110000
            -29 callgsubr
            hintmask 11010000
            -38 callgsubr
            return
          </CharString>
          <CharString index="62">
            hhcurveto
            11 12 -4 -5 9 hvcurveto
            endchar
          </CharString>
          <CharString index="63">
            126 -71 callsubr
            hintmask 01100000
            return
          </CharString>
          <CharString index="64">
            rmoveto
            9 -27 31 -30 28 -8 196 187 rcurveline
            9 20 0 34 -9 20 -199 186 rcurveline
            -28 -8 -33 -30 -9 -26 137 -161 rcurveline
            return
          </CharString>
          <CharString index="65">
            21 -7 67 -2 32 9 377 683 rcurveline
            -21 7 -67 2 -32 -9 rrcurveto
            return
          </CharString>
          <CharString index="66">
            -5 17 14 -2 19 hhcurveto
            48 24 24 47 107 -96 93 -151 -152 -129 -109 -249 return
          </CharString>
          <CharString index="67">
            19 4 23 15 72 callsubr
            24 callgsubr
            return
          </CharString>
          <CharString index="68">
            216 -66 callsubr
            -548 vlineto
            -4 20 28 -1 16 hhcurveto
            18 24 1 4 20 -12 callsubr
            return
          </CharString>
          <CharString index="69">
            -3 15 15 -2 14 hhcurveto
            52 22 25 45 83 -69 94 -151 -134 -121 -87 -203 return
          </CharString>
          <CharString index="70">
            113 -2 callgsubr
            17 -5 15 -2 -5 -45 -36 -37 -46 -19 -2 -23 11 -26 22 -11 rrcurveto
            106 35 54 88 88 vvcurveto
            26 -4 24 -8 21 vhcurveto
            return
          </CharString>
          <CharString index="71">
            -2 -2 -79 vhcurveto
            21 callgsubr
            -678 16 callsubr
            return
          </CharString>
          <CharString index="72">
            3 20 -29 callsubr
            return
          </CharString>
          <CharString index="73">
            hhcurveto
            -10 -12 4 5 -10 hvcurveto
            return
          </CharString>
          <CharString index="74">
            24 20 39 73 callsubr
            15 0 18 10 vvcurveto
            return
          </CharString>
          <CharString index="75">
            -157 614 -90 callsubr
            endchar
          </CharString>
          <CharString index="76">
            87 212 rmoveto
            62 24 -51 -61 hvcurveto
            -12 -174 vlineto
            79 4 28 45 56 hhcurveto
            return
          </CharString>
          <CharString index="77">
            rmoveto
            -16 4 -19 6 -15 vhcurveto
            -8 -23 callgsubr
            7 13 hvcurveto
            6 15 4 19 16 vvcurveto
            16 -24 callsubr
            5 -22 hhcurveto
            -23 -25 -5 -8 27 callsubr
            -14 -4 -20 -16 vvcurveto
            endchar
          </CharString>
          <CharString index="78">
            14 vvcurveto
            15 0 17 -4 18 vhcurveto
            return
          </CharString>
          <CharString index="79">
            302 108 rmoveto
            -28 -30 -1 -2 -32 hvcurveto
            502 vlineto
            66 callgsubr
            -51 vhcurveto
            -47 35 callgsubr
            -607 -11 callgsubr
            0 19 14 vvcurveto
            return
          </CharString>
          <CharString index="80">
            208 rmoveto
            7 30 3 22 37 vvcurveto
            119 return
          </CharString>
          <CharString index="81">
            291 104 rmoveto
            -25 -30 -2 -3 -32 hvcurveto
            374 vlineto
            56 -22 23 -12 callgsubr
            -6 rlineto
            -475 vlineto
            -45 29 -28 44 53 callgsubr
            3 15 0 15 15 vvcurveto
            return
          </CharString>
          <CharString index="82">
            hhcurveto
            -84 -53 -25 -36 -43 hvcurveto
            -81 -69 return
          </CharString>
          <CharString index="83">
            -4 20 -6 1 callgsubr
            -13 -28 return
          </CharString>
          <CharString index="84">
            139 hlineto
            9 28 1 15 hhcurveto
            return
          </CharString>
          <CharString index="85">
            42 -2 -16 callsubr
            return
          </CharString>
          <CharString index="86">
            1 4 21 hvcurveto
            return
          </CharString>
          <CharString index="87">
            vlineto
            -3 18 23 -2 return
          </CharString>
          <CharString index="88">
            6 -6 rlineto
            -2 77 53 -1 76 hhcurveto
            50 74 11 29 40 hvcurveto
            85 59 14 85 93 vvcurveto
            return
          </CharString>
          <CharString index="89">
            2 3 17 hvcurveto
            return
          </CharString>
          <CharString index="90">
            vhcurveto
            -39 39 51 -18 60 hhcurveto
            61 51 18 39 39 hvcurveto
            53 return
          </CharString>
          <CharString index="91">
            108 186 105 179 107 return
          </CharString>
          <CharString index="92">
            -85 25 -97 73 -56 vhcurveto
            -30 39 return
          </CharString>
          <CharString index="93">
            rmoveto
            16 -9 33 -4 22 8 49 211 rcurveline
            -26 19 -51 5 -32 -8 rrcurveto
            endchar
          </CharString>
          <CharString index="94">
            hhcurveto
            -60 -51 -18 -39 -39 hvcurveto
            -53 -53 -18 -68 -84 vvcurveto
            return
          </CharString>
          <CharString index="95">
            hvcurveto
            230 vlineto
            1 19 18 1 10 hhcurveto
            41 -2 18 -15 20 -45 50 -115 rcurveline
            17 -39 16 -22 44 -1 rrcurveto
            31 34 16 23 17 hvcurveto
            return
          </CharString>
          <CharString index="96">
            6 callgsubr
            29 11 15 18 vhcurveto
            -15 25 -5 33 36 vvcurveto
            return
          </CharString>
          <CharString index="97">
            81 -14 100 462 -20 25 -20 return
          </CharString>
          <CharString index="98">
            vlineto
            4 -20 return
          </CharString>
          <CharString index="99">
            rmoveto
            4 16 1 21 14 -7 callsubr
            -14 1 -21 52 callsubr
            endchar
          </CharString>
          <CharString index="100">
            5 callgsubr
            -420 hlineto
            -4 20 callgsubr
            return
          </CharString>
          <CharString index="101">
            hlineto
            -7 -7 rlineto
            return
          </CharString>
          <CharString index="102">
            12 vvcurveto
            12 return
          </CharString>
          <CharString index="103">
            vlineto
            55 -17 22 -12 callgsubr
            -7 rlineto
            return
          </CharString>
          <CharString index="104">
            -4 18 26 -1 14 hhcurveto
            17 21 1 4 19 hvcurveto
            387 vlineto
            4 -19 -21 50 callsubr
            -14 -26 60 callsubr
            return
          </CharString>
          <CharString index="105">
            134 -14 100 511 100 return
          </CharString>
          <CharString index="106">
            33 callgsubr
            -47 -6 callsubr
            return
          </CharString>
          <CharString index="107">
            118 74 118 return
          </CharString>
          <CharString index="108">
            vlineto
            23 -1 15 21 vvcurveto
            12 25 64 callgsubr
            119 hlineto
            11 24 1 12 hhcurveto
            -21 -1 -15 -23 vvcurveto
            return
          </CharString>
          <CharString index="109">
            -50 38 callgsubr
            return
          </CharString>
          <CharString index="110">
            -8 -14 -21 -8 -20 hhcurveto
            -26 -20 14 return
          </CharString>
          <CharString index="111">
            16 0 20 11 vvcurveto
            return
          </CharString>
          <CharString index="112">
            69 -14 95 386 95 return
          </CharString>
          <CharString index="113">
            -15 vvcurveto
            -15 return
          </CharString>
          <CharString index="114">
            -1 16 hhcurveto
            return
          </CharString>
          <CharString index="115">
            -3 rrcurveto
            2 6 8 2 8 hhcurveto
            return
          </CharString>
          <CharString index="116">
            -227 66 -45 -21 136 56 return
          </CharString>
          <CharString index="117">
            12 callgsubr
            21 return
          </CharString>
          <CharString index="118">
            hstemhm
            37 129 return
          </CharString>
          <CharString index="119">
            21 callgsubr
            -673 vlineto
            7 -6 rlineto
            -2 return
          </CharString>
          <CharString index="120">
            24 -12 22 -14 12 rrcurveto
            return
          </CharString>
          <CharString index="121">
            1 -18 hhcurveto
            return
          </CharString>
          <CharString index="122">
            -22 callgsubr
            40 189 80 callgsubr
            return
          </CharString>
          <CharString index="123">
            vlineto
            -37 callgsubr
            return
          </CharString>
          <CharString index="124">
            98 124 88 124 90 return
          </CharString>
          <CharString index="125">
            -27 -21 callgsubr
            return
          </CharString>
          <CharString index="126">
            -23 53 71 -4 hvcurveto
            return
          </CharString>
          <CharString index="127">
            538 547 rmoveto
            return
          </CharString>
          <CharString index="128">
            -13 callgsubr
            43 212 34 callsubr
            return
          </CharString>
          <CharString index="129">
            -1 17 hhcurveto
            18 -32 callgsubr
            return
          </CharString>
          <CharString index="130">
            hvcurveto
            -238 6 callgsubr
            return
          </CharString>
          <CharString index="131">
            -4 17 vhcurveto
            return
          </CharString>
          <CharString index="132">
            -10 callsubr
            58 212 47 callgsubr
            return
          </CharString>
          <CharString index="133">
            hlineto
            -4 -17 -1 -18 -14 vvcurveto
            -14 1 -18 4 -17 vhcurveto
            endchar
          </CharString>
          <CharString index="134">
            -15 hvcurveto
            -6 return
          </CharString>
          <CharString index="135">
            hvcurveto
            -6 -10 -4 -25 -16 vvcurveto
            -16 4 -25 6 -11 vhcurveto
            -9 return
          </CharString>
          <CharString index="136">
            48 callgsubr
            27 80 callsubr
            return
          </CharString>
          <CharString index="137">
            hvcurveto
            92 74 16 106 117 vvcurveto
            return
          </CharString>
          <CharString index="138">
            -199 -21 627 92 return
          </CharString>
          <CharString index="139">
            125 hintmask 00000000
            return
          </CharString>
          <CharString index="140">
            -23 -2 -3 -17 hvcurveto
            return
          </CharString>
          <CharString index="141">
            hstemhm
            36 callsubr
            return
          </CharString>
          <CharString index="142">
            hlineto
            -6 -6 rlineto
            return
          </CharString>
          <CharString index="143">
            79 125 return
          </CharString>
          <CharString index="144">
            -27 -1 -4 return
          </CharString>
          <CharString index="145">
            4 -15 vhcurveto
            return
          </CharString>
          <CharString index="146">
            61 callsubr
            21 13 5 callgsubr
            return
          </CharString>
          <CharString index="147">
            -15 -20 -20 -13 -15 -28 -18 -19 6 8 -12 hvcurveto
            return
          </CharString>
          <CharString index="148">
            -20 callgsubr
            -18 hhcurveto
            return
          </CharString>
          <CharString index="149">
            79 -14 111 498 102 return
          </CharString>
          <CharString index="150">
            29 212 11 callsubr
            return
          </CharString>
          <CharString index="151">
            19 393 112 -4 -20 return
          </CharString>
          <CharString index="152">
            124 hintmask 00000000
            return
          </CharString>
          <CharString index="153">
            hstem
            85 127 return
          </CharString>
          <CharString index="154">
            189 hstemhm
            return
          </CharString>
          <CharString index="155">
            vlineto
            hintmask 11011100
            36 8 33 20 17 vhcurveto
            -5 22 return
          </CharString>
          <CharString index="156">
            -14 100 375 101 return
          </CharString>
          <CharString index="157">
            1 -17 hhcurveto
            return
          </CharString>
          <CharString index="158">
            -6 -5 rlineto
            return
          </CharString>
          <CharString index="159">
            4 -16 vhcurveto
            return
          </CharString>
          <CharString index="160">
            -8 -14 -20 -8 -21 hhcurveto
            -26 -19 14 28 return
          </CharString>
          <CharString index="161">
            101 322 96 -7 -20 11 callgsubr
            return
          </CharString>
          <CharString index="162">
            hlineto
            46 29 20 41 6 hvcurveto
            3 15 0 return
          </CharString>
          <CharString index="163">
            10 vhcurveto
            9 -15 -25 5 -23 hhcurveto
            endchar
          </CharString>
          <CharString index="164">
            -6 -14 94 336 94 return
          </CharString>
          <CharString index="165">
            132 166 135 return
          </CharString>
          <CharString index="166">
            -87 -14 92 339 93 return
          </CharString>
          <CharString index="167">
            -1 -4 -18 hvcurveto
            return
          </CharString>
          <CharString index="168">
            rmoveto
            4 17 1 return
          </CharString>
          <CharString index="169">
            107 112 107 return
          </CharString>
          <CharString index="170">
            hvcurveto
            -8 -20 return
          </CharString>
          <CharString index="171">
            -4 19 vhcurveto
            return
          </CharString>
          <CharString index="172">
            121 vstem
            return
          </CharString>
          <CharString index="173">
            16 vvcurveto
            15 return
          </CharString>
          <CharString index="174">
            -163 -151 92 782 92 hstem
            return
          </CharString>
          <CharString index="175">
            495 267 -267 281 hstemhm
            return
          </CharString>
          <CharString index="176">
            -48 -219 93 627 -20 23 -20 return
          </CharString>
          <CharString index="177">
            -4 16 vhcurveto
            return
          </CharString>
          <CharString index="178">
            -6 15 vhcurveto
            return
          </CharString>
          <CharString index="179">
            vvcurveto
            14 -1 return
          </CharString>
          <CharString index="180">
            7 hvcurveto
            2 return
          </CharString>
          <CharString index="181">
            20 callgsubr
            -13 1 -21 return
          </CharString>
          <CharString index="182">
            -195 -21 28 -21 200 95 return
          </CharString>
          <CharString index="183">
            hstem
            126 136 vstem
            126 return
          </CharString>
          <CharString index="184">
            130 hintmask 00000000
            return
          </CharString>
          <CharString index="185">
            hhcurveto
            -23 -30 -7 -8 return
          </CharString>
          <CharString index="186">
            -31 callgsubr
            -6 return
          </CharString>
          <CharString index="187">
            7 callsubr
            18 return
          </CharString>
          <CharString index="188">
            -5 73 callgsubr
            return
          </CharString>
          <CharString index="189">
            hlineto
            -4 -15 -1 return
          </CharString>
          <CharString index="190">
            hstemhm
            44 133 return
          </CharString>
          <CharString index="191">
            -6 18 13 19 return
          </CharString>
          <CharString index="192">
            hstem
            39 127 return
          </CharString>
          <CharString index="193">
            131 vstem
            return
          </CharString>
          <CharString index="194">
            10 537 return
          </CharString>
        <CharString name=".notdef">
          -341 endchar
        </CharString>
        <CharString name=".null">
          -527 endchar
        </CharString>
        <CharString name="A">
          -22 callgsubr
          hstem
          15 591 vstem
          -106 callsubr
          endchar
        </CharString>
        <CharString name="AE">
          353 -2 108 50 103 33 105 179 107 hstem
          396 51 callgsubr
          261 156 rmoveto
          89 hlineto
          8 22 0 1 16 hvcurveto
          -82 vlineto
          -48 27 -29 46 vhcurveto
          285 hlineto
          46 28 21 40 7 hvcurveto
          3 4 callsubr
          -250 hlineto
          -27 -21 -1 -1 -21 hvcurveto
          22 1 17 21 vvcurveto
          129 vlineto
          -1 24 25 0 15 hhcurveto
          176 -54 callgsubr
          -176 hlineto
          -15 -25 -50 callsubr
          65 hlineto
          226 hlineto
          7 19 3 23 15 vvcurveto
          14 0 24 callgsubr
          -413 hlineto
          -24 -34 -3 -8 -18 hvcurveto
          -316 -662 4 -7 rlineto
          -6 17 25 -2 22 hhcurveto
          20 22 0 5 19 hvcurveto
          72 157 rlineto
          -1 17 23 0 9 hhcurveto
          63 243 rmoveto
          22 49 26 63 20 51 rrcurveto
          4 -304 hlineto
          -16 -22 1 -8 hhcurveto
          -54 hlineto
          -8 -16 -1 -13 hhcurveto
          endchar
        </CharString>
        <CharString name="Aacute">
          15 callsubr
          -403 263 -103 callgsubr
          hintmask 00010100
          -13 531 -84 callsubr
        </CharString>
        <CharString name="Acircumflex">
          -22 callgsubr
          39 174 80 callgsubr
          -463 335 -103 callgsubr
          hintmask 00010100
          210 477 -84 callgsubr
        </CharString>
        <CharString name="Adieresis">
          -22 callgsubr
          62 103 80 callgsubr
          -456 62 callsubr
          -103 callgsubr
          hintmask 00010110
          208 594 -106 callgsubr
        </CharString>
        <CharString name="Agrave">
          15 callsubr
          -434 263 -103 callgsubr
          hintmask 00010100
          8 658 -53 callsubr
        </CharString>
        <CharString name="Aogonek">
          95 -218 80 139 -20 28 -15 callgsubr
          hstemhm
          424 95 hintmask 00000000
          hintmask 10111100
          15 9 rmoveto
          -79 callsubr
          -23 callsubr
          hintmask 11011100
          30 -97 9 -32 11 -18 15 -9 rlinecurve
          -35 -30 -33 -43 -50 vvcurveto
          -60 47 -36 66 43 43 17 21 24 vhcurveto
          -1 -3 callgsubr
          28 39 35 35 52 30 hvcurveto
          -221 674 rlineto
          4 -18 -34 2 25 callgsubr
          -33 -2 70 callgsubr
          21 -283 -87 callgsubr
          endchar
        </CharString>
        <CharString name="Aring">
          95 9 -20 167 104 576 67 hstem
          184 79 99 79 vstem
          -83 callgsubr
          -1 hlineto
          36 22 21 37 43 vvcurveto
          65 -51 54 -77 -77 -52 -54 -65 -42 21 -38 35 -21 vhcurveto
          -1 hlineto
          -101 callsubr
          47 525 rmoveto
          30 20 22 30 29 20 -22 -30 -31 -20 -22 -29 -30 -20 22 31 vhcurveto
          endchar
        </CharString>
        <CharString name="Atilde">
          -22 callgsubr
          53 97 80 callgsubr
          -481 376 -103 callgsubr
          hintmask 00000000
          104 498 -47 callsubr
          hintmask 00010100
          -70 callsubr
        </CharString>
        <CharString name="B">
          82 -5 94 222 95 188 94 hstemhm
          85 126 196 126 -97 129 hintmask 00000000
          hintmask 11110100
          92 684 rmoveto
          12 callsubr
          79 72 -2 79 hhcurveto
          161 82 76 122 84 -56 69 -68 21 hvcurveto
          hintmask 11111000
          54 22 38 55 63 vvcurveto
          117 -80 64 -145 vhcurveto
          hintmask 11110100
          -68 -73 -2 -2 -75 hvcurveto
          221 -373 rmoveto
          97 26 -64 -48 -47 -21 -63 -97 hvcurveto
          -32 -37 -1 -38 hhcurveto
          223 vlineto
          284 vmoveto
          -1 29 40 0 24 hhcurveto
          hintmask 11111000
          84 19 -48 -46 -44 -21 -50 -83 hvcurveto
          -92 hlineto
          endchar
        </CharString>
        <CharString name="C">
          42 callsubr
          hstem
          44 134 vstem
          -74 callgsubr
          endchar
        </CharString>
        <CharString name="CR">
          -341 endchar
        </CharString>
        <CharString name="Cacute">
          42 callsubr
          32 47 callsubr
          44 134 35 263 hintmask 11010000
          -74 callgsubr
          hintmask 00101000
          -237 358 -84 callsubr
        </CharString>
        <CharString name="Ccaron">
          42 callsubr
          42 27 callgsubr
          44 134 -24 336 hintmask 11010000
          -74 callgsubr
          hintmask 00101000
          -245 471 -92 callgsubr
        </CharString>
        <CharString name="Ccedilla">
          79 9 callsubr
          630 102 hstemhm
          44 134 161 97 hintmask 00000000
          hintmask 10111100
          259 -75 rmoveto
          3 -8 8 -9 9 8 callsubr
          24 14 40 callsubr
          hintmask 01111100
          -13 -15 -8 84 callgsubr
          hintmask 10111100
          -12 17 33 -10 31 hhcurveto
          75 53 43 61 49 -39 36 -57 3 hvcurveto
          2 7 4 9 3 7 91 10 80 42 49 49 -51 callsubr
          -41 callsubr
          -167 60 -168 175 -16 63 callsubr
          -8 -26 -4 -17 rrcurveto
          endchar
        </CharString>
        <CharString name="D">
          129 -5 101 491 101 46 callsubr
          267 86 callsubr
          -50 callgsubr
          endchar
        </CharString>
        <CharString name="Dcaron">
          129 -5 101 491 101 50 27 callgsubr
          85 127 -68 336 -1 131 hintmask 11010100
          -50 callgsubr
          hintmask 00101000
          -284 561 -92 callgsubr
        </CharString>
        <CharString name="E">
          -22 callsubr
          hstem
          84 37 callgsubr
          -105 callsubr
          endchar
        </CharString>
        <CharString name="Eacute">
          16 callgsubr
          -21 263 -102 callgsubr
          hintmask 00010100
          -337 684 -84 callsubr
        </CharString>
        <CharString name="Ecaron">
          -22 callsubr
          55 27 callgsubr
          87 callgsubr
          -80 336 -102 callgsubr
          hintmask 00010100
          -345 797 -92 callgsubr
        </CharString>
        <CharString name="Ecircumflex">
          -22 callsubr
          44 27 callgsubr
          87 callgsubr
          -81 335 -102 callgsubr
          hintmask 00010100
          -114 630 -84 callgsubr
        </CharString>
        <CharString name="Edieresis">
          -22 callsubr
          67 103 hstemhm
          87 callgsubr
          -74 62 callsubr
          -102 callgsubr
          hintmask 00010110
          -116 747 -106 callgsubr
        </CharString>
        <CharString name="Egrave">
          16 callgsubr
          -52 263 -102 callgsubr
          hintmask 00010100
          -316 811 -53 callsubr
        </CharString>
        <CharString name="Eogonek">
          44 -218 80 136 -16 callsubr
          hstem
          87 callgsubr
          88 95 vstem
          -105 callgsubr
          207 hlineto
          -38 -29 -28 -42 -48 vvcurveto
          -61 4 callgsubr
          -1 24 -13 22 -14 12 rrcurveto
          53 callsubr
          34 27 40 55 24 hvcurveto
          7 3 23 9 14 18 5 27 rlinecurve
          2 4 callsubr
          endchar
        </CharString>
        <CharString name="Eth">
          144 -5 101 198 104 189 101 hstem
          100 125 269 86 callsubr
          625 8 callgsubr
          -44 -80 15 -53 hhcurveto
          -83 -63 -1 -3 -87 hvcurveto
          21 callgsubr
          -280 -73 vlineto
          -4 -17 -1 -19 -17 vvcurveto
          -18 1 -17 52 callsubr
          73 -289 hlineto
          7 -6 rlineto
          -2 87 63 -2 83 hhcurveto
          53 80 14 36 44 30 callsubr
          -256 -48 rmoveto
          3 16 2 17 19 vvcurveto
          19 -2 16 -3 17 vhcurveto
          -144 190 hlineto
          -1 42 33 0 39 hhcurveto
          135 20 -132 -113 -112 -20 -134 -135 hvcurveto
          -114 198 hlineto
          endchar
        </CharString>
        <CharString name="Euro">
          37 -14 102 118 80 74 80 120 102 hstem
          92 51 callgsubr
          494 503 rmoveto
          26 15 23 32 5 28 rrcurveto
          51 -61 -79 33 -79 hhcurveto
          -144 -64 -98 -124 -21 hvcurveto
          -80 81 callgsubr
          -13 -11 vvcurveto
          -13 50 callgsubr
          72 hlineto
          -1 -13 0 -12 -12 vvcurveto
          -13 0 -12 1 -12 vhcurveto
          -72 81 callgsubr
          -13 -12 vvcurveto
          -12 50 callgsubr
          80 hlineto
          -122 22 63 -98 144 hhcurveto
          79 78 32 52 62 hvcurveto
          -5 28 -21 31 -28 16 rrcurveto
          -33 -45 -55 -24 -48 hhcurveto
          -65 -39 40 78 -16 hvcurveto
          188 hlineto
          3 15 1 11 13 72 callsubr
          11 -3 16 vhcurveto
          -198 37 hlineto
          37 198 vlineto
          3 15 1 12 13 vvcurveto
          13 -1 11 -3 16 vhcurveto
          -188 hlineto
          80 16 38 40 66 hhcurveto
          48 55 -24 -33 45 hvcurveto
          endchar
        </CharString>
        <CharString name="Euro.smcp">
          -28 -14 98 88 73 58 73 88 98 -65 -20 hstemhm
          81 78 callgsubr
          hintmask 11110100
          435 424 rmoveto
          hintmask 11101100
          26 13 21 32 4 28 rrcurveto
          hintmask 11110100
          41 -54 -65 24 -70 hhcurveto
          -132 -56 -84 -102 -20 hvcurveto
          -72 82 callsubr
          -13 -9 vvcurveto
          -9 50 callgsubr
          64 hlineto
          -1 -10 0 -10 -10 vvcurveto
          -10 0 -9 1 -9 vhcurveto
          -64 82 callsubr
          -13 -8 vvcurveto
          -10 50 callgsubr
          72 hlineto
          -102 21 59 -84 127 hhcurveto
          73 63 24 42 54 hvcurveto
          -4 27 -20 30 -27 14 rrcurveto
          -24 -38 -47 -15 -38 hhcurveto
          -55 -33 30 58 -15 hvcurveto
          154 hlineto
          4 15 1 11 11 vvcurveto
          11 -1 10 -4 15 vhcurveto
          -165 28 hlineto
          30 165 vlineto
          4 15 1 11 10 vvcurveto
          12 -1 10 -4 15 vhcurveto
          -154 hlineto
          58 15 33 30 55 hhcurveto
          38 46 -15 -25 39 hvcurveto
          endchar
        </CharString>
        <CharString name="F">
          0 290 105 179 109 46 callsubr
          vstem
          212 hmoveto
          290 34 vlineto
          198 hlineto
          4 16 2 22 15 vvcurveto
          13 -2 23 70 callsubr
          -198 hlineto
          -34 78 hlineto
          33 -1 34 35 vvcurveto
          -1 26 29 0 32 hhcurveto
          138 hlineto
          47 23 18 41 16 -2 20 -4 14 hvcurveto
          -408 35 callgsubr
          -677 vlineto
          -4 21 25 -1 18 hhcurveto
          20 22 -21 callsubr
          endchar
        </CharString>
        <CharString name="G">
          121 -14 103 174 107 220 107 hstem
          44 131 293 65 callsubr
          346 370 rmoveto
          -5 -15 -4 -21 -16 vvcurveto
          -40 19 -15 41 18 27 -1 1 28 vhcurveto
          -2 -21 0 -23 -22 vvcurveto
          -95 vlineto
          -7 -31 -37 -6 -43 hhcurveto
          -118 -64 80 167 183 75 71 102 63 63 -24 -35 50 hvcurveto
          26 17 29 38 4 38 rrcurveto
          44 -63 -87 29 -90 hhcurveto
          -151 -152 -111 -249 -198 85 -153 206 103 91 21 22 60 hvcurveto
          261 vlineto
          49 -22 33 -66 -1 vhcurveto
          endchar
        </CharString>
        <CharString name="H">
          152 298 108 46 callsubr
          255 65 callgsubr
          467 hmoveto
          -4 20 25 -1 -8 callgsubr
          23 -21 callsubr
          683 -9 callsubr
          -27 50 callsubr
          -18 -25 -21 callgsubr
          -204 vlineto
          -28 1 -19 -27 vvcurveto
          -12 -31 1 -11 hhcurveto
          -149 hlineto
          -11 -31 -1 -12 hhcurveto
          27 1 19 28 vvcurveto
          204 -67 callgsubr
          -683 2 callgsubr
          225 vlineto
          28 -1 19 27 vvcurveto
          12 31 64 callgsubr
          149 hlineto
          11 31 1 12 hhcurveto
          -27 -1 -19 -28 vvcurveto
          endchar
        </CharString>
        <CharString name="Hbar">
          161 297 106 89 95 hstem
          89 128 254 72 callgsubr
          217 hmoveto
          224 vlineto
          28 -1 19 27 vvcurveto
          11 32 64 callgsubr
          148 hlineto
          11 32 1 11 hhcurveto
          -27 -1 -19 -28 vvcurveto
          -224 vlineto
          -4 21 25 -1 -8 callgsubr
          23 -21 callsubr
          492 69 vlineto
          30 callgsubr
          11 24 callsubr
          -69 96 hlineto
          4 -20 -27 14 callsubr
          -18 -25 -21 callgsubr
          -96 -254 96 vlineto
          4 -21 -25 14 callsubr
          -17 18 callsubr
          -96 -68 vlineto
          -5 -17 -1 -14 -17 vvcurveto
          -18 1 -13 5 -16 vhcurveto
          68 -492 hlineto
          -4 20 27 -1 17 hhcurveto
          18 25 -21 callsubr
          201 403 rmoveto
          -148 hlineto
          -11 -32 -1 -11 hhcurveto
          27 1 21 28 vvcurveto
          14 254 -14 vlineto
          -28 1 -21 -27 vvcurveto
          -11 -32 1 -11 hhcurveto
          endchar
        </CharString>
        <CharString name="I">
          18 callgsubr
          hstem
          88 65 callgsubr
          -80 callgsubr
          endchar
        </CharString>
        <CharString name="IJ">
          229 -10 106 -101 693 hstemhm
          88 127 339 128 hintmask 01100000
          -80 callgsubr
          hintmask 10010000
          266 -555 -59 callgsubr
          endchar
        </CharString>
        <CharString name="Iacute">
          18 callgsubr
          41 47 callsubr
          42 263 -217 127 -70 callgsubr
          hintmask 01100000
          -46 108 -84 callsubr
        </CharString>
        <CharString name="Icircumflex">
          18 callgsubr
          40 27 callgsubr
          -18 335 -229 127 -70 callgsubr
          hintmask 01100000
          177 54 -84 callgsubr
        </CharString>
        <CharString name="Idieresis">
          18 callgsubr
          63 103 hstemhm
          -11 107 -8 127 -7 107 -70 callgsubr
          hintmask 01101000
          175 171 -106 callgsubr
        </CharString>
        <CharString name="Igrave">
          18 callgsubr
          41 47 callsubr
          11 263 -186 127 -70 callgsubr
          hintmask 01100000
          -25 235 -53 callsubr
        </CharString>
        <CharString name="Itilde">
          18 callgsubr
          54 97 hstemhm
          -36 376 -252 127 -70 callgsubr
          hintmask 00000000
          71 75 -49 callgsubr
        </CharString>
        <CharString name="J">
          -70 -10 106 hstem
          256 72 callgsubr
          56 128 -59 callgsubr
          endchar
        </CharString>
        <CharString name="Jcircumflex">
          -70 -10 106 631 27 callgsubr
          151 335 -230 128 hintmask 10010000
          56 128 -59 callgsubr
          hintmask 01100000
          378 608 -84 callgsubr
        </CharString>
        <CharString name="K">
          79 299 108 267 13 46 callsubr
          vstem
          -71 callgsubr
          endchar
        </CharString>
        <CharString name="Kcommaaccent">
          79 -24 callgsubr
          351 108 267 13 hstemhm
          85 127 68 111 hintmask 00011100
          -71 callgsubr
          hintmask 11100010
          -212 -91 -93 callsubr
        </CharString>
        <CharString name="L">
          -11 -2 110 hstem
          84 72 callgsubr
          -28 callsubr
          endchar
        </CharString>
        <CharString name="Ldot">
          -11 -2 110 198 103 hstemhm
          84 128 124 125 hintmask 10100000
          -28 callsubr
          hintmask 01010000
          -155 249 -60 callsubr
        </CharString>
        <CharString name="Lslash">
          -3 -2 110 hstem
          92 72 callgsubr
          220 607 rmoveto
          66 callgsubr
          -50 vhcurveto
          -48 35 callgsubr
          -303 vlineto
          -80 -27 -6 -31 0 -40 8 -24 rlinecurve
          9 -5 69 24 rlineto
          -201 -11 callgsubr
          1 19 14 vvcurveto
          -190 hlineto
          -28 -30 -1 -2 -32 hvcurveto
          211 vlineto
          179 59 6 32 -1 40 -8 23 rlinecurve
          -9 5 -167 -58 rlineto
          endchar
        </CharString>
        <CharString name="M">
          291 2 -20 121 125 317 137 hstem
          66 685 vstem
          66 2 rmoveto
          -5 18 26 -2 20 hhcurveto
          20 19 1 3 18 hvcurveto
          21 332 3 61 3 91 2 62 rlinecurve
          6 hlineto
          122 -442 rlineto
          -3 18 29 -2 17 hhcurveto
          19 28 2 3 19 hvcurveto
          122 442 rlineto
          6 hlineto
          1 -62 3 -91 4 -61 20 -332 rcurveline
          -3 19 18 -1 19 hhcurveto
          21 26 2 5 18 hvcurveto
          -53 680 rlineto
          5 -28 -36 1 -22 hhcurveto
          -22 -30 -1 -5 -28 hvcurveto
          -81 -286 -8 -28 -25 -103 -6 -37 rlinecurve
          -6 hlineto
          -6 37 -25 103 -8 28 -81 286 rcurveline
          5 -27 -32 1 -22 hhcurveto
          -21 -37 -1 -5 -28 hvcurveto
          endchar
        </CharString>
        <CharString name="N">
          49 callgsubr
          hstem
          85 118 280 118 vstem
          595 688 rmoveto
          -42 hlineto
          -50 -20 -21 -57 hvcurveto
          -200 vlineto
          -69 4 -114 6 -85 vhcurveto
          -3 -1 -18 39 -22 53 -26 55 rlinecurve
          -189 395 rlineto
          4 -26 -32 50 callsubr
          -15 -40 -2 -5 -20 hvcurveto
          -681 48 callgsubr
          24 7 callsubr
          16 21 -21 callsubr
          268 vlineto
          78 -4 113 -6 75 vhcurveto
          4 1 17 -41 20 -48 24 -50 rlinecurve
          191 -396 rlineto
          -4 27 32 7 callsubr
          16 41 2 5 20 hvcurveto
          680 vlineto
          endchar
        </CharString>
        <CharString name="Nacute">
          49 callgsubr
          40 47 callsubr
          85 118 33 263 -16 -86 callgsubr
          hintmask 01010000
          -365 108 -84 callsubr
        </CharString>
        <CharString name="Ncaron">
          49 callgsubr
          50 27 callgsubr
          85 118 -26 336 -30 -86 callgsubr
          hintmask 01010000
          -373 221 -92 callgsubr
        </CharString>
        <CharString name="Ntilde">
          49 callgsubr
          53 97 hstemhm
          85 118 -45 376 -51 -86 callgsubr
          hintmask 00000000
          -248 75 -47 callsubr
          hintmask 01010000
          -70 callsubr
        </CharString>
        <CharString name="O">
          -2 callsubr
          hstem
          44 133 307 133 vstem
          -104 callsubr
          endchar
        </CharString>
        <CharString name="OE">
          377 -1 107 186 105 179 107 hstem
          44 132 252 123 vstem
          868 106 rmoveto
          -248 hlineto
          -27 -22 -1 -1 -21 hvcurveto
          23 1 15 21 vvcurveto
          130 vlineto
          -1 24 26 -75 callgsubr
          -26 -50 callsubr
          66 hlineto
          224 hlineto
          7 -40 callsubr
          -379 hlineto
          6 -41 -50 8 -44 -25 callsubr
          -27 -118 -107 vvcurveto
          -107 27 -33 callgsubr
          45 51 7 6 40 hvcurveto
          316 55 callsubr
          21 10 vvcurveto
          -536 -20 rmoveto
          -131 -25 141 115 115 25 140 131 31 34 -6 -8 31 hvcurveto
          -483 vlineto
          -8 -31 -34 -6 -31 hhcurveto
          endchar
        </CharString>
        <CharString name="Oacute">
          29 callgsubr
          44 263 0 -94 callsubr
          hintmask 00101000
          177 448 -84 callsubr
        </CharString>
        <CharString name="Ocircumflex">
          -2 callsubr
          30 174 83 callsubr
          -16 335 -12 -94 callsubr
          hintmask 00101000
          400 394 -84 callgsubr
        </CharString>
        <CharString name="Odieresis">
          -2 callsubr
          53 103 83 callsubr
          -9 62 callsubr
          -10 133 hintmask 11010010
          -104 callsubr
          hintmask 00101100
          398 511 -106 callgsubr
        </CharString>
        <CharString name="Ograve">
          29 callgsubr
          13 263 31 -94 callsubr
          hintmask 00101000
          198 575 -53 callsubr
        </CharString>
        <CharString name="Oslash">
          137 -14 97 517 97 hstem
          44 129 317 129 vstem
          44 342 rmoveto
          -99 23 -108 66 -71 vhcurveto
          -45 -81 17 -21 35 -18 29 -5 rlinecurve
          40 71 rlineto
          -15 33 39 -9 51 hhcurveto
          84 53 25 36 43 hvcurveto
          80 69 27 119 107 vvcurveto
          98 -23 108 -66 71 vhcurveto
          46 82 -17 22 -35 18 -29 5 rlinecurve
          -41 -73 rlineto
          15 -32 -40 9 -50 hhcurveto
          -84 -54 -25 -36 -42 hvcurveto
          -81 -69 -27 -118 -107 vvcurveto
          129 hmoveto
          116 27 142 132 29 24 -7 -12 20 vhcurveto
          -208 -398 rlineto
          -19 48 -5 58 53 vvcurveto
          317 hmoveto
          -116 -26 -143 -132 -29 -24 7 12 -20 vhcurveto
          207 398 rlineto
          18 -48 6 -58 -52 vvcurveto
          endchar
        </CharString>
        <CharString name="Otilde">
          -2 callsubr
          50 97 83 callsubr
          -38 376 -31 -94 callsubr
          hintmask 00000000
          290 422 rmoveto
          -9 17 22 -8 23 hhcurveto
          48 41 30 49 22 hvcurveto
          8 19 -9 22 -28 15 -24 1 rlinecurve
          -10 -14 rlineto
          -16 -13 -12 -9 -14 hhcurveto
          -10 -13 4 5 -10 hvcurveto
          hintmask 00101000
          -52 26 rlineto
          8 -17 -22 8 -23 hhcurveto
          -50 -39 -32 -46 -22 63 callsubr
          8 -22 29 -15 24 -1 rlinecurve
          11 14 rlineto
          16 12 13 9 13 hhcurveto
          12 12 -4 -5 9 hvcurveto
          endchar
        </CharString>
        <CharString name="P">
          49 231 99 258 100 46 callsubr
          200 86 callsubr
          543 459 rmoveto
          154 -99 75 -136 -71 -66 -36 callsubr
          19 25 1 4 20 hvcurveto
          231 96 vlineto
          137 98 78 150 hvcurveto
          -331 130 rmoveto
          -1 31 32 0 25 hhcurveto
          92 20 -73 -56 -55 -20 -74 -92 -16 -38 -1 -1 -34 hvcurveto
          endchar
        </CharString>
        <CharString name="Q">
          133 -134 91 29 101 510 100 hstemhm
          44 132 306 132 hintmask 00000000
          hintmask 11111000
          446 -102 rmoveto
          -20 24 27 -12 38 hhcurveto
          42 39 32 59 2 hvcurveto
          -38 1 -30 10 -59 42 -23 16 rcurveline
          22 8 20 14 19 21 rrcurveto
          67 69 18 105 98 vvcurveto
          107 -25 120 -80 69 vhcurveto
          36 -43 -52 24 -85 hhcurveto
          -84 -53 -24 -36 -42 hvcurveto
          -81 -69 -25 -120 -106 vvcurveto
          hintmask 01111000
          -106 25 -120 81 -70 vhcurveto
          -36 43 54 -24 84 hhcurveto
          7 hlineto
          -162 356 rmoveto
          116 22 139 131 131 22 -139 -116 -116 -22 -139 -131 -131 -22 139 116 vhcurveto
          endchar
        </CharString>
        <CharString name="R">
          45 callgsubr
          hstem
          85 126 208 86 callsubr
          -100 callsubr
          endchar
        </CharString>
        <CharString name="Racute">
          45 callgsubr
          40 47 callsubr
          85 126 -20 263 -35 -69 callsubr
          -20 425 -84 callsubr
        </CharString>
        <CharString name="Rcaron">
          45 callgsubr
          50 27 callgsubr
          85 126 -79 336 -49 -69 callsubr
          -28 538 -92 callgsubr
        </CharString>
        <CharString name="Rcommaaccent">
          79 -24 callgsubr
          317 102 222 99 hstemhm
          85 126 67 111 30 131 hintmask 00011101
          -100 callsubr
          hintmask 11100010
          168 -424 -93 callsubr
        </CharString>
        <CharString name="S">
          58 callgsubr
          hstem
          50 130 207 134 vstem
          -83 callsubr
          endchar
        </CharString>
        <CharString name="Sacute">
          58 callgsubr
          31 47 callsubr
          50 130 -4 263 -52 -60 callgsubr
          152 729 -84 callsubr
        </CharString>
        <CharString name="Scaron">
          58 callgsubr
          41 27 callgsubr
          50 130 -63 336 -66 -60 callgsubr
          144 842 -92 callgsubr
        </CharString>
        <CharString name="T">
          -28 577 106 hstem
          187 65 callgsubr
          -41 callgsubr
          endchar
        </CharString>
        <CharString name="Tcaron">
          -28 577 106 55 27 callgsubr
          81 336 -230 127 hintmask 10010000
          -41 callgsubr
          hintmask 01100000
          -55 325 -92 callgsubr
        </CharString>
        <CharString name="Thorn">
          52 141 100 245 100 46 callsubr
          199 86 callsubr
          85 hmoveto
          -61 callgsubr
          141 94 vlineto
          137 99 72 151 154 -100 68 -136 -32 -31 -1 -1 -31 hvcurveto
          99 -67 callgsubr
          213 -197 rmoveto
          92 21 -67 -55 -55 -21 -68 -92 hvcurveto
          -14 -37 -1 -35 hhcurveto
          246 vlineto
          endchar
        </CharString>
        <CharString name="U">
          46 callgsubr
          hstem
          76 127 264 72 callgsubr
          -96 callsubr
          endchar
        </CharString>
        <CharString name="Uacute">
          40 callgsubr
          21 263 -20 -72 callsubr
          -371 545 -84 callsubr
        </CharString>
        <CharString name="Ucircumflex">
          46 callgsubr
          639 27 callgsubr
          76 127 -39 335 -32 -72 callsubr
          -148 491 -84 callgsubr
        </CharString>
        <CharString name="Udieresis">
          46 callgsubr
          662 103 hstemhm
          76 127 -32 62 callsubr
          -30 128 hintmask 10100100
          -96 callsubr
          hintmask 01011000
          -150 608 -106 callgsubr
        </CharString>
        <CharString name="Ugrave">
          40 callgsubr
          -10 263 11 -72 callsubr
          -350 672 -53 callsubr
        </CharString>
        <CharString name="Uring">
          46 callgsubr
          576 67 105 67 hstemhm
          76 127 2 79 100 79 4 128 hintmask 10010010
          -96 callsubr
          hintmask 01101100
          -390 539 -17 callgsubr
        </CharString>
        <CharString name="V">
          60 -5 115 hstemhm
          16 558 77 callgsubr
          306 110 rmoveto
          -5 -2 2 9 -2 hvcurveto
          -12 55 -15 68 -15 53 -93 331 rcurveline
          45 -12 -20 18 -37 hhcurveto
          -27 -27 -9 -10 -23 hvcurveto
          177 -618 rlineto
          -51 15 30 -8 42 hhcurveto
          33 36 1 4 31 hvcurveto
          194 672 -6 8 rlineto
          5 -16 -25 3 -17 hhcurveto
          -18 -20 60 callgsubr
          endchar
        </CharString>
        <CharString name="W">
          344 -5 111 438 125 hstem
          24 822 vstem
          147 55 rmoveto
          -53 10 32 -7 41 hhcurveto
          33 44 2 4 31 hvcurveto
          55 302 13 71 15 93 11 77 rlinecurve
          7 hlineto
          10 -77 15 -94 11 -70 43 -248 rcurveline
          -53 8 32 -7 38 hhcurveto
          33 48 2 4 30 hvcurveto
          139 671 -6 8 rlineto
          5 -18 -23 3 -20 hhcurveto
          -18 -21 60 callsubr
          -69 -368 -11 -59 -15 -92 -7 -58 rlinecurve
          -6 -2 0 12 -2 hvcurveto
          -91 551 rlineto
          4 -23 -33 2 -26 hhcurveto
          -24 -33 -2 -4 -25 hvcurveto
          -99 -563 rlineto
          -6 -1 0 12 -2 hvcurveto
          -6 48 -14 91 -10 57 -55 308 rcurveline
          53 -8 -18 16 -43 hhcurveto
          -23 -25 -6 -9 -21 hvcurveto
          endchar
        </CharString>
        <CharString name="X">
          71 663 -20 hstem
          14 570 vstem
          440 683 rmoveto
          -131 -219 -110 177 rlineto
          38 -24 -22 12 -34 hhcurveto
          -27 -31 -10 -18 -26 hvcurveto
          190 -308 -211 -341 4 -8 rlineto
          -6 17 26 -5 24 hhcurveto
          21 21 2 3 12 hvcurveto
          151 251 129 -209 rlineto
          -38 25 23 -12 34 hhcurveto
          26 31 10 18 26 hvcurveto
          -211 340 190 310 -3 7 rlineto
          6 -16 -26 5 -25 hhcurveto
          -21 -19 -2 -3 -13 hvcurveto
          endchar
        </CharString>
        <CharString name="Y">
          -9 -5 696 hstem
          196 65 callgsubr
          313 -77 callgsubr
          endchar
        </CharString>
        <CharString name="Yacute">
          -16 -5 696 37 47 callsubr
          149 263 -220 127 hintmask 10010000
          309 -77 callgsubr
          hintmask 01100000
          -242 107 -84 callsubr
        </CharString>
        <CharString name="Ydieresis">
          -16 -5 696 59 103 hstemhm
          96 107 -11 127 -4 107 hintmask 10010000
          309 -77 callgsubr
          hintmask 01101000
          -21 170 -106 callgsubr
        </CharString>
        <CharString name="Z">
          17 callgsubr
          hstem
          44 481 vstem
          -97 callgsubr
          endchar
        </CharString>
        <CharString name="Zacute">
          17 callgsubr
          45 47 callsubr
          44 481 -349 263 -87 callsubr
          -125 310 -84 callsubr
        </CharString>
        <CharString name="Zcaron">
          17 callgsubr
          55 27 callgsubr
          44 481 -408 336 -87 callsubr
          -133 423 -92 callgsubr
        </CharString>
        <CharString name="Zdotaccent">
          17 callgsubr
          73 100 hstemhm
          44 481 -312 136 -87 callsubr
          -88 326 -30 callsubr
        </CharString>
        <CharString name="a">
          9 callgsubr
          hstem
          38 122 159 123 vstem
          -98 callgsubr
          endchar
        </CharString>
        <CharString name="a.smcp">
          -9 callgsubr
          hstem
          87 callsubr
          vstem
          -107 callsubr
          endchar
        </CharString>
        <CharString name="aacute">
          9 callgsubr
          32 212 86 callgsubr
          5 229 -75 123 hintmask 11101010
          -98 callgsubr
          hintmask 00010100
          -54 507 -99 callsubr
        </CharString>
        <CharString name="aacute.smcp">
          28 callgsubr
          -347 229 -103 callsubr
          hintmask 00101000
          2 429 -99 callsubr
        </CharString>
        <CharString name="acircumflex">
          -18 48 0 97 195 endchar
        </CharString>
        <CharString name="acircumflex.smcp">
          -9 callgsubr
          142 94 85 callgsubr
          -417 304 -103 callsubr
          hintmask 00101000
          180 389 -89 callgsubr
        </CharString>
        <CharString name="acute">
          539 212 hstem
          116 229 vstem
          116 588 -99 callsubr
        </CharString>
        <CharString name="acute.cap">
          728 189 hstem
          89 263 vstem
          89 790 -84 callsubr
        </CharString>
        <CharString name="adieresis">
          9 callgsubr
          66 87 86 callgsubr
          -72 0 callsubr
          -79 123 hintmask 11101001
          -98 callgsubr
          hintmask 00010110
          61 536 -107 callgsubr
        </CharString>
        <CharString name="adieresis.smcp">
          -9 callgsubr
          77 87 85 callgsubr
          -424 0 callsubr
          -103 callsubr
          hintmask 00101100
          117 458 -107 callgsubr
        </CharString>
        <CharString name="ae">
          244 -14 95 -95 98 124 88 -74 82 105 98 -87 90 86 callgsubr
          159 123 172 117 hintmask 0000000000000000
          hintmask 0110011110000000
          721 -27 callsubr
          -71 94 -130 -57 -46 -23 -35 -34 vhcurveto
          hintmask 1001101110000000
          36 -28 -45 19 -55 hhcurveto
          -63 -85 -20 -25 -60 hvcurveto
          2 -31 12 -38 19 -20 rrcurveto
          20 52 54 16 48 hhcurveto
          48 27 -24 -54 hvcurveto
          -32 vlineto
          3 -30 -31 2 -26 hhcurveto
          -106 -88 -52 -116 -73 48 -77 101 76 60 37 41 40 hvcurveto
          hintmask 0110011110000000
          -51 35 55 -27 75 hhcurveto
          70 71 22 35 48 hvcurveto
          -3 25 -13 32 -19 19 rrcurveto
          -19 -42 -45 -16 -48 hhcurveto
          -77 19 callsubr
          hintmask 1001011110000000
          -224 -127 rmoveto
          -37 -22 28 35 48 28 30 54 22 28 -1 -3 27 hvcurveto
          1 -29 4 -26 7 -24 rrcurveto
          -39 -33 -43 -19 -36 hhcurveto
          310 339 rmoveto
          62 23 -52 -61 hvcurveto
          -11 vlineto
          hintmask 0110011110000000
          -172 hlineto
          hintmask 1001011110000000
          80 5 26 44 56 hhcurveto
          endchar
        </CharString>
        <CharString name="ae.smcp">
          263 -1 101 16 95 17 98 120 102 hstemhm
          357 118 hintmask 00000000
          hintmask 11111000
          233 116 rmoveto
          85 hlineto
          8 17 0 1 14 hvcurveto
          hintmask 10111000
          -45 vlineto
          -45 26 -28 44 vhcurveto
          244 hlineto
          45 24 20 39 7 hvcurveto
          3 15 0 17 10 vvcurveto
          -214 hlineto
          -27 -16 -1 -1 -19 hvcurveto
          18 1 14 21 vvcurveto
          77 57 vlineto
          149 hlineto
          5 15 1 20 12 callgsubr
          19 -5 16 vhcurveto
          -149 hlineto
          -13 -22 0 -1 -22 hvcurveto
          68 67 callgsubr
          16 17 vvcurveto
          58 hlineto
          195 hlineto
          6 19 3 19 -29 callsubr
          -370 hlineto
          -23 -36 -2 -9 -18 hvcurveto
          -279 -526 5 -8 rlineto
          -6 15 20 -2 21 hhcurveto
          20 17 0 5 19 hvcurveto
          59 117 rlineto
          13 27 64 callgsubr
          41 180 rmoveto
          22 43 32 67 24 50 rrcurveto
          4 hlineto
          1 1 rlineto
          -247 vlineto
          -14 -18 1 -8 hhcurveto
          -49 hlineto
          -9 -17 -1 -12 hhcurveto
          endchar
        </CharString>
        <CharString name="agrave">
          -18 49 0 97 193 endchar
        </CharString>
        <CharString name="agrave.smcp">
          28 callgsubr
          -404 230 -103 callsubr
          hintmask 00101000
          26 592 -65 callsubr
        </CharString>
        <CharString name="ampersand">
          109 -14 99 223 105 184 100 hstemhm
          46 131 -102 131 186 32 callgsubr
          hintmask 11110100
          320 413 rmoveto
          hintmask 11101100
          -78 -36 35 59 52 34 38 64 53 48 -13 -14 45 hvcurveto
          21 24 12 40 -1 32 rrcurveto
          17 -49 -73 14 -72 hhcurveto
          -133 -80 -77 -103 -72 42 -59 60 -21 hvcurveto
          hintmask 11110100
          -70 -21 -61 -71 -94 vvcurveto
          -107 67 -86 126 60 57 22 33 41 vhcurveto
          9 -42 rlineto
          -4 15 21 -2 21 hhcurveto
          23 20 2 5 15 hvcurveto
          -3 41 -3 73 41 vvcurveto
          91 vlineto
          16 0 22 -1 24 vhcurveto
          27 hlineto
          50 33 18 46 22 -6 23 -10 14 hvcurveto
          -12 -26 -37 -6 -37 hhcurveto
          -116 -168 rmoveto
          -117 vlineto
          -22 -26 -43 -21 -52 hhcurveto
          -55 -39 35 69 65 40 54 92 hvcurveto
          84 hlineto
          -1 -23 0 -23 -17 vvcurveto
          endchar
        </CharString>
        <CharString name="ampersand.smcp">
          46 -13 94 158 99 128 96 hstemhm
          41 129 -101 131 150 120 hintmask 00000000
          hintmask 11101100
          296 338 rmoveto
          -66 -30 24 42 35 26 27 55 43 45 -12 -11 41 hvcurveto
          21 23 12 38 -2 31 rrcurveto
          14 -45 -68 13 -60 hhcurveto
          -126 -73 -62 -86 -58 36 -47 53 -17 hvcurveto
          hintmask 11110100
          -63 -17 -54 -56 -76 vvcurveto
          -85 59 -71 112 57 51 18 27 35 vhcurveto
          8 -36 rlineto
          -4 14 21 -1 17 hhcurveto
          23 25 2 6 14 hvcurveto
          -2 24 -5 51 28 vvcurveto
          80 vlineto
          21 0 18 -1 18 vhcurveto
          17 hlineto
          48 31 15 45 20 -7 24 -9 12 hvcurveto
          -11 -22 -29 -6 -38 hhcurveto
          -110 -154 rmoveto
          -71 vlineto
          -17 -23 -38 -15 -39 hhcurveto
          -45 -35 23 50 51 38 34 77 hvcurveto
          66 hlineto
          -1 -17 0 -17 -21 vvcurveto
          endchar
        </CharString>
        <CharString name="aogonek">
          12 -218 80 124 95 141 82 105 98 86 callgsubr
          116 94 -51 32 callgsubr
          hintmask 11110010
          471 -122 rmoveto
          hintmask 11110100
          3 callsubr
          28 33 24 25 30 26 hvcurveto
          hintmask 11111010
          25 23 17 22 8 24 rrcurveto
          -22 18 -10 24 -85 callsubr
          hvcurveto
          hintmask 11110100
          66 49 31 34 35 hvcurveto
          7 -12 9 -11 11 -9 rrcurveto
          -42 -30 -46 -51 -60 vvcurveto
          -60 4 callgsubr
          hintmask 11110010
          -2 13 callsubr
          hintmask 11111010
          -252 203 -52 callsubr
          endchar
        </CharString>
        <CharString name="aogonek.smcp">
          29 -218 80 138 -20 132 100 236 100 hstem
          365 94 vstem
          10 10 rmoveto
          -78 callgsubr
          -35 callgsubr
          8 -25 10 -14 13 -8 rlinecurve
          -35 -29 -34 -43 -50 vvcurveto
          -60 4 callgsubr
          -2 -3 callgsubr
          27 39 35 36 53 28 -68 callsubr
          20 -253 -85 callgsubr
          endchar
        </CharString>
        <CharString name="aring">
          9 callgsubr
          33 67 106 66 86 callgsubr
          -42 79 100 79 -57 123 hintmask 1110010010000000
          -98 callgsubr
          hintmask 0001101100000000
          -101 579 -65 callgsubr
        </CharString>
        <CharString name="aring.smcp">
          -9 callgsubr
          44 67 106 66 85 callgsubr
          -394 79 100 79 hintmask 11001000
          -107 callsubr
          hintmask 00110110
          -45 501 -65 callgsubr
        </CharString>
        <CharString name="asciicircum">
          3 553 101 hstem
          38 454 vstem
          331 648 rmoveto
          -30 8 -74 -1 -28 -7 -161 -342 rcurveline
          28 -7 61 -1 31 8 69 154 rcurveline
          9 22 17 48 8 23 rrcurveto
          8 hlineto
          8 -23 17 -48 9 -22 69 -154 rcurveline
          31 -8 61 1 28 7 rrcurveto
          endchar
        </CharString>
        <CharString name="asciitilde">
          77 204 115 -46 115 hstemhm
          36 532 hintmask 00000000
          hintmask 01100000
          286 367 rmoveto
          13 -30 -29 8 -28 hhcurveto
          -64 -49 -36 -58 -34 hvcurveto
          -16 -27 12 -28 36 -18 26 -2 rlinecurve
          21 23 rlineto
          20 16 20 11 22 hhcurveto
          15 16 -5 -7 18 hvcurveto
          hintmask 10100000
          80 -36 rlineto
          -14 30 29 -7 28 hhcurveto
          64 49 35 59 34 hvcurveto
          16 27 -12 28 -36 18 -26 2 rlinecurve
          -21 -24 rlineto
          -19 -17 -19 -11 -22 hhcurveto
          -15 -17 4 8 -17 hvcurveto
          endchar
        </CharString>
        <CharString name="asterisk">
          -16 561 -20 21 -20 188 8 hstemhm
          204 102 hintmask 00000000
          hintmask 01110000
          41 537 rmoveto
          57 -16 34 -10 39 -3 37 -1 rlinecurve
          -29 -23 -31 -25 -21 -28 -36 -46 rcurveline
          14 -24 44 -31 26 -6 32 49 rcurveline
          21 28 14 37 13 34 12 -34 15 -37 20 -29 33 -48 rcurveline
          28 6 42 32 13 22 -35 47 rcurveline
          -22 28 -30 25 -29 23 36 1 40 2 34 10 57 17 rcurveline
          2 28 -18 51 -16 19 -56 -20 rcurveline
          -33 -12 -34 -20 -30 -21 10 36 10 38 1 35 2 59 rcurveline
          -25 11 -55 0 -24 -11 2 -59 rcurveline
          hintmask 10110000
          1 -36 10 -38 10 -36 -30 20 -33 23 -34 12 -55 20 rcurveline
          hintmask 01110000
          -18 -21 -17 -51 2 -27 rrcurveto
          endchar
        </CharString>
        <CharString name="at">
          434 -194 95 101 95 -91 92 297 88 106 92 hstemhm
          46 124 115 120 154 116 126 122 hintmask 0000000000000000
          hintmask 1011111110000000
          676 412 rmoveto
          38 -39 -70 33 -73 hhcurveto
          -135 -74 -110 -146 hvcurveto
          hintmask 1101111110000000
          -135 58 -90 103 51 51 28 36 36 vhcurveto
          hintmask 1011111110000000
          -37 26 45 -23 57 hhcurveto
          104 107 92 194 242 -180 147 -246 -263 -188 -193 -264 -281 170 -137 236 81 92 19 28 68 hvcurveto
          28 -12 36 -20 21 vhcurveto
          -24 -62 -68 -13 -70 hhcurveto
          -176 -115 109 214 211 129 154 198 184 120 -114 -179 -149 -43 -49 -44 -27 -12 17 45 hvcurveto
          hintmask 1101111110000000
          -201 -63 rmoveto
          -51 -18 49 85 90 24 74 65 27 22 -10 -15 16 hvcurveto
          -221 vlineto
          -3 vlineto
          -28 -24 -33 -21 -28 hhcurveto
          endchar
        </CharString>
        <CharString name="atilde">
          -18 48 0 97 196 endchar
        </CharString>
        <CharString name="atilde.smcp">
          -9 callgsubr
          59 98 85 callgsubr
          -446 362 -103 callsubr
          hintmask 00000000
          91 413 -89 callsubr
        </CharString>
        <CharString name="b">
          4 -8 90 322 101 hstem
          71 121 174 37 callgsubr
          492 254 rmoveto
          146 -58 105 -116 -52 -42 -20 -25 -32 vhcurveto
          199 vlineto
          55 -18 22 -50 vhcurveto
          -46 -6 callsubr
          -704 vlineto
          -21 55 65 -12 67 hhcurveto
          135 100 92 170 -1 hvcurveto
          -207 150 rmoveto
          48 -1 33 -44 -106 vvcurveto
          -111 -40 -60 -66 -25 -22 3 6 -21 vhcurveto
          266 vlineto
          30 26 35 17 32 hhcurveto
          endchar
        </CharString>
        <CharString name="b.smcp">
          28 -4 90 157 89 131 89 hstemhm
          79 123 159 124 -97 127 hintmask 00000000
          hintmask 11110100
          85 548 rmoveto
          51 callsubr
          -539 vlineto
          6 -5 rlineto
          -1 74 62 -2 71 hhcurveto
          142 81 51 110 64 -49 57 -59 17 hvcurveto
          hintmask 11111000
          48 17 30 47 48 vvcurveto
          100 -77 45 -128 vhcurveto
          hintmask 11110100
          -62 -77 -2 -2 -56 hvcurveto
          199 -305 rmoveto
          80 24 -44 -36 -34 -17 -43 -79 -28 -30 0 -1 -32 hvcurveto
          158 vlineto
          221 vmoveto
          hintmask 11111000
          -1 24 31 0 19 hhcurveto
          68 17 -33 -32 -32 -17 -34 -70 hvcurveto
          -72 hlineto
          endchar
        </CharString>
        <CharString name="backslash">
          -94 -114 878 hstem
          7 422 vstem
          322 -114 rmoveto
          36 4 41 13 30 23 -315 838 rcurveline
          -37 -4 -39 -13 -31 -23 rrcurveto
          endchar
        </CharString>
        <CharString name="bar">
          -266 -146 925 hstem
          73 115 vstem
          73 -141 rmoveto
          -4 17 27 -1 14 hhcurveto
          17 22 1 4 18 hvcurveto
          915 vlineto
          4 -18 -22 50 callsubr
          -14 -27 60 callgsubr
          endchar
        </CharString>
        <CharString name="braceleft">
          -160 -173 998 11 callsubr
          -40 125 57 callgsubr
          43 366 rmoveto
          hintmask 11000000
          -8 -19 0 -41 8 -20 rrcurveto
          hintmask 10100000
          48 -12 35 -46 -56 vvcurveto
          -167 vlineto
          -99 63 -56 87 -14 vhcurveto
          57 -9 17 18 11 43 -5 21 rlinecurve
          -54 18 rlineto
          -30 9 -21 28 42 vvcurveto
          164 vlineto
          65 -33 64 -52 23 vhcurveto
          8 vlineto
          52 24 33 64 65 vvcurveto
          163 vlineto
          42 21 28 30 9 vhcurveto
          54 18 5 21 -11 43 -17 18 rlinecurve
          -57 -9 rlineto
          -87 -14 -63 -56 -99 vvcurveto
          -166 vlineto
          -57 -35 -45 -48 -13 vhcurveto
          endchar
        </CharString>
        <CharString name="braceright">
          -160 -173 998 hstem
          115 125 vstem
          323 366 rmoveto
          -47 13 -36 45 57 vvcurveto
          166 vlineto
          99 -63 56 -86 14 vhcurveto
          -57 9 -17 -18 -11 -43 5 -21 rlinecurve
          54 -18 rlineto
          30 -9 20 -28 -42 vvcurveto
          -163 vlineto
          -65 34 -64 52 -24 vhcurveto
          -8 vlineto
          -52 -23 -34 -64 -65 vvcurveto
          -164 vlineto
          -42 -20 -28 -30 -9 vhcurveto
          -54 -18 -5 -21 11 -43 17 -18 rlinecurve
          57 9 rlineto
          86 14 63 56 99 vvcurveto
          167 vlineto
          56 36 46 47 12 vhcurveto
          8 20 0 41 -8 19 rrcurveto
          endchar
        </CharString>
        <CharString name="bracketleft">
          67 callsubr
          99 122 vstem
          327 -147 rmoveto
          4 9 1 17 9 vvcurveto
          20 -6 21 -4 11 vhcurveto
          -101 3 rlineto
          779 vlineto
          101 3 rlineto
          4 11 6 22 19 vvcurveto
          10 -1 16 -4 9 vhcurveto
          -220 8 -8 -7 rlineto
          -961 vlineto
          8 -7 rlineto
          endchar
        </CharString>
        <CharString name="bracketright">
          67 callsubr
          142 123 vstem
          257 -155 rmoveto
          8 7 rlineto
          961 vlineto
          -8 7 -221 -8 rlineto
          -3 -9 -1 -16 -10 vvcurveto
          -19 5 -22 4 -11 vhcurveto
          101 -3 rlineto
          -779 vlineto
          -101 -3 rlineto
          -4 -11 -5 -21 -20 vvcurveto
          -9 1 -17 3 -9 vhcurveto
          endchar
        </CharString>
        <CharString name="brokenbar">
          -272 -146 925 hstem
          70 115 vstem
          70 -141 rmoveto
          -3 callsubr
          141 vmoveto
          -3 callsubr
          endchar
        </CharString>
        <CharString name="bullet">
          -74 179 183 hstem
          104 231 vstem
          104 270 rmoveto
          -20 5 -47 11 -24 vhcurveto
          -17 25 46 -8 37 hhcurveto
          34 49 8 17 24 hvcurveto
          11 24 5 47 20 vvcurveto
          21 -5 45 -11 26 vhcurveto
          15 -24 -49 10 -34 hhcurveto
          -37 -46 -10 -15 -25 hvcurveto
          -11 -26 -5 -45 -21 vvcurveto
          endchar
        </CharString>
        <CharString name="c">
          -55 -14 99 331 94 85 callsubr
          161 113 vstem
          -44 callgsubr
          endchar
        </CharString>
        <CharString name="c.smcp">
          59 callgsubr
          hstem
          37 129 228 118 vstem
          -74 callsubr
          endchar
        </CharString>
        <CharString name="cacute">
          -55 54 0 99 194 endchar
        </CharString>
        <CharString name="cacute.smcp">
          59 callgsubr
          43 callsubr
          44 229 -45 118 hintmask 11010100
          -74 callsubr
          hintmask 00101000
          -184 320 -99 callsubr
        </CharString>
        <CharString name="caron">
          551 96 0 -20 hstemhm
          48 305 hintmask 00000000
          hintmask 01100000
          104 736 -43 callgsubr
          hintmask 10100000
          -90 callgsubr
        </CharString>
        <CharString name="caron.alt">
          -87 556 9 206 20 hstem
          197 120 vstem
          197 565 -14 callsubr
        </CharString>
        <CharString name="caron.cap">
          738 174 hstem
          30 336 vstem
          81 903 -92 callgsubr
        </CharString>
        <CharString name="ccaron">
          -55 -14 99 331 94 137 -20 11 callgsubr
          -65 305 -79 113 hintmask 11010100
          -44 callgsubr
          hintmask 00000000
          -170 443 -88 callgsubr
        </CharString>
        <CharString name="ccaron.smcp">
          59 callgsubr
          137 -20 11 callsubr
          -25 305 -52 118 hintmask 11010100
          -74 callsubr
          hintmask 00000000
          -197 468 -88 callgsubr
        </CharString>
        <CharString name="ccedilla">
          -55 9 callsubr
          451 94 11 callgsubr
          106 96 -41 113 hintmask 00000000
          hintmask 10111100
          191 -4 callgsubr
          hintmask 01111100
          -13 -15 -9 84 callgsubr
          hintmask 10111100
          22 callgsubr
          2 7 4 9 4 7 60 8 55 27 38 38 -25 callgsubr
          hvcurveto
          hintmask 10111010
          65 13 -53 -70 -2 hvcurveto
          -18 callgsubr
          -134 55 -105 118 -18 hvcurveto
          hintmask 10111100
          -8 -20 -8 -26 -5 -18 rrcurveto
          endchar
        </CharString>
        <CharString name="ccedilla.smcp">
          13 9 callsubr
          22 104 371 100 11 callsubr
          145 96 -13 118 hintmask 00000000
          hintmask 10101110
          230 -4 callgsubr
          hintmask 01101110
          -13 -15 -9 84 callgsubr
          hintmask 10101110
          22 callgsubr
          hintmask 10111110
          2 7 4 9 3 8 78 9 63 32 44 39 -40 callgsubr
          hvcurveto
          hintmask 10111101
          84 21 -63 -79 1 hvcurveto
          -38 callsubr
          -133 53 -138 160 -14 hvcurveto
          hintmask 10101110
          -7 -19 -8 -26 -5 -17 rrcurveto
          endchar
        </CharString>
        <CharString name="cedilla">
          9 callsubr
          -56 91 hstemhm
          221 97 hintmask 00000000
          hintmask 10011000
          141 -75 rmoveto
          3 -8 8 -9 9 8 callsubr
          25 13 40 callsubr
          hintmask 01011000
          -13 -15 -8 84 callgsubr
          hintmask 10101000
          -12 17 33 -10 31 hhcurveto
          75 23 callgsubr
          hintmask 10011000
          4 11 7 15 5 9 rrcurveto
          -71 hlineto
          -9 -20 -12 -34 -5 -21 rrcurveto
          endchar
        </CharString>
        <CharString name="cent">
          -61 -32 195 331 187 hstem
          36 127 34 94 31 112 vstem
          197 -32 rmoveto
          -2 12 24 64 callgsubr
          12 23 1 2 12 hvcurveto
          99 vlineto
          55 10 51 28 33 37 -6 26 -24 30 -20 13 rrcurveto
          -26 -33 -40 -22 -41 hhcurveto
          -64 -39 45 116 113 27 57 55 64 14 -63 -59 -1 hvcurveto
          -4 14 18 -2 14 hhcurveto
          45 21 24 46 64 -50 66 -90 17 hvcurveto
          98 vlineto
          3 -12 -23 1 -12 hhcurveto
          -11 -24 -1 -3 -12 hvcurveto
          -100 vlineto
          -88 -20 -76 -79 -158 vvcurveto
          -113 38 -118 123 -25 vhcurveto
          endchar
        </CharString>
        <CharString name="cent.smcp">
          -107 -30 170 361 -20 hstemhm
          174 90 hintmask 00000000
          hintmask 11100000
          174 -30 rmoveto
          -3 12 23 -1 10 hhcurveto
          11 22 1 3 12 hvcurveto
          77 vlineto
          47 8 48 22 30 30 -6 26 -21 28 -20 13 rrcurveto
          -20 -30 -37 -14 -35 hhcurveto
          -56 -34 41 88 99 25 43 45 50 14 -41 -65 -1 hvcurveto
          -4 13 19 -2 12 hhcurveto
          44 21 22 45 68 -47 53 -79 14 hvcurveto
          80 vlineto
          2 -12 -22 1 -10 hhcurveto
          -10 -23 -1 -2 -12 hvcurveto
          -82 vlineto
          -79 -19 -67 -70 -137 vvcurveto
          -96 34 -105 109 -23 vhcurveto
          endchar
        </CharString>
        <CharString name="circumflex">
          638 94 hstem
          47 304 vstem
          295 548 -89 callgsubr
        </CharString>
        <CharString name="circumflex.cap">
          727 174 hstem
          29 335 vstem
          312 736 -84 callgsubr
        </CharString>
        <CharString name="colon">
          -248 6 108 213 108 hstemhm
          61 146 hintmask 10100000
          61 60 rmoveto
          -75 callsubr
          hintmask 01100000
          321 vmoveto
          -75 callsubr
          endchar
        </CharString>
        <CharString name="comma">
          -248 -8 121 hstem
          74 146 vstem
          208 -37 callsubr
          endchar
        </CharString>
        <CharString name="commaaccent">
          -36 callgsubr
        </CharString>
        <CharString name="commaaccent.cap">
          -36 callgsubr
        </CharString>
        <CharString name="copyright">
          270 -20 85 80 78 242 74 79 85 hstem
          37 98 91 101 132 90 113 98 vstem
          37 341 rmoveto
          -204 157 -157 204 204 158 157 204 204 -158 158 -204 -204 -157 -158 -204 vhcurveto
          98 hmoveto
          153 110 124 153 154 110 -124 -153 -153 -110 -123 -154 -153 -110 123 153 vhcurveto
          324 33 rmoveto
          -4 9 15 -2 13 hhcurveto
          37 16 20 33 58 -55 60 -93 -84 -91 -57 -140 -105 49 -92 124 52 61 25 34 32 hvcurveto
          -4 20 -16 26 -18 10 rrcurveto
          -19 -28 -34 -18 -30 hhcurveto
          -55 -32 41 78 80 25 43 45 50 13 -47 -44 -1 hvcurveto
          endchar
        </CharString>
        <CharString name="currency">
          54 117 92 250 93 hstem
          66 123 202 123 vstem
          66 334 rmoveto
          -45 12 -41 21 -33 vhcurveto
          -71 -78 16 -25 25 -25 24 -15 rlinecurve
          81 72 rlineto
          -18 33 39 -9 44 hhcurveto
          43 40 9 18 33 hvcurveto
          80 -72 26 16 25 24 14 25 rlinecurve
          -70 77 rlineto
          21 34 12 40 46 vvcurveto
          45 -12 40 -21 33 vhcurveto
          72 80 -16 25 -25 25 -25 15 rlinecurve
          -80 -73 rlineto
          18 -34 -39 10 -44 hhcurveto
          -45 -40 -11 -18 -33 hvcurveto
          -79 72 -25 -16 -26 -24 -14 -26 rlinecurve
          70 -77 rlineto
          -21 -34 -11 -39 -45 vvcurveto
          123 hmoveto
          68 33 57 68 68 33 -57 -68 -68 -33 -57 -68 -68 -33 59 66 vhcurveto
          endchar
        </CharString>
        <CharString name="currency.smcp">
          -54 85 87 191 66 hstem
          47 116 146 115 vstem
          47 267 rmoveto
          -36 9 -32 15 -27 vhcurveto
          -57 -65 16 -24 24 -26 24 -13 rlinecurve
          68 60 rlineto
          -12 26 31 -7 33 hhcurveto
          33 29 6 12 26 hvcurveto
          68 -61 26 16 25 24 14 25 rlinecurve
          -58 63 rlineto
          16 28 9 32 37 vvcurveto
          35 -9 32 -15 26 vhcurveto
          59 67 -16 24 -24 25 -25 14 rlinecurve
          -68 -61 rlineto
          13 -26 -31 7 -33 hhcurveto
          -34 -32 -7 -13 -26 hvcurveto
          -66 59 -25 -14 -26 -25 -13 -24 rlinecurve
          57 -64 rlineto
          -16 -27 -8 -31 -36 vvcurveto
          116 hmoveto
          53 22 43 51 49 24 -43 -53 -54 -24 -41 -49 -51 -22 44 51 vhcurveto
          endchar
        </CharString>
        <CharString name="d">
          6 -14 102 321 96 85 callsubr
          174 65 callsubr
          -57 callsubr
          endchar
        </CharString>
        <CharString name="d.smcp">
          66 -4 98 360 98 hstem
          36 callsubr
          221 129 vstem
          -48 callgsubr
          endchar
        </CharString>
        <CharString name="dcaron">
          96 -14 102 321 96 49 9 206 20 11 callgsubr
          174 121 60 120 hintmask 11001100
          -57 callsubr
          hintmask 00110010
          276 475 -14 callsubr
        </CharString>
        <CharString name="dcaron.smcp">
          66 -4 98 360 98 147 -20 34 callsubr
          -72 305 -12 129 hintmask 11010100
          -48 callgsubr
          hintmask 00000000
          -237 515 -88 callgsubr
        </CharString>
        <CharString name="degree">
          -191 368 81 143 81 hstem
          17 90 122 91 vstem
          17 520 rmoveto
          -88 64 -64 87 88 64 64 88 89 -64 64 -88 -87 -64 -64 -89 vhcurveto
          90 hmoveto
          43 23 29 38 37 24 -29 -43 -42 -24 -29 -37 -38 -23 29 42 vhcurveto
          endchar
        </CharString>
        <CharString name="dieresis">
          573 87 hstem
          40 0 callsubr
          vstem
          232 617 -107 callgsubr
        </CharString>
        <CharString name="dieresis.cap">
          750 103 hstem
          36 62 callsubr
          vstem
          310 853 -106 callgsubr
        </CharString>
        <CharString name="divide">
          3 70 93 82 103 80 92 hstem
          198 51 callgsubr
          198 474 rmoveto
          -16 3 -18 6 -12 vhcurveto
          -9 13 24 -4 21 hhcurveto
          21 25 5 8 11 hvcurveto
          7 12 3 18 -1 callgsubr
          -357 vmoveto
          -16 3 -19 6 -12 vhcurveto
          -8 13 24 -5 21 hhcurveto
          21 25 6 7 11 hvcurveto
          7 12 3 19 -1 callgsubr
          277 128 -8 callsubr
        </CharString>
        <CharString name="dollar">
          -24 -40 175 373 181 hstemhm
          199 94 -90 94 43 77 callsubr
          hintmask 11011000
          28 97 rmoveto
          hintmask 11101000
          34 -23 64 -26 73 -10 rrcurveto
          -78 vlineto
          -2 11 25 64 callgsubr
          11 23 1 2 13 hvcurveto
          76 vlineto
          107 11 70 63 90 vvcurveto
          82 -58 54 -77 29 vhcurveto
          -95 35 rlineto
          -37 13 -23 13 28 vvcurveto
          34 29 20 45 44 59 -17 -22 53 vhcurveto
          25 22 18 39 36 vvcurveto
          -41 18 -53 19 -62 6 rrcurveto
          80 vlineto
          3 -13 -23 1 -11 hhcurveto
          -11 -25 -1 -3 -11 hvcurveto
          -81 vlineto
          -91 -16 -60 -63 -84 vvcurveto
          -76 51 -46 77 -29 vhcurveto
          97 -35 rlineto
          40 -15 23 -24 -28 vvcurveto
          -38 -37 -19 -47 -68 -63 29 26 -49 vhcurveto
          -25 -16 -22 -45 -1 -32 rrcurveto
          endchar
        </CharString>
        <CharString name="dollar.smcp">
          -79 -33 156 304 156 hstemhm
          175 89 -86 89 hintmask 00000000
          hintmask 11010000
          24 78 rmoveto
          hintmask 11100000
          30 -19 56 -23 65 -8 rrcurveto
          -61 vlineto
          -2 12 22 64 callgsubr
          10 23 1 2 11 hvcurveto
          60 vlineto
          92 12 63 49 82 vvcurveto
          71 -49 46 -77 28 vhcurveto
          -77 28 rlineto
          -29 11 -20 10 21 vvcurveto
          26 21 16 38 43 51 -15 -20 43 vhcurveto
          26 20 16 31 1 38 -38 18 -49 15 -52 5 rrcurveto
          64 vlineto
          3 -11 -23 1 -10 hhcurveto
          -10 -23 -1 -3 -12 hvcurveto
          -67 vlineto
          -82 -16 -52 -52 -73 vvcurveto
          -70 51 -39 64 -23 vhcurveto
          86 -31 rlineto
          36 -13 12 -17 -19 vvcurveto
          -28 -26 -12 -39 -57 -58 22 22 -43 vhcurveto
          -24 -16 -20 -42 -2 -31 rrcurveto
          endchar
        </CharString>
        <CharString name="dotaccent">
          586 99 76 callsubr
          636 -90 callsubr
          endchar
        </CharString>
        <CharString name="dotaccent.cap">
          756 100 76 callsubr
          806 -30 callsubr
        </CharString>
        <CharString name="dotlessi">
          -245 407 92 hstemhm
          88 124 77 callgsubr
          212 -96 callgsubr
          endchar
        </CharString>
        <CharString name="dotlessj">
          -239 31 callsubr
          hstemhm
          96 32 callgsubr
          hintmask 11100000
          219 399 -82 callsubr
          endchar
        </CharString>
        <CharString name="e">
          -28 -14 17 callsubr
          85 callsubr
          173 117 vstem
          -77 callsubr
          endchar
        </CharString>
        <CharString name="e.smcp">
          -13 callgsubr
          hstem
          36 callsubr
          vstem
          -104 callgsubr
          endchar
        </CharString>
        <CharString name="eacute">
          -28 -14 17 callsubr
          29 212 11 callgsubr
          7 229 -63 117 hintmask 11101010
          -77 callsubr
          hintmask 00010100
          -80 168 -99 callsubr
        </CharString>
        <CharString name="eacute.smcp">
          21 callsubr
          -11 229 -101 callgsubr
          hintmask 00010100
          -284 539 -99 callsubr
        </CharString>
        <CharString name="ecaron">
          -28 56 0 101 207 endchar
        </CharString>
        <CharString name="ecaron.smcp">
          -13 callgsubr
          151 -20 34 callsubr
          -80 305 -101 callgsubr
          hintmask 00000000
          -297 687 -43 callgsubr
          hintmask 00010100
          -90 callgsubr
        </CharString>
        <CharString name="ecircumflex">
          -28 56 0 101 195 endchar
        </CharString>
        <CharString name="ecircumflex.smcp">
          -13 callgsubr
          142 94 34 callsubr
          -81 304 -101 callgsubr
          hintmask 00010100
          -106 499 -89 callgsubr
        </CharString>
        <CharString name="edieresis">
          -28 -14 17 callsubr
          63 87 11 callgsubr
          -70 0 callsubr
          -67 117 hintmask 11101001
          -77 callsubr
          hintmask 00010110
          35 197 -107 callgsubr
        </CharString>
        <CharString name="edieresis.smcp">
          -13 callgsubr
          77 87 34 callsubr
          -88 0 callsubr
          -101 callgsubr
          hintmask 00010110
          -169 568 -107 callgsubr
        </CharString>
        <CharString name="egrave">
          -28 58 0 101 193 endchar
        </CharString>
        <CharString name="egrave.smcp">
          21 callsubr
          -68 230 -101 callgsubr
          hintmask 00010100
          -260 702 -65 callsubr
        </CharString>
        <CharString name="eight">
          3 -14 88 498 90 hstemhm
          37 125 -108 122 178 121 -109 127 hintmask 00000000
          hintmask 11100100
          37 164 rmoveto
          -112 89 -66 133 128 104 69 116 2 vhcurveto
          83 -46 57 -68 38 vhcurveto
          hintmask 11011000
          53 28 43 50 65 vvcurveto
          99 -84 71 -126 -121 -90 -74 -99 -71 36 -48 60 -35 vhcurveto
          hintmask 11100100
          -61 -35 -52 -60 -76 vvcurveto
          199 133 rmoveto
          21 -8 rlineto
          62 -20 47 -39 -58 vvcurveto
          -58 -42 -40 -60 -59 -43 38 60 46 23 46 50 33 vhcurveto
          hintmask 11011000
          -59 192 rmoveto
          49 38 34 50 52 38 -34 -51 -41 -22 -36 -40 -25 vhcurveto
          -12 5 rlineto
          -64 20 -40 30 49 vvcurveto
          endchar
        </CharString>
        <CharString name="eight.smcp">
          -45 -14 84 406 86 hstemhm
          35 120 -104 118 144 117 -106 32 callgsubr
          hintmask 11100100
          35 132 rmoveto
          -89 79 -57 122 117 94 56 110 64 -37 46 -58 34 vhcurveto
          hintmask 11011000
          43 23 35 39 58 vvcurveto
          85 -74 61 -115 -111 -79 -69 -87 -57 32 -41 55 -31 vhcurveto
          hintmask 11100100
          -54 -25 -49 -51 -69 vvcurveto
          200 103 rmoveto
          46 -16 43 -28 -48 vvcurveto
          -41 -31 -32 -53 -52 -33 28 43 36 20 36 51 25 vhcurveto
          hintmask 11011000
          -57 177 rmoveto
          33 28 28 44 46 26 -29 -35 -27 -14 -30 -33 -21 vhcurveto
          -12 5 rlineto
          -53 19 -32 21 36 vvcurveto
          endchar
        </CharString>
        <CharString name="emdash">
          278 216 98 hstem
          72 661 vstem
          728 26 callgsubr
          -651 26 callsubr
        </CharString>
        <CharString name="endash">
          13 216 98 hstem
          59 423 vstem
          477 26 callgsubr
          -413 26 callsubr
        </CharString>
        <CharString name="eogonek">
          -28 -218 80 124 17 callsubr
          11 callgsubr
          49 94 30 78 callgsubr
          hintmask 11111010
          -53 callgsubr
          vhcurveto
          hintmask 11111110
          6 7 0 1 7 hvcurveto
          -34 -31 -22 -37 -38 vvcurveto
          -63 47 -36 65 44 42 17 21 24 vhcurveto
          -1 -3 callgsubr
          28 34 25 39 44 32 hvcurveto
          24 9 21 12 19 13 -30 callgsubr
          hintmask 11111010
          -31 callsubr
          endchar
        </CharString>
        <CharString name="eogonek.smcp">
          -9 -218 80 137 103 125 100 118 103 hstem
          36 callsubr
          47 95 vstem
          446 -122 rmoveto
          53 callsubr
          35 28 40 58 24 hvcurveto
          0 1 0 1 1 vhcurveto
          22 9 14 18 5 27 rrcurveto
          2 15 0 18 11 vvcurveto
          -211 hlineto
          -27 -17 -1 -2 -19 hvcurveto
          1 vlineto
          18 1 12 21 vvcurveto
          76 -16 callgsubr
          21 -55 callgsubr
          67 vlineto
          21 -1 14 17 vvcurveto
          59 hlineto
          192 hlineto
          7 19 -73 callsubr
          167 hlineto
          -39 -29 -29 -42 -49 vvcurveto
          -61 4 callgsubr
          -2 13 callsubr
          endchar
        </CharString>
        <CharString name="equal">
          3 142 103 104 103 hstem
          50 430 vstem
          475 142 rmoveto
          4 17 1 21 13 -7 callsubr
          -13 1 -21 4 -17 vhcurveto
          420 207 -8 callsubr
        </CharString>
        <CharString name="eth">
          -9 -14 92 319 90 hstem
          37 127 189 65 callgsubr
          101 571 rmoveto
          4 -22 19 -26 19 -12 96 66 rcurveline
          31 -32 26 -34 14 -37 rrcurveto
          8 -18 -21 5 -21 hhcurveto
          -58 -47 -19 -34 -36 hvcurveto
          -49 -46 -23 -63 -83 vvcurveto
          -74 18 -73 53 -52 -17 callsubr
          52 18 73 79 vvcurveto
          160 -54 134 -98 97 vhcurveto
          69 47 -5 23 -19 25 -18 13 rlinecurve
          -85 -59 rlineto
          -1 hlineto
          -34 24 -37 21 -41 18 -23 -12 -22 -35 -4 -30 24 -13 25 -16 24 -18 rrcurveto
          172 -379 rmoveto
          -89 -18 -80 -76 -77 -18 80 82 91 23 66 73 29 27 -10 -15 24 vhcurveto
          9 -34 4 -38 -53 vvcurveto
          endchar
        </CharString>
        <CharString name="eth.smcp">
          74 -4 95 134 98 134 95 hstem
          87 123 224 128 cntrmask 11100000
          562 -7 callgsubr
          -53 -2 -2 -77 hvcurveto
          51 callsubr
          -220 -65 vlineto
          -4 -17 -1 -15 -18 vvcurveto
          -18 1 -14 52 callsubr
          65 -220 hlineto
          -19 callsubr
          -128 hmoveto
          -82 -19 -100 -116 vhcurveto
          -34 -23 -1 -32 hhcurveto
          135 114 vlineto
          4 16 1 14 19 vvcurveto
          19 -1 13 24 callsubr
          -114 135 hlineto
          -1 31 24 0 34 hhcurveto
          116 19 -101 -83 hvcurveto
          endchar
        </CharString>
        <CharString name="exclam">
          -231 4 117 561 9 hstem
          82 37 callgsubr
          97 200 rmoveto
          -5 16 21 -1 12 hhcurveto
          14 17 1 5 16 hvcurveto
          28 482 -7 9 rlineto
          -55 -49 -15 -20 -28 hvcurveto
          63 -535 rmoveto
          -23 -25 -5 -9 27 callsubr
          -10 -4 -26 -16 vvcurveto
          -15 4 -25 6 -11 vhcurveto
          -9 15 25 -5 23 hhcurveto
          23 25 5 9 15 hvcurveto
          7 11 3 25 15 vvcurveto
          16 -3 26 -7 56 callsubr
        </CharString>
        <CharString name="exclamdown">
          -231 -196 10 560 117 hstem
          87 65 callgsubr
          198 295 rmoveto
          5 -15 -21 1 -12 hhcurveto
          -14 -17 -1 -5 -16 hvcurveto
          -28 -481 7 -10 rlineto
          55 49 15 20 28 hvcurveto
          -63 535 rmoveto
          23 7 callgsubr
          -23 hhcurveto
          -23 -25 -5 -9 -16 28 callsubr
          16 25 -5 23 hhcurveto
          endchar
        </CharString>
        <CharString name="f">
          -184 408 89 149 94 hstem
          96 65 callsubr
          96 hmoveto
          -3 18 22 -2 20 hhcurveto
          20 22 2 3 19 hvcurveto
          409 vlineto
          128 -2 rlineto
          4 14 1 17 14 vvcurveto
          15 -1 15 -4 15 vhcurveto
          -137 -2 rlineto
          -4 26 -2 25 22 vvcurveto
          51 27 27 45 27 32 -7 -7 23 vhcurveto
          17 18 11 36 29 vvcurveto
          12 -32 -54 13 -52 hhcurveto
          -100 -62 -71 -92 -27 3 -27 3 -27 hvcurveto
          -80 1 rlineto
          -3 -15 -2 -15 -15 vvcurveto
          -14 2 -17 3 -14 vhcurveto
          86 2 rlineto
          endchar
        </CharString>
        <CharString name="f.smcp">
          -51 219 99 125 105 hstem
          79 37 callgsubr
          452 548 rmoveto
          -367 hlineto
          51 callsubr
          -543 vlineto
          -4 21 24 -1 18 hhcurveto
          18 24 -21 callsubr
          219 25 vlineto
          170 68 callgsubr
          20 -5 15 vhcurveto
          -170 hlineto
          -25 61 hlineto
          21 -1 21 22 vvcurveto
          73 hlineto
          117 hlineto
          48 17 22 36 12 -2 20 -5 15 hvcurveto
          endchar
        </CharString>
        <CharString name="five">
          3 -14 101 248 97 111 105 hstem
          80 122 148 72 callgsubr
          444 648 rmoveto
          -349 hlineto
          -7 -7 -16 -302 12 -19 27 -19 23 -4 rlinecurve
          25 30 36 13 36 hhcurveto
          56 58 -30 -89 -87 -56 -42 -62 -51 -41 19 28 -40 hvcurveto
          -25 -18 -22 -39 -5 -25 rrcurveto
          -40 46 69 -26 78 hhcurveto
          118 119 74 162 128 -80 82 -128 -27 -25 -5 -8 -23 hvcurveto
          3 22 4 62 rlineto
          9 1 15 -1 16 vhcurveto
          27 hlineto
          169 hlineto
          35 19 19 35 13 -1 19 -7 19 hvcurveto
          endchar
        </CharString>
        <CharString name="five.smcp">
          -45 -14 99 187 89 86 101 hstem
          75 117 118 125 vstem
          44 43 rmoveto
          -35 45 63 -22 70 hhcurveto
          109 104 67 132 105 -78 71 -104 -23 -21 -3 -6 -21 hvcurveto
          3 27 2 51 rlineto
          17 19 vlineto
          150 hlineto
          35 19 17 33 12 -1 18 -7 21 hvcurveto
          -318 hlineto
          -7 -6 -15 -261 13 -19 26 -20 22 -4 rlinecurve
          20 28 29 14 33 hhcurveto
          48 43 -30 -63 -62 -43 -32 -55 -45 -38 14 25 -35 hvcurveto
          -24 -18 -21 -40 -5 -23 rrcurveto
          endchar
        </CharString>
        <CharString name="four">
          3 128 103 424 -20 hstem
          284 120 vstem
          284 hmoveto
          -4 20 21 -1 -8 callgsubr
          20 -21 callsubr
          69 67 callgsubr
          20 20 vvcurveto
          89 hlineto
          5 19 3 23 16 72 callsubr
          16 -3 15 vhcurveto
          -42 hlineto
          -21 -10 -1 -20 hhcurveto
          20 1 21 20 vvcurveto
          119 vlineto
          -5 5 rlineto
          -31 hlineto
          -53 -31 -37 -60 hvcurveto
          -60 vlineto
          -28 -10 vlineto
          -20 -62 -1 -4 -40 hvcurveto
          -2 4 27 43 38 85 20 47 rlinecurve
          96 225 -21 21 -58 11 -35 -7 rlinecurve
          -166 -388 rlineto
          -10 -22 -9 -23 -18 vvcurveto
          -23 12 -29 15 -24 vhcurveto
          164 hlineto
          21 21 1 20 hhcurveto
          -20 -1 -20 -20 vvcurveto
          endchar
        </CharString>
        <CharString name="four.smcp">
          -45 100 100 354 -20 hstem
          259 115 vstem
          259 hmoveto
          -4 21 19 -1 19 hhcurveto
          18 17 -21 callsubr
          45 67 callgsubr
          17 20 vvcurveto
          10 15 64 callgsubr
          36 hlineto
          7 21 2 17 21 72 callsubr
          12 -2 15 vhcurveto
          -38 hlineto
          -11 -18 -1 -11 hhcurveto
          1 vlineto
          19 1 32 20 vvcurveto
          79 vlineto
          -5 5 rlineto
          -29 hlineto
          -48 -33 -38 -53 hvcurveto
          -42 vlineto
          -23 vlineto
          -18 -56 -3 -4 -35 hvcurveto
          -2 4 26 46 33 64 19 39 rlinecurve
          87 181 -23 21 -50 12 -39 -6 rlinecurve
          -153 -325 rlineto
          -8 -16 -10 -21 -17 vvcurveto
          -21 12 -29 15 -25 vhcurveto
          143 hlineto
          21 19 2 20 hhcurveto
          -20 -1 -17 -20 vvcurveto
          endchar
        </CharString>
        <CharString name="foursuperior">
          -107 406 87 hstem
          219 100 vstem
          219 332 rmoveto
          -4 17 19 7 callsubr
          14 19 1 74 callgsubr
          74 53 vlineto
          5 16 3 19 18 vvcurveto
          11 -1 12 -3 11 vhcurveto
          -57 117 hlineto
          -3 4 rlineto
          -27 hlineto
          -43 -27 -29 -46 hvcurveto
          -46 vlineto
          -15 -37 -1 -3 -26 hvcurveto
          -2 2 21 27 26 53 14 32 rlinecurve
          66 144 -21 17 -46 9 -32 -3 rlinecurve
          -116 -255 rlineto
          -5 -11 -9 -20 -16 vvcurveto
          -18 10 -25 12 -20 vhcurveto
          114 hlineto
          18 12 1 16 hhcurveto
          endchar
        </CharString>
        <CharString name="fraction">
          -278 0 -20 hstem
          -124 497 vstem
          -124 hmoveto
          -42 callsubr
          endchar
        </CharString>
        <CharString name="g">
          4 -221 94 118 54 callsubr
          175 121 hintmask 00000000
          hintmask 11101100
          39 247 rmoveto
          -152 58 -104 119 48 44 20 27 33 vhcurveto
          -40 vlineto
          -71 -23 -54 -91 -41 -53 12 19 -42 vhcurveto
          -18 -21 -13 -40 -30 vvcurveto
          -19 48 68 -15 63 hhcurveto
          77 62 25 44 35 hvcurveto
          31 40 18 57 125 vvcurveto
          284 48 callsubr
          -20 29 -18 12 -36 -4 -25 -16 -18 -23 rrcurveto
          hintmask 11101100
          28 55 callgsubr
          hvcurveto
          302 -106 rmoveto
          -31 -27 -35 -18 -35 hhcurveto
          -44 -34 45 109 111 34 57 55 27 31 -15 -26 28 hvcurveto
          -9 vlineto
          endchar
        </CharString>
        <CharString name="g.smcp">
          47 -14 96 121 104 152 103 -53 -20 hstemhm
          38 129 237 78 callgsubr
          hintmask 11101100
          297 305 rmoveto
          -4 -13 -3 -20 -17 vvcurveto
          -36 20 -16 37 vhcurveto
          59 hlineto
          -1 -24 -1 -20 -5 vvcurveto
          -63 vlineto
          -5 -25 -29 -4 -31 hhcurveto
          -103 -49 63 125 131 59 58 87 54 50 -15 -27 46 hvcurveto
          hintmask 11011100
          25 16 23 42 4 34 rrcurveto
          hintmask 11101100
          31 -53 -78 22 -76 hhcurveto
          -141 -129 -85 -206 -157 69 -128 189 83 94 17 17 48 hvcurveto
          216 vlineto
          46 -19 25 -68 -47 -44 -1 -1 -46 vhcurveto
          endchar
        </CharString>
        <CharString name="germandbls">
          -81 callgsubr
        </CharString>
        <CharString name="germandbls.cap">
          -81 callgsubr
        </CharString>
        <CharString name="germandbls.cap_smcp">
          56 -12 92 179 95 117 91 hstem
          91 126 174 125 vstem
          91 hmoveto
          -3 18 25 -2 19 hhcurveto
          22 22 2 3 20 hvcurveto
          383 vlineto
          56 28 32 59 58 29 -39 -46 vhcurveto
          -5 -1 -5 -5 vvcurveto
          -46 -20 -29 -38 -40 vvcurveto
          -33 18 -23 35 -28 vhcurveto
          33 -28 rlineto
          21 -17 7 -13 -15 vvcurveto
          -21 -19 -15 -32 -21 -23 5 10 -22 vhcurveto
          -19 -19 -14 -40 -1 -26 rrcurveto
          -15 33 45 -7 38 hhcurveto
          96 69 48 74 35 -14 33 -44 40 hvcurveto
          -29 25 rlineto
          -16 12 -8 11 13 vvcurveto
          24 23 20 37 11 vhcurveto
          6 19 2 22 16 vvcurveto
          102 -85 69 -127 -125 -88 -54 -111 vhcurveto
          -43 vlineto
          -77 1 rlineto
          -3 -14 -2 -19 -14 vvcurveto
          -14 2 -20 3 -15 vhcurveto
          77 1 rlineto
          endchar
        </CharString>
        <CharString name="germandbls.smcp">
          474 49 callsubr
          hstemhm
          39 58 callsubr
          67 58 callsubr
          hintmask 11110000
          -95 callgsubr
          hintmask 11001100
          500 hmoveto
          -100 callgsubr
          endchar
        </CharString>
        <CharString name="grave">
          539 212 hstem
          59 230 vstem
          140 751 -65 callsubr
        </CharString>
        <CharString name="grave.cap">
          728 189 hstem
          58 263 vstem
          110 917 -53 callsubr
        </CharString>
        <CharString name="greater">
          3 48 496 hstem
          351 132 vstem
          477 248 rmoveto
          9 29 -1 39 -8 28 -363 200 rcurveline
          -29 -16 -25 -41 -3 -40 216 -113 rcurveline
          20 -10 40 -18 18 -7 rrcurveto
          -7 vlineto
          -18 -7 -40 -17 -20 -11 -216 -112 rcurveline
          2 -40 24 -39 30 -18 rrcurveto
          endchar
        </CharString>
        <CharString name="guillemotleft">
          54 32 447 hstemhm
          29 275 -32 275 hintmask 10100000
          542 414 -42 callgsubr
          hintmask 11000000
          -111 157 -42 callgsubr
          endchar
        </CharString>
        <CharString name="guillemotright">
          54 32 447 hstemhm
          34 276 -33 276 hintmask 11000000
          39 97 -43 callsubr
          hintmask 10100000
          111 -157 -43 callsubr
          endchar
        </CharString>
        <CharString name="guilsinglleft">
          -189 32 447 hstem
          29 275 vstem
          299 414 -42 callgsubr
          endchar
        </CharString>
        <CharString name="guilsinglright">
          -189 32 447 hstem
          34 276 vstem
          39 97 -43 callsubr
          endchar
        </CharString>
        <CharString name="h">
          16 393 111 hstem
          71 121 160 51 callgsubr
          476 335 rmoveto
          54 callgsubr
          217 vlineto
          -1 callsubr
          -729 -26 callgsubr
          endchar
        </CharString>
        <CharString name="h.smcp">
          95 233 103 212 -20 hstem
          79 126 212 37 callgsubr
          417 hmoveto
          -4 20 24 3 callgsubr
          548 vlineto
          41 callgsubr
          -154 vlineto
          -22 1 -16 -21 vvcurveto
          -12 -24 1 -11 hhcurveto
          56 callgsubr
          16 22 vvcurveto
          154 -66 callsubr
          -548 39 callgsubr
          175 1 callsubr
          endchar
        </CharString>
        <CharString name="hbar">
          19 393 111 61 79 hstem
          74 121 160 51 callgsubr
          195 659 rmoveto
          -1 callsubr
          -85 vlineto
          -72 2 rlineto
          -4 -16 -1 -10 6 callsubr
          1 -11 38 callsubr
          72 1 rlineto
          -565 -26 callgsubr
          222 vlineto
          54 callgsubr
          124 vlineto
          153 -2 rlineto
          4 15 2 11 15 vvcurveto
          15 -2 10 70 callsubr
          -153 -3 rlineto
          endchar
        </CharString>
        <CharString name="hbar.smcp">
          103 230 102 66 150 hstem
          83 126 212 37 callgsubr
          209 hmoveto
          172 1 callsubr
          -172 48 callgsubr
          24 3 callgsubr
          398 60 vlineto
          4 13 1 15 13 vvcurveto
          13 -1 12 -4 14 vhcurveto
          -60 70 hlineto
          41 callgsubr
          -70 -212 70 -66 callsubr
          -70 -60 vlineto
          -4 -14 -2 -14 -12 vvcurveto
          -13 2 -14 4 -13 vhcurveto
          60 -398 hlineto
          -55 callsubr
          166 332 rmoveto
          56 callgsubr
          18 22 vvcurveto
          6 212 -6 vlineto
          -22 1 -18 -21 vvcurveto
          -12 -24 1 -11 hhcurveto
          endchar
        </CharString>
        <CharString name="hyphen">
          -28 callgsubr
        </CharString>
        <CharString name="i">
          -245 -69 0 245 199 endchar
        </CharString>
        <CharString name="i.smcp">
          19 callgsubr
          hstem
          82 37 callgsubr
          -81 callsubr
          endchar
        </CharString>
        <CharString name="iacute">
          34 callgsubr
          40 15 callgsubr
          44 229 -189 124 -88 callsubr
          hintmask 01100000
          -164 588 -99 callsubr
        </CharString>
        <CharString name="iacute.smcp">
          19 callgsubr
          63 15 callgsubr
          64 229 -211 -44 callsubr
          -18 92 -99 callsubr
        </CharString>
        <CharString name="icircumflex">
          34 callgsubr
          139 94 hstemhm
          -26 304 -194 124 -88 callsubr
          hintmask 01100000
          14 548 -89 callgsubr
        </CharString>
        <CharString name="icircumflex.smcp">
          19 callgsubr
          162 94 hstemhm
          -6 304 -216 -44 callsubr
          160 52 -89 callgsubr
        </CharString>
        <CharString name="idieresis">
          34 callgsubr
          74 87 hstemhm
          -33 118 -1 124 -49 118 -88 callsubr
          hintmask 01101000
          -49 617 -107 callgsubr
        </CharString>
        <CharString name="idieresis.smcp">
          19 callgsubr
          97 87 hstemhm
          -13 118 -23 126 -29 118 -71 callsubr
          hintmask 01101000
          97 121 -107 callgsubr
        </CharString>
        <CharString name="igrave">
          34 callgsubr
          40 15 callgsubr
          -13 230 -133 124 -88 callsubr
          hintmask 01100000
          -140 751 -65 callsubr
        </CharString>
        <CharString name="igrave.smcp">
          19 callgsubr
          63 15 callgsubr
          8 230 -156 -44 callsubr
          7 255 -65 callsubr
        </CharString>
        <CharString name="ij">
          37 31 callsubr
          87 99 hstemhm
          57 136 -105 124 160 32 callgsubr
          hintmask 01001000
          212 -96 callgsubr
          hintmask 00110000
          -155 636 -90 callsubr
          hintmask 00000000
          438 -237 -82 callsubr
          hintmask 11000100
          -32 callsubr
        </CharString>
        <CharString name="ij.smcp">
          174 79 callgsubr
          hstemhm
          82 126 300 126 hintmask 01100000
          -81 callsubr
          hintmask 11010000
          253 -432 -58 callsubr
          endchar
        </CharString>
        <CharString name="itilde">
          34 callgsubr
          56 98 hstemhm
          -55 362 -223 124 -88 callsubr
          hintmask 00000000
          -75 572 -79 callgsubr
        </CharString>
        <CharString name="itilde.smcp">
          19 callgsubr
          79 98 hstemhm
          -35 362 -245 126 -71 callsubr
          hintmask 00000000
          71 76 -79 callgsubr
        </CharString>
        <CharString name="j">
          -239 31 callsubr
          87 99 hstemhm
          62 136 -102 32 callgsubr
          hintmask 11001000
          219 399 -82 callsubr
          hintmask 00110000
          -32 callsubr
        </CharString>
        <CharString name="j.smcp">
          -116 79 callgsubr
          hstem
          218 37 callgsubr
          45 116 -58 callsubr
          endchar
        </CharString>
        <CharString name="jcircumflex">
          -246 31 callsubr
          139 94 hstemhm
          -23 304 -191 32 callgsubr
          hintmask 11001000
          213 399 -82 callsubr
          hintmask 00110000
          12 526 -89 callgsubr
        </CharString>
        <CharString name="jcircumflex.smcp">
          -116 79 callgsubr
          162 94 hstemhm
          129 304 -215 126 hintmask 11001000
          45 116 -58 callsubr
          hintmask 00110000
          332 484 -89 callgsubr
        </CharString>
        <CharString name="k">
          -17 209 102 179 9 hstem
          71 65 callsubr
          -68 callgsubr
          endchar
        </CharString>
        <CharString name="k.smcp">
          31 232 101 206 14 -5 -46 callsubr
          hintmask 10110000
          -39 callsubr
          endchar
        </CharString>
        <CharString name="kcommaaccent">
          -17 -24 callgsubr
          261 102 179 9 hstemhm
          71 121 39 111 hintmask 00011100
          -68 callgsubr
          hintmask 11100010
          -117 -171 -93 callsubr
        </CharString>
        <CharString name="kcommaaccent.smcp">
          24 -24 callgsubr
          284 101 206 14 -5 -20 hstemhm
          79 126 42 111 hintmask 00000000
          hintmask 00010110
          -29 callgsubr
          hintmask 00011010
          -38 callgsubr
          hintmask 00010110
          -39 callsubr
          hintmask 11100001
          -192 -91 -93 callsubr
        </CharString>
        <CharString name="kgreenlandic">
          -17 209 102 179 9 hstem
          71 65 callsubr
          -57 callgsubr
          114 vlineto
          33 callgsubr
          -47 35 callgsubr
          -495 -59 callsubr
          endchar
        </CharString>
        <CharString name="kgreenlandic.smcp">
          31 232 101 206 14 -6 -46 callsubr
          144 vlineto
          33 callgsubr
          -52 35 callgsubr
          -547 vlineto
          -3 18 24 -2 22 hhcurveto
          21 24 2 3 17 -12 callsubr
          endchar
        </CharString>
        <CharString name="l">
          -226 -5 97 hstem
          70 65 callsubr
          -27 callgsubr
          endchar
        </CharString>
        <CharString name="l.smcp">
          -54 -2 106 448 -20 hstem
          78 37 callgsubr
          -26 callsubr
          endchar
        </CharString>
        <CharString name="ldot">
          -157 -5 97 214 103 hstemhm
          70 121 57 125 hintmask 10100000
          -27 callgsubr
          hintmask 01010000
          -17 265 -60 callsubr
        </CharString>
        <CharString name="ldot.smcp">
          -48 -2 106 161 103 184 -20 hstemhm
          78 126 101 125 hintmask 10110000
          -26 callsubr
          hintmask 01001000
          -144 212 -60 callsubr
        </CharString>
        <CharString name="less">
          3 47 496 hstem
          47 132 vstem
          53 343 rmoveto
          -9 -29 1 -39 8 -28 363 -200 rcurveline
          29 16 25 41 3 40 -216 113 rcurveline
          -20 10 -40 18 -18 7 rrcurveto
          7 vlineto
          18 7 40 18 20 10 216 112 rcurveline
          -2 40 -24 40 -30 17 rrcurveto
          endchar
        </CharString>
        <CharString name="logicalnot">
          3 250 103 hstem
          366 109 vstem
          50 353 rmoveto
          -4 20 callgsubr
          -13 1 -22 52 callsubr
          260 hlineto
          19 19 1 19 hhcurveto
          -18 -1 -19 -16 vvcurveto
          -79 48 callgsubr
          17 -1 -8 callgsubr
          18 1 4 16 hvcurveto
          227 vlineto
          -6 7 rlineto
          endchar
        </CharString>
        <CharString name="lslash">
          -183 -5 97 hstem
          102 120 vstem
          263 92 rmoveto
          -28 -13 15 30 hvcurveto
          213 vlineto
          88 45 6 32 0 35 -8 24 rlinecurve
          -9 5 -77 -40 rlineto
          208 vlineto
          55 -17 22 -50 vhcurveto
          -47 hlineto
          -6 -7 rlineto
          -339 vlineto
          -80 -40 -7 -32 1 -35 8 -24 rlinecurve
          9 -5 69 35 rlineto
          -177 vlineto
          -79 33 -38 75 31 37 5 4 26 vhcurveto
          2 8 0 10 9 vvcurveto
          21 -3 22 -7 18 vhcurveto
          endchar
        </CharString>
        <CharString name="lslash.smcp">
          -40 -2 106 448 -20 hstem
          93 37 callgsubr
          219 473 rmoveto
          56 -23 23 -49 vhcurveto
          -49 hlineto
          -5 -6 rlineto
          -235 vlineto
          -69 -20 -6 -31 0 -39 8 -21 rlinecurve
          9 -5 58 18 rlineto
          -142 vlineto
          -45 28 -28 45 53 callgsubr
          2 15 0 15 1 15 rrcurveto
          -158 hlineto
          -26 -30 -2 -3 -31 hvcurveto
          150 vlineto
          149 46 6 30 0 39 -8 21 rlinecurve
          -9 5 -138 -45 rlineto
          endchar
        </CharString>
        <CharString name="m">
          275 393 112 83 callgsubr
          145 124 146 45 callsubr
          hintmask 11110000
          340 308 rmoveto
          -308 -20 callsubr
          22 hhcurveto
          21 -19 callgsubr
          341 vlineto
          31 29 34 21 28 hhcurveto
          33 22 -20 -64 hvcurveto
          -238 -11 callsubr
          234 vlineto
          89 -42 69 -88 -56 -57 -31 -41 -44 vhcurveto
          44 -21 -38 28 -56 hhcurveto
          -51 -48 -28 -38 -40 hvcurveto
          39 -7 -22 23 -40 hhcurveto
          -46 -6 callsubr
          -494 -66 callgsubr
          343 vlineto
          29 27 35 21 29 hhcurveto
          33 21 -21 -64 hvcurveto
          endchar
        </CharString>
        <CharString name="m.smcp">
          216 2 -20 101 106 233 126 hstem
          61 621 vstem
          61 2 rmoveto
          -5 16 24 -2 24 hhcurveto
          19 21 1 4 17 hvcurveto
          18 232 rlineto
          5 56 0 84 50 vvcurveto
          6 hlineto
          96 -339 rlineto
          -3 17 29 -2 18 hhcurveto
          18 28 2 3 18 hvcurveto
          97 339 rlineto
          6 hlineto
          -49 0 -85 4 -56 vhcurveto
          19 -232 rlineto
          -4 18 21 -1 19 hhcurveto
          23 24 2 5 16 hvcurveto
          -54 546 rlineto
          5 -22 -37 2 -22 hhcurveto
          -21 -35 -2 -5 -23 hvcurveto
          -66 -239 -7 -26 -15 -57 -5 -37 rlinecurve
          -6 hlineto
          -6 37 -14 57 -8 26 -66 239 rcurveline
          5 -21 -37 2 -21 hhcurveto
          -22 -34 -2 -5 -25 hvcurveto
          endchar
        </CharString>
        <CharString name="macron">
          574 94 hstemhm
          54 291 77 callgsubr
          345 574 rmoveto
          30 callgsubr
          10 24 callsubr
          -291 hlineto
          -5 -17 -1 -13 -17 vvcurveto
          -19 1 -12 5 -16 vhcurveto
          endchar
        </CharString>
        <CharString name="mu">
          26 -198 -21 210 105 400 -20 hstem
          70 123 163 51 callgsubr
          480 496 rmoveto
          3 -18 -23 2 -22 hhcurveto
          -21 33 callsubr
          -350 vlineto
          -32 -23 -29 -18 -35 hhcurveto
          -46 -28 31 51 -2 hvcurveto
          318 vlineto
          3 -18 -22 2 -21 hhcurveto
          -22 33 callsubr
          -595 vlineto
          -26 -3 -42 -16 -27 vhcurveto
          -16 20 25 -9 30 hhcurveto
          50 9 34 50 hvcurveto
          147 vlineto
          -13 20 23 -8 27 hhcurveto
          51 41 26 38 26 hvcurveto
          17 -34 31 -23 44 84 callsubr
          28 6 10 callgsubr
          endchar
        </CharString>
        <CharString name="multiply">
          3 494 -20 21 -20 hstemhm
          66 397 hintmask 00000000
          hintmask 01100000
          230 187 rmoveto
          34 35 36 -35 88 -90 16 7 17 11 12 13 rlinecurve
          13 13 10 14 7 17 -89 89 rcurveline
          -36 35 36 34 rlineto
          hintmask 10100000
          89 90 -7 16 -11 15 -13 13 rlinecurve
          -13 13 -15 10 -16 7 -88 -89 rcurveline
          -12 -12 -12 -13 -12 -11 rrcurveto
          hintmask 01100000
          -34 36 -89 90 -17 -7 -15 -11 -12 -13 rlinecurve
          -14 -13 -10 -15 -7 -16 90 -89 rcurveline
          35 -36 -35 -35 -90 -88 7 -17 12 -15 12 -12 rlinecurve
          12 -12 15 -11 17 -8 rrcurveto
          endchar
        </CharString>
        <CharString name="n">
          44 callsubr
          83 callgsubr
          160 45 callsubr
          hintmask 01110000
          479 335 rmoveto
          hintmask 10110000
          13 callgsubr
          hintmask 01110000
          -69 callgsubr
          endchar
        </CharString>
        <CharString name="n.smcp">
          82 callgsubr
          hstem
          79 117 234 119 vstem
          -97 callsubr
          endchar
        </CharString>
        <CharString name="nacute">
          19 81 0 110 194 endchar
        </CharString>
        <CharString name="nacute.smcp">
          82 callgsubr
          58 15 callgsubr
          79 117 39 229 -34 -86 callsubr
          hintmask 01010000
          -314 93 -99 callsubr
        </CharString>
        <CharString name="nbspace">
          -307 0 0 32 32 endchar
        </CharString>
        <CharString name="ncaron">
          44 callsubr
          166 -20 83 callgsubr
          -67 305 -78 -52 callgsubr
          -295 623 -88 callgsubr
        </CharString>
        <CharString name="ncaron.smcp">
          82 callgsubr
          166 -20 hstemhm
          79 117 -31 305 -40 -86 callsubr
          hintmask 00000000
          -328 241 -43 callgsubr
          hintmask 01010000
          -90 callgsubr
        </CharString>
        <CharString name="nine">
          3 -14 99 129 102 252 94 hstem
          40 124 194 129 vstem
          259 662 rmoveto
          -124 -95 -88 -142 -151 73 -67 109 53 47 21 30 35 hvcurveto
          -105 -4 -41 -75 -98 hhcurveto
          -41 -34 10 11 -25 hvcurveto
          -25 -19 -15 -36 -3 -32 rrcurveto
          -20 38 53 -13 61 hhcurveto
          171 93 130 208 190 -50 56 -18 23 hvcurveto
          23 -19 -47 46 -94 hhcurveto
          -5 -346 rmoveto
          -53 -37 32 92 75 31 53 62 30 21 -15 -18 14 hvcurveto
          26 -34 10 -64 -61 vvcurveto
          -15 vlineto
          -29 -31 -37 -16 -36 hhcurveto
          endchar
        </CharString>
        <CharString name="nine.smcp">
          -45 -14 93 111 93 189 90 hstem
          42 121 157 125 vstem
          239 562 rmoveto
          -113 -84 -74 -121 -109 53 -68 108 44 40 13 22 33 hvcurveto
          -88 -4 -33 -58 -84 hhcurveto
          -35 -34 9 7 -22 hvcurveto
          -21 -19 -15 -29 -4 -32 rrcurveto
          -17 34 56 -12 48 hhcurveto
          153 86 106 175 97 -13 92 -56 56 hvcurveto
          31 -32 -44 19 -61 hhcurveto
          -4 -279 rmoveto
          -44 -28 30 66 59 27 34 48 26 17 -12 -14 11 hvcurveto
          20 -25 8 -46 -48 vvcurveto
          -15 vlineto
          -17 -26 -31 -12 -28 hhcurveto
          endchar
        </CharString>
        <CharString name="ntilde">
          44 callsubr
          74 98 83 callgsubr
          -97 362 -105 -52 callgsubr
          -193 459 -89 callsubr
        </CharString>
        <CharString name="ntilde.smcp">
          82 callgsubr
          74 98 hstemhm
          79 117 -61 362 -67 -86 callsubr
          hintmask 00000000
          -226 77 -91 callgsubr
          hintmask 01010000
          -93 callgsubr
        </CharString>
        <CharString name="numbersign">
          146 4 9 133 100 165 100 133 8 hstem
          22 634 vstem
          443 511 rmoveto
          -123 hlineto
          30 133 -26 11 -57 0 -27 -11 rlinecurve
          -30 -133 rlineto
          -132 75 callgsubr
          109 hlineto
          -37 -165 rlineto
          -121 75 callgsubr
          99 hlineto
          -30 -133 25 -12 59 0 26 12 rlinecurve
          30 133 rlineto
          123 hlineto
          -30 -133 25 -12 58 0 27 12 rlinecurve
          29 133 rlineto
          128 hlineto
          10 28 0 44 -10 28 rrcurveto
          -105 hlineto
          37 165 rlineto
          118 hlineto
          10 28 0 44 -10 28 rrcurveto
          -96 hlineto
          30 133 -25 11 -57 0 -27 -11 rlinecurve
          -176 -233 rmoveto
          123 hlineto
          -37 -165 rlineto
          -123 hlineto
          endchar
        </CharString>
        <CharString name="o">
          57 callsubr
          85 callsubr
          189 65 callgsubr
          -76 callsubr
          endchar
        </CharString>
        <CharString name="o.smcp">
          5 callsubr
          hstem
          37 129 264 130 vstem
          -102 callsubr
          endchar
        </CharString>
        <CharString name="oacute">
          57 callsubr
          29 212 11 callgsubr
          12 229 -52 127 hintmask 11010100
          -76 callsubr
          hintmask 00101000
          12 340 -99 callsubr
        </CharString>
        <CharString name="oacute.smcp">
          5 callsubr
          43 callsubr
          50 229 -15 -91 callsubr
          hintmask 00101000
          179 367 -99 callsubr
        </CharString>
        <CharString name="ocircumflex">
          -6 61 0 111 195 endchar
        </CharString>
        <CharString name="ocircumflex.smcp">
          5 callsubr
          128 94 11 callsubr
          -20 304 -20 -91 callsubr
          hintmask 00101000
          357 327 -89 callgsubr
        </CharString>
        <CharString name="odieresis">
          -6 61 0 111 200 endchar
        </CharString>
        <CharString name="odieresis.smcp">
          5 callsubr
          63 87 11 callsubr
          -27 0 callsubr
          -19 130 hintmask 11010010
          -102 callsubr
          hintmask 00101100
          294 396 -107 callgsubr
        </CharString>
        <CharString name="oe">
          291 -14 94 128 88 120 94 -90 90 11 callgsubr
          189 133 172 78 callgsubr
          hintmask 11011110
          767 -27 callsubr
          -71 94 -130 -73 -51 -28 -47 -32 vhcurveto
          46 -33 -52 29 -75 -13 callsubr
          -84 18 -69 53 -52 vhcurveto
          -39 39 51 -18 60 hhcurveto
          74 51 27 44 33 hvcurveto
          -43 30 49 -28 77 hhcurveto
          70 71 22 35 49 hvcurveto
          -4 25 -13 32 -19 19 rrcurveto
          -20 -42 -44 -15 -49 hhcurveto
          -77 19 callsubr
          -323 40 rmoveto
          hintmask 11101110
          -10 callgsubr
          vhcurveto
          hintmask 11011110
          -77 -18 79 89 hvcurveto
          410 172 rmoveto
          61 23 -51 -62 hvcurveto
          -11 -172 vlineto
          79 5 26 45 57 hhcurveto
          endchar
        </CharString>
        <CharString name="oe.smcp">
          297 -1 102 126 100 119 102 hstem
          37 131 219 120 vstem
          784 101 rmoveto
          -213 hlineto
          -28 -17 -1 -1 -20 hvcurveto
          16 1 26 15 vvcurveto
          71 60 vlineto
          149 68 callgsubr
          21 -5 15 vhcurveto
          -149 hlineto
          -13 -24 0 -1 -23 hvcurveto
          64 vlineto
          15 -1 25 16 vvcurveto
          61 hlineto
          194 hlineto
          7 18 -35 callsubr
          -338 hlineto
          7 -39 -47 7 -42 hhcurveto
          -78 -49 -21 -30 -40 hvcurveto
          -73 -56 -24 -95 -85 vvcurveto
          -85 24 -98 73 -55 vhcurveto
          -30 40 49 -21 78 hhcurveto
          41 47 7 6 39 hvcurveto
          278 hlineto
          45 -33 callsubr
          -483 -18 rmoveto
          -113 -20 105 86 85 20 106 113 27 31 -5 -8 28 hvcurveto
          -356 vlineto
          -8 -28 -30 -5 -28 hhcurveto
          endchar
        </CharString>
        <CharString name="ograve">
          -6 63 0 111 193 endchar
        </CharString>
        <CharString name="ograve.smcp">
          5 callsubr
          43 callsubr
          -7 230 41 -91 callsubr
          hintmask 00101000
          203 530 -65 callsubr
        </CharString>
        <CharString name="one">
          3 0 103 545 -20 hstem
          233 122 vstem
          47 452 rmoveto
          5 -31 22 -29 25 -13 48 21 54 35 38 45 rrcurveto
          -2 -41 -4 -51 -26 vvcurveto
          -190 vlineto
          -24 1 -22 -24 vvcurveto
          -15 -31 1 -14 hhcurveto
          -87 hlineto
          -4 -16 -2 -19 -17 vvcurveto
          -17 2 -17 4 -17 vhcurveto
          392 hlineto
          4 16 2 18 17 vvcurveto
          17 -2 19 70 callsubr
          -63 hlineto
          -14 -33 -1 -15 hhcurveto
          24 1 22 24 vvcurveto
          476 vlineto
          4 -22 -19 14 callsubr
          -17 -20 -1 -4 -22 hvcurveto
          -30 -67 -62 -68 -98 -61 rrcurveto
          endchar
        </CharString>
        <CharString name="one.smcp">
          -45 0 99 449 -20 hstem
          206 65 callsubr
          43 386 rmoveto
          5 -29 19 -31 26 -12 46 19 42 27 31 35 rrcurveto
          -2 -29 -4 -31 -20 vvcurveto
          -158 vlineto
          -20 1 -20 -20 vvcurveto
          -15 -29 2 -12 hhcurveto
          -73 hlineto
          -4 -14 -2 -19 -17 vvcurveto
          -16 2 -17 52 callsubr
          356 hlineto
          4 15 1 18 16 vvcurveto
          17 -1 19 -4 14 38 callgsubr
          -13 -35 -2 -12 hhcurveto
          20 1 20 20 vvcurveto
          391 vlineto
          3 -20 -19 14 callsubr
          -17 -22 -1 70 callgsubr
          -30 -61 -48 -50 -90 -51 rrcurveto
          endchar
        </CharString>
        <CharString name="onehalf">
          461 0 -20 23 93 153 90 16 93 hstemhm
          162 102 3 497 56 110 hintmask 10000100
          267 hmoveto
          -42 callsubr
          hintmask 00101000
          -613 -141 -76 callgsubr
          hintmask 01010010
          911 -446 -54 callsubr
        </CharString>
        <CharString name="onequarter">
          461 0 -20 99 87 83 90 hstemhm
          162 102 16 497 13 100 hintmask 00110000
          31 542 -76 callgsubr
          hintmask 10001000
          249 -542 rmoveto
          -42 callsubr
          hintmask 01000100
          133 -678 rmoveto
          -4 17 19 7 callsubr
          14 19 1 74 callgsubr
          74 53 vlineto
          5 16 3 19 18 vvcurveto
          11 -1 12 -3 11 vhcurveto
          -57 117 hlineto
          -3 4 rlineto
          -27 hlineto
          -43 -27 -29 -46 hvcurveto
          -46 vlineto
          -15 -37 -1 -3 -26 hvcurveto
          -2 2 21 27 26 53 14 32 rlinecurve
          66 144 -21 17 -46 9 -32 -3 rlinecurve
          -116 -255 rlineto
          -5 -11 -9 -20 -16 vvcurveto
          -18 10 -25 12 -20 vhcurveto
          114 hlineto
          18 12 1 16 hhcurveto
          endchar
        </CharString>
        <CharString name="onesuperior">
          -107 332 90 hstem
          180 102 vstem
          49 625 -76 callgsubr
          endchar
        </CharString>
        <CharString name="ordfeminine">
          -90 284 78 105 69 79 82 hstem
          39 103 120 107 vstem
          395 343 rmoveto
          -21 13 -5 22 28 vvcurveto
          156 vlineto
          95 -63 40 -75 -55 -70 -16 -21 -49 vhcurveto
          1 -27 11 -27 16 -17 rrcurveto
          16 44 37 10 41 hhcurveto
          30 25 -16 -40 hvcurveto
          -26 vlineto
          2 -24 -24 1 -19 hhcurveto
          -88 -68 -41 -92 -61 43 -58 80 48 40 22 26 29 hvcurveto
          16 -25 25 -16 34 -3 20 10 18 25 3 20 rrcurveto
          -206 19 rmoveto
          -29 -18 22 26 35 22 22 38 18 21 -1 -2 21 hvcurveto
          -60 vlineto
          -9 vlineto
          -21 -24 -27 -12 -22 hhcurveto
          endchar
        </CharString>
        <CharString name="ordmasculine">
          -98 283 81 252 81 hstem
          38 105 144 105 vstem
          392 491 rmoveto
          62 -16 57 -42 44 vhcurveto
          28 -30 -42 15 -47 hhcurveto
          -48 -42 -15 -28 -29 hvcurveto
          -42 -44 -16 -57 -62 vvcurveto
          -64 16 -58 42 -42 vhcurveto
          -29 29 42 -15 48 hhcurveto
          47 42 15 29 30 hvcurveto
          42 42 16 58 64 vvcurveto
          -249 hmoveto
          70 18 55 54 54 18 -55 -70 -71 -18 -56 -54 -54 -18 56 71 vhcurveto
          endchar
        </CharString>
        <CharString name="oslash">
          -4 -14 89 346 89 -16 -20 80 -20 hstemhm
          40 116 211 116 hintmask 00000000
          hintmask 11011100
          483 248 rmoveto
          79 -17 72 -53 53 vhcurveto
          37 66 -16 18 -27 13 -23 5 rlinecurve
          hintmask 10111100
          -35 -60 rlineto
          hintmask 11011100
          11 -26 -30 5 -32 hhcurveto
          -60 -52 -18 -39 -39 hvcurveto
          -53 -53 -17 -73 -79 vvcurveto
          -78 16 -74 52 -52 vhcurveto
          -37 -65 15 -18 27 -14 24 -5 rlinecurve
          35 60 rlineto
          -10 27 30 -6 32 hhcurveto
          61 52 18 39 39 hvcurveto
          53 52 17 75 78 vvcurveto
          -116 hmoveto
          -86 -21 -87 -84 -17 -15 3 6 -12 vhcurveto
          136 261 rlineto
          9 -29 4 -34 -34 vvcurveto
          -211 hmoveto
          87 21 86 85 16 14 -3 -6 12 vhcurveto
          -136 -259 rlineto
          -9 28 -3 33 34 vvcurveto
          endchar
        </CharString>
        <CharString name="oslash.smcp">
          69 -14 88 -69 -20 489 88 hstemhm
          37 123 276 45 callsubr
          hintmask 01111000
          37 273 rmoveto
          -70 17 -78 46 -56 vhcurveto
          -46 -64 rlineto
          hintmask 10111000
          14 -20 29 -21 24 -7 43 58 rcurveline
          -18 34 41 -11 59 hhcurveto
          77 48 19 30 38 hvcurveto
          73 56 26 97 85 vvcurveto
          71 -18 80 -49 57 vhcurveto
          46 64 -15 22 -28 18 -24 8 rlinecurve
          -43 -60 rlineto
          18 -33 -41 11 -57 hhcurveto
          -77 -47 -20 -30 -39 hvcurveto
          hintmask 01111000
          -6 callgsubr
          399 hmoveto
          hintmask 10111000
          -89 -22 -110 -116 -32 -25 8 14 -19 vhcurveto
          199 284 rlineto
          hintmask 01111000
          11 -34 4 -38 -35 vvcurveto
          -276 hmoveto
          89 23 112 115 30 24 -8 -13 19 vhcurveto
          -198 -281 rlineto
          -10 32 -3 36 33 vvcurveto
          endchar
        </CharString>
        <CharString name="otilde">
          57 callsubr
          45 98 11 callgsubr
          -87 362 -86 127 hintmask 11010100
          -76 callsubr
          hintmask 00000000
          101 324 -89 callsubr
        </CharString>
        <CharString name="otilde.smcp">
          5 callsubr
          45 98 11 callsubr
          -49 362 -49 -91 callsubr
          hintmask 00000000
          268 351 -89 callsubr
        </CharString>
        <CharString name="p">
          6 75 callsubr
          322 102 -9 -20 hstemhm
          71 122 174 127 hintmask 00000000
          hintmask 01101110
          494 254 rmoveto
          hintmask 01110110
          151 -58 105 -117 -54 -47 -24 -34 -34 vhcurveto
          hintmask 01101110
          31 -12 -24 18 -35 hhcurveto
          -35 35 callgsubr
          -704 vlineto
          7 -7 rlineto
          hintmask 10101110
          47 hlineto
          51 17 22 55 hvcurveto
          158 vlineto
          -16 31 35 -12 40 hhcurveto
          hintmask 01101110
          101 94 87 176 hvcurveto
          hintmask 01110110
          -206 154 rmoveto
          44 35 -45 -109 -110 -35 -58 -53 -29 -29 13 18 -28 hvcurveto
          237 vlineto
          39 29 37 15 29 hhcurveto
          endchar
        </CharString>
        <CharString name="p.smcp">
          -8 182 95 179 96 69 callgsubr
          494 366 rmoveto
          129 -91 57 -125 -66 -69 -3 -1 -58 vhcurveto
          51 callsubr
          -543 39 callgsubr
          182 73 vlineto
          125 91 60 124 hvcurveto
          -289 91 rmoveto
          -1 27 17 0 21 hhcurveto
          79 15 -50 -39 -39 -15 -51 -79 hvcurveto
          -65 hlineto
          endchar
        </CharString>
        <CharString name="paragraph">
          175 -157 95 637 108 hstem
          282 126 63 37 callgsubr
          282 61 rmoveto
          -51 -6 -26 -15 -18 vhcurveto
          -21 -17 -25 -7 -30 hhcurveto
          -32 -37 11 10 -28 hvcurveto
          -18 -24 -11 -43 1 -25 rrcurveto
          -11 30 54 -13 53 hhcurveto
          63 60 17 41 36 hvcurveto
          41 46 7 59 78 vvcurveto
          593 vlineto
          -7 7 rlineto
          2 -49 -35 2 -45 hhcurveto
          -136 -100 -66 -154 -149 100 -74 130 hvcurveto
          16 hlineto
          189 -377 rmoveto
          -4 19 28 -1 17 -46 callgsubr
          708 vlineto
          15 15 7 callsubr
          35 hlineto
          8 24 0 60 -8 24 rrcurveto
          -200 -6 callsubr
          endchar
        </CharString>
        <CharString name="parenleft">
          -179 -187 1021 hstem
          61 86 callsubr
          192 324 rmoveto
          151 43 165 96 128 vhcurveto
          -15 35 -28 22 -29 9 rrcurveto
          -130 -125 -68 -209 -176 vvcurveto
          -177 68 -209 130 -125 vhcurveto
          29 10 28 21 15 35 rrcurveto
          -96 128 -43 166 151 vvcurveto
          endchar
        </CharString>
        <CharString name="parenright">
          -179 -187 1021 hstem
          156 86 callsubr
          156 324 rmoveto
          -151 -43 -166 -96 -128 vhcurveto
          16 -35 28 -21 29 -10 rrcurveto
          130 125 67 209 177 vvcurveto
          176 -67 209 -130 125 vhcurveto
          -29 -9 -28 -22 -16 -35 rrcurveto
          96 -128 43 -165 -151 vvcurveto
          endchar
        </CharString>
        <CharString name="percent">
          412 -13 79 -66 -20 296 79 -27 79 210 79 hstemhm
          47 103 120 103 193 104 120 103 hintmask 0000000000000000
          hintmask 0110111110000000
          893 198 rmoveto
          hintmask 1001111110000000
          61 -10 64 -41 41 vhcurveto
          30 -29 -38 13 -46 hhcurveto
          -45 -38 -13 -30 -30 hvcurveto
          -40 -41 -10 -64 -61 vvcurveto
          -63 10 76 callgsubr
          45 hhcurveto
          46 38 13 30 29 hvcurveto
          hintmask 0110111110000000
          41 41 10 64 63 vvcurveto
          hintmask 1001111110000000
          -223 hmoveto
          70 8 60 52 51 9 -60 -70 -71 -9 -61 -51 -52 -8 61 71 vhcurveto
          -297 288 rmoveto
          62 -10 64 -40 41 vhcurveto
          30 -30 -37 13 -46 hhcurveto
          -46 -38 -13 -30 -30 hvcurveto
          -40 -41 -9 -64 -62 vvcurveto
          hintmask 0110111110000000
          -62 9 76 callgsubr
          46 hhcurveto
          46 37 13 30 30 hvcurveto
          hintmask 1001111110000000
          41 41 9 64 62 vvcurveto
          hintmask 0110111110000000
          -223 hmoveto
          70 9 61 51 51 9 -61 -70 -70 -9 -61 -51 -51 -9 61 70 vhcurveto
          71 -486 rmoveto
          -42 callsubr
          endchar
        </CharString>
        <CharString name="period">
          -255 6 108 hstem
          58 146 vstem
          58 60 rmoveto
          -75 callsubr
          endchar
        </CharString>
        <CharString name="periodcentered">
          -213 231 108 hstem
          84 137 vstem
          84 285 rmoveto
          -12 2 -28 7 -14 vhcurveto
          -10 15 27 -5 22 hhcurveto
          21 29 5 10 14 hvcurveto
          6 0 callgsubr
          71 callsubr
          9 -14 -29 6 -21 hhcurveto
          -22 -27 -6 -9 -15 hvcurveto
          -7 -15 -2 -27 -12 vvcurveto
          endchar
        </CharString>
        <CharString name="plus">
          3 244 103 164 -20 hstem
          210 110 vstem
          210 403 rmoveto
          -19 1 -19 -19 vvcurveto
          -18 -19 1 -19 hhcurveto
          -100 81 callgsubr
          -16 -19 vvcurveto
          -19 1 -17 52 callsubr
          100 hlineto
          19 19 1 18 hhcurveto
          -19 -1 -18 -18 vvcurveto
          -109 vlineto
          -4 18 19 -1 -8 callgsubr
          17 1 4 18 hvcurveto
          109 vlineto
          18 -1 18 19 vvcurveto
          18 18 -1 20 hhcurveto
          100 hlineto
          4 16 1 17 19 vvcurveto
          19 -1 14 -4 18 vhcurveto
          -100 hlineto
          -20 -18 -1 -18 hhcurveto
          19 1 19 19 vvcurveto
          108 vlineto
          4 -18 -18 1 -19 hhcurveto
          -19 -18 60 callsubr
          endchar
        </CharString>
        <CharString name="plusminus">
          3 0 98 207 95 hstem
          212 107 vstem
          212 458 rmoveto
          -20 1 -21 -18 vvcurveto
          -19 -19 14 callsubr
          -91 hlineto
          -4 -17 -1 -11 -19 vvcurveto
          -18 1 -12 4 -18 vhcurveto
          91 hlineto
          18 19 1 19 hhcurveto
          -18 -1 -21 -18 vvcurveto
          -87 vlineto
          -3 17 18 -1 19 hhcurveto
          18 18 1 3 17 hvcurveto
          87 vlineto
          18 -1 21 18 vvcurveto
          18 18 -1 19 hhcurveto
          91 hlineto
          4 18 1 12 18 vvcurveto
          19 -1 11 24 callsubr
          -91 hlineto
          -19 -18 -1 -18 hhcurveto
          18 1 21 20 vvcurveto
          85 vlineto
          4 -17 -18 14 callsubr
          -19 -18 60 callgsubr
          252 -543 rmoveto
          4 18 1 13 18 vvcurveto
          19 -1 11 64 callsubr
          -398 hlineto
          -4 -19 -1 -11 -19 vvcurveto
          -18 1 -13 4 -18 vhcurveto
          endchar
        </CharString>
        <CharString name="q">
          6 -195 -21 207 54 callsubr
          174 121 hintmask 00000000
          hintmask 11101100
          340 -139 rmoveto
          -55 17 -22 50 vhcurveto
          48 hlineto
          6 7 rlineto
          563 48 callsubr
          -19 29 -18 12 -35 -4 -26 -16 -18 -22 rrcurveto
          hintmask 11101100
          27 55 callgsubr
          -152 58 -104 119 47 44 19 27 33 hvcurveto
          -96 55 rmoveto
          -43 -35 45 109 111 35 57 54 27 30 -15 -25 28 hvcurveto
          -10 vlineto
          -224 vlineto
          -30 -27 -35 -18 -34 hhcurveto
          endchar
        </CharString>
        <CharString name="q.smcp">
          70 -110 89 7 95 386 95 11 callsubr
          264 77 callsubr
          hintmask 01111000
          37 273 rmoveto
          -15 callsubr
          51 -19 78 hhcurveto
          6 6 1 1 6 hvcurveto
          hintmask 10111000
          76 -63 rlineto
          -30 32 30 -5 23 hhcurveto
          45 40 30 59 2 hvcurveto
          -29 2 -40 1 -57 45 -3 1 rcurveline
          22 12 18 16 15 17 rrcurveto
          49 56 16 71 73 -62 callgsubr
          hintmask 01111000
          -6 callgsubr
          129 hmoveto
          -72 callgsubr
          endchar
        </CharString>
        <CharString name="question">
          -122 2 117 470 108 hstemhm
          87 127 -115 102 66 131 hintmask 00000000
          hintmask 11101000
          7 643 rmoveto
          2 -32 21 -40 22 -18 rrcurveto
          20 38 43 16 43 hhcurveto
          58 33 -32 -48 -53 -46 -37 -64 -32 hvcurveto
          hintmask 11011000
          -51 -24 -10 -13 6 -149 rlineto
          -5 15 19 -2 15 hhcurveto
          15 16 2 5 15 hvcurveto
          8 92 62 33 rlineto
          74 40 57 60 96 vvcurveto
          104 -72 71 -122 -73 -69 -23 -31 -55 vhcurveto
          144 -524 rmoveto
          -24 -24 81 callsubr
          -6 -10 -3 -26 -15 vvcurveto
          -16 3 -25 6 -11 vhcurveto
          -8 16 24 -6 24 hhcurveto
          23 25 6 8 15 hvcurveto
          6 11 4 25 66 callsubr
          -4 26 -6 56 callsubr
        </CharString>
        <CharString name="questiondown">
          -122 -203 107 470 117 hstemhm
          12 131 53 127 -114 102 hintmask 00000000
          hintmask 11110000
          403 -150 rmoveto
          -2 33 -21 40 -22 18 rrcurveto
          -20 -38 -43 -17 -43 hhcurveto
          -58 -33 33 48 53 46 36 64 32 hvcurveto
          hintmask 11101000
          51 25 10 13 -6 149 rlineto
          5 -15 -19 1 -15 hhcurveto
          -15 -16 -1 -5 -15 hvcurveto
          -8 -92 -62 -34 rlineto
          -74 -40 -57 -60 -95 vvcurveto
          -104 72 -71 122 73 69 22 31 55 vhcurveto
          -144 524 rmoveto
          24 7 callgsubr
          -24 hhcurveto
          -23 -25 -5 -9 -15 28 callsubr
          15 25 -5 23 hhcurveto
          endchar
        </CharString>
        <CharString name="quotedbl">
          -114 68 callsubr
          44 130 65 77 callsubr
          hintmask 01010000
          239 709 rmoveto
          hintmask 10010000
          -51 callgsubr
          hintmask 00000000
          -195 hmoveto
          hintmask 01100000
          -51 callgsubr
          endchar
        </CharString>
        <CharString name="quotedblbase">
          -73 -9 120 hstemhm
          59 145 65 145 hintmask 11000000
          193 111 rmoveto
          -64 callgsubr
          hintmask 10100000
          210 hmoveto
          -64 callgsubr
          endchar
        </CharString>
        <CharString name="quotedblleft">
          -73 513 119 hstemhm
          39 145 65 145 hintmask 11000000
          51 513 rmoveto
          -64 callsubr
          hintmask 10100000
          210 hmoveto
          -64 callsubr
          endchar
        </CharString>
        <CharString name="quotedblright">
          -73 555 -20 105 120 hstemhm
          60 146 64 146 hintmask 11100000
          194 760 rmoveto
          -63 callgsubr
          hintmask 11010000
          210 hmoveto
          -63 callgsubr
          endchar
        </CharString>
        <CharString name="quoteleft">
          -283 513 119 hstem
          41 145 vstem
          53 513 rmoveto
          -64 callsubr
          endchar
        </CharString>
        <CharString name="quoteright">
          -283 555 -20 105 120 hstem
          57 146 vstem
          191 760 rmoveto
          -63 callgsubr
          endchar
        </CharString>
        <CharString name="quotesinglbase">
          -283 -9 120 hstem
          59 145 vstem
          193 111 rmoveto
          -64 callgsubr
          endchar
        </CharString>
        <CharString name="quotesingle">
          -304 68 callsubr
          42 77 callsubr
          hintmask 01100000
          42 709 rmoveto
          hintmask 10100000
          -51 callgsubr
          endchar
        </CharString>
        <CharString name="r">
          -148 496 -20 hstem
          79 51 callgsubr
          -47 callgsubr
          endchar
        </CharString>
        <CharString name="r.smcp">
          43 callgsubr
          hstem
          36 callsubr
          170 129 vstem
          -99 callgsubr
          endchar
        </CharString>
        <CharString name="racute">
          -148 7 0 114 194 endchar
        </CharString>
        <CharString name="racute.smcp">
          43 callgsubr
          39 212 34 callsubr
          -12 229 -47 129 hintmask 11010100
          -99 callgsubr
          hintmask 00101000
          -12 338 -99 callsubr
        </CharString>
        <CharString name="rcaron">
          -148 6 0 114 207 endchar
        </CharString>
        <CharString name="rcaron.smcp">
          43 callgsubr
          147 -20 34 callsubr
          -81 305 -54 129 hintmask 11010100
          -99 callgsubr
          hintmask 00000000
          -25 486 -88 callgsubr
        </CharString>
        <CharString name="rcommaaccent">
          -148 -24 callgsubr
          548 -20 hstemhm
          79 124 -100 111 hintmask 00011000
          -47 callgsubr
          hintmask 11100100
          162 -497 -93 callsubr
        </CharString>
        <CharString name="rcommaaccent.smcp">
          29 -24 callgsubr
          258 97 156 93 34 callsubr
          40 111 19 129 hintmask 00011101
          -99 callgsubr
          hintmask 11100010
          141 -361 -93 callsubr
        </CharString>
        <CharString name="registered">
          69 210 71 164 53 58 52 65 71 hstem
          31 77 90 67 67 71 85 77 vstem
          31 476 rmoveto
          -149 117 -117 150 149 118 117 149 150 -118 118 -149 -150 -117 -118 -150 vhcurveto
          77 hmoveto
          109 81 88 109 108 82 -88 -109 -108 -82 -87 -108 -109 -81 87 108 vhcurveto
          295 57 rmoveto
          42 -29 33 -70 -31 -38 -2 -1 -34 vhcurveto
          -3 -2 rlineto
          -247 vlineto
          18 -6 32 0 17 6 rrcurveto
          89 16 vlineto
          16 7 -7 -12 6 hvcurveto
          23 -45 rlineto
          -20 10 11 -10 -8 callgsubr
          19 10 15 9 hvcurveto
          -9 6 -7 11 -6 11 -13 25 rcurveline
          -7 14 -9 16 -17 8 rrcurveto
          25 7 26 21 38 vvcurveto
          -138 23 rmoveto
          34 hlineto
          23 10 -13 -16 -16 -10 -13 -27 -6 -12 0 -1 -12 hvcurveto
          endchar
        </CharString>
        <CharString name="ring">
          540 67 106 66 hstem
          70 79 100 79 vstem
          70 660 -65 callgsubr
        </CharString>
        <CharString name="ring.cap">
          664 67 105 67 hstem
          70 79 100 79 vstem
          70 784 -17 callgsubr
        </CharString>
        <CharString name="s">
          59 callsubr
          hstem
          43 123 115 72 callgsubr
          -82 callgsubr
          endchar
        </CharString>
        <CharString name="s.smcp">
          -27 49 callsubr
          hstem
          39 58 callsubr
          vstem
          -95 callgsubr
          endchar
        </CharString>
        <CharString name="sacute">
          59 callsubr
          29 15 callgsubr
          43 123 -27 229 -87 128 hintmask 11010100
          -82 callgsubr
          hintmask 00101000
          113 552 -99 callsubr
        </CharString>
        <CharString name="sacute.smcp">
          -27 49 callsubr
          29 15 callgsubr
          39 132 -2 229 -61 135 hintmask 11010100
          -95 callgsubr
          hintmask 00101000
          145 596 -99 callsubr
        </CharString>
        <CharString name="scaron">
          59 callsubr
          137 -20 hstemhm
          43 123 -96 305 -94 128 hintmask 11010100
          -82 callgsubr
          hintmask 00000000
          100 700 -88 callgsubr
        </CharString>
        <CharString name="scaron.smcp">
          -27 49 callsubr
          137 -20 hstemhm
          39 132 -71 305 -68 135 hintmask 11010100
          -95 callgsubr
          hintmask 00000000
          132 744 -88 callgsubr
        </CharString>
        <CharString name="section">
          -36 -112 92 625 92 -36 -20 hstemhm
          30 120 -85 124 115 123 -85 121 hintmask 00000000
          hintmask 10110010
          463 307 rmoveto
          90 -76 44 -87 36 vhcurveto
          hintmask 11001010
          -58 23 rlineto
          -34 14 -19 15 26 vvcurveto
          30 27 20 38 42 43 -15 -16 38 vhcurveto
          hintmask 10110010
          20 17 17 40 -2 30 rrcurveto
          hintmask 11001010
          20 -43 -62 16 -56 hhcurveto
          -109 -77 -65 -87 -53 27 -38 40 -28 hvcurveto
          hintmask 10110100
          -59 -34 -43 -52 -61 vvcurveto
          -90 75 -44 87 -36 vhcurveto
          58 -23 rlineto
          35 -14 19 -17 -25 vvcurveto
          -30 -27 -20 -41 -51 -49 20 16 -35 vhcurveto
          -20 -15 -18 -41 1 -30 rrcurveto
          -26 44 68 -16 59 hhcurveto
          116 76 65 87 52 -27 39 -40 28 hvcurveto
          hintmask 10110010
          59 35 44 52 61 vvcurveto
          -221 69 rmoveto
          55 -22 45 -25 -43 vvcurveto
          -38 -29 -30 -36 -19 vhcurveto
          -27 11 rlineto
          -58 23 -42 24 43 vvcurveto
          37 29 31 36 18 vhcurveto
          endchar
        </CharString>
        <CharString name="semicolon">
          -244 -8 121 214 108 hstemhm
          63 146 -136 146 hintmask 10010000
          207 -37 callsubr
          hintmask 01100000
          -144 268 rmoveto
          -75 callsubr
          endchar
        </CharString>
        <CharString name="seven">
          3 542 106 -95 95 hstemhm
          146 126 57 callgsubr
          65 648 rmoveto
          -7 -18 -4 -23 -22 vvcurveto
          -14 2 -16 4 -13 vhcurveto
          161 hlineto
          hintmask 01100000
          27 90 4 7 30 hvcurveto
          5 -5 -16 -15 -29 -34 -15 -21 rlinecurve
          -11 -17 -77 -107 -62 -143 -15 -167 rlinecurve
          -4 -44 rlineto
          -4 19 23 -1 22 hhcurveto
          24 22 1 4 17 hvcurveto
          3 40 17 173 52 126 92 133 rlinecurve
          36 50 rlineto
          12 17 6 19 13 vvcurveto
          21 -11 33 -11 23 vhcurveto
          endchar
        </CharString>
        <CharString name="seven.smcp">
          -45 445 103 hstemhm
          46 401 -318 125 77 callgsubr
          58 548 rmoveto
          -7 -18 -5 -19 -22 vvcurveto
          -16 3 -16 3 -12 vhcurveto
          146 hlineto
          29 75 3 5 29 hvcurveto
          3 -3 -13 -13 -16 -17 -10 -12 rlinecurve
          -14 -17 rlineto
          hintmask 10100000
          -87 -107 -52 -113 -12 -151 -2 -20 rcurveline
          -4 19 24 -2 22 hhcurveto
          24 21 2 4 16 hvcurveto
          1 20 8 152 46 97 82 109 rlinecurve
          40 53 rlineto
          11 15 5 12 15 vvcurveto
          19 -11 32 -13 24 vhcurveto
          endchar
        </CharString>
        <CharString name="six">
          3 -14 94 252 102 129 99 hstem
          43 129 194 51 callgsubr
          271 -14 rmoveto
          124 95 88 142 151 -73 67 -109 -54 -46 -21 -30 -36 hvcurveto
          104 4 41 76 99 hhcurveto
          41 34 -10 -11 25 hvcurveto
          25 19 15 36 3 32 rrcurveto
          20 -38 -53 13 -61 hhcurveto
          -171 -93 -130 -208 -190 50 -56 18 -23 hvcurveto
          -23 19 47 -46 94 hhcurveto
          5 346 rmoveto
          53 37 -32 -92 -75 -31 -53 -62 -30 -21 15 18 -14 hvcurveto
          -26 34 -10 64 61 vvcurveto
          14 vlineto
          29 30 38 17 36 hhcurveto
          endchar
        </CharString>
        <CharString name="six.smcp">
          -45 -14 90 188 94 111 93 hstem
          41 125 157 65 callsubr
          247 -14 rmoveto
          113 84 74 121 109 -53 68 -108 -45 -39 -14 -22 -33 hvcurveto
          88 4 33 59 84 hhcurveto
          35 34 -9 -8 22 hvcurveto
          22 19 14 29 4 33 rrcurveto
          17 -34 -56 12 -48 hhcurveto
          -153 -86 -106 -175 -97 14 -92 55 -56 hvcurveto
          -31 32 44 -19 61 hhcurveto
          4 278 rmoveto
          44 28 -29 -66 -59 -27 -34 -47 -26 -18 11 14 -11 hvcurveto
          -20 26 -8 46 47 vvcurveto
          15 vlineto
          17 26 30 12 29 hhcurveto
          endchar
        </CharString>
        <CharString name="slash">
          -94 -114 878 hstem
          5 421 vstem
          5 -74 rmoveto
          30 -24 40 -13 36 -3 315 838 rcurveline
          -30 23 -40 13 -36 4 rrcurveto
          endchar
        </CharString>
        <CharString name="space">
          -307 endchar
        </CharString>
        <CharString name="sterling">
          6 -1 104 159 92 205 103 hstemhm
          72 123 -67 114 hintmask 00000000
          hintmask 11110000
          405 354 rmoveto
          -65 -61 -1 -52 hhcurveto
          -14 40 -18 37 42 vvcurveto
          56 41 31 52 43 51 -21 -31 37 vhcurveto
          33 10 27 36 5 32 rrcurveto
          35 -39 -74 42 -92 hhcurveto
          -142 -65 -98 -83 -48 21 -39 17 -41 hvcurveto
          hintmask 11101000
          -19 -20 50 callsubr
          -9 -26 0 -41 9 -25 rrcurveto
          74 hlineto
          -3 -45 -23 -40 -20 -28 -14 -23 rcurveline
          -12 -16 -4 -15 -18 vvcurveto
          -12 1 -10 14 -56 vhcurveto
          347 hlineto
          46 30 21 40 7 hvcurveto
          3 16 0 12 15 vvcurveto
          -161 hlineto
          -66 -46 -3 -3 -43 hvcurveto
          -3 3 28 38 30 62 3 63 rlinecurve
          -1 54 54 0 55 hhcurveto
          hintmask 11110000
          8 26 0 41 -8 25 rrcurveto
          endchar
        </CharString>
        <CharString name="sterling.smcp">
          -54 -1 101 124 84 154 100 -67 -20 hstemhm
          45 180 -159 119 hintmask 00000000
          hintmask 11100100
          362 308 rmoveto
          -55 -53 -1 -45 hhcurveto
          -12 29 -12 30 28 vvcurveto
          43 31 25 42 38 42 -19 -23 32 vhcurveto
          hintmask 11010100
          29 12 24 33 8 30 rrcurveto
          hintmask 11100100
          34 -36 -66 33 -82 hhcurveto
          -115 -66 -77 -78 -37 15 -33 13 -29 hvcurveto
          -43 hlineto
          -8 -22 0 -39 8 -23 rrcurveto
          hintmask 11101000
          62 hlineto
          -4 -28 -14 -26 -18 -31 -12 -19 rcurveline
          -10 -16 -6 -16 -15 vvcurveto
          -16 5 -16 10 -42 vhcurveto
          296 55 callsubr
          10 15 vvcurveto
          -126 hlineto
          -65 -46 -2 -4 -31 hvcurveto
          -3 2 26 35 23 50 3 44 rlinecurve
          -1 46 44 0 47 hhcurveto
          hintmask 11100100
          9 24 0 38 -9 22 rrcurveto
          endchar
        </CharString>
        <CharString name="t">
          -167 -5 97 316 89 151 -20 hstem
          90 65 callsubr
          -56 callgsubr
          endchar
        </CharString>
        <CharString name="t.smcp">
          -80 445 103 hstem
          164 37 callgsubr
          -45 callgsubr
          endchar
        </CharString>
        <CharString name="tcaron">
          -144 -5 97 316 89 57 9 85 -20 141 20 hstemhm
          90 121 61 120 hintmask 11010100
          -56 callgsubr
          hintmask 00101010
          -61 66 -14 callsubr
        </CharString>
        <CharString name="tcaron.smcp">
          -80 445 103 151 -20 hstemhm
          76 305 -217 126 hintmask 10010000
          -45 callgsubr
          hintmask 00000000
          -32 402 -43 callgsubr
          hintmask 01100000
          -90 callgsubr
        </CharString>
        <CharString name="thorn">
          3 75 callsubr
          318 101 hstemhm
          71 119 175 126 hintmask 00000000
          hintmask 01111100
          491 260 rmoveto
          142 -64 103 -111 -49 -44 -20 -29 -33 vhcurveto
          203 vlineto
          33 callgsubr
          -45 -6 callsubr
          -938 vlineto
          7 -7 rlineto
          hintmask 10111100
          45 hlineto
          51 16 22 55 hvcurveto
          158 vlineto
          -17 33 37 -11 39 hhcurveto
          hintmask 01111100
          94 98 81 188 hvcurveto
          -205 144 rmoveto
          43 36 -43 -108 -111 -36 -56 -52 -27 -32 13 19 -28 hvcurveto
          230 vlineto
          41 29 37 15 30 hhcurveto
          endchar
        </CharString>
        <CharString name="thorn.smcp">
          -4 98 95 179 176 69 callgsubr
          79 hmoveto
          -4 19 27 7 callsubr
          19 24 -21 callsubr
          98 73 vlineto
          125 91 60 125 129 -91 56 -125 -25 -24 -1 -1 -24 hvcurveto
          82 vlineto
          4 -21 -24 1 -19 hhcurveto
          -16 37 callsubr
          -19 hvcurveto
          191 -176 rmoveto
          77 17 -48 -41 -41 -17 -49 -77 -11 -28 0 -1 -26 hvcurveto
          181 vlineto
          -1 26 26 0 13 hhcurveto
          endchar
        </CharString>
        <CharString name="three">
          3 -14 101 225 79 151 106 -101 -20 hstemhm
          353 128 hintmask 00000000
          hintmask 10101000
          432 519 rmoveto
          18 19 6 16 18 vvcurveto
          27 -14 28 -11 21 vhcurveto
          -354 hlineto
          -9 -21 -2 -21 -17 vvcurveto
          -11 1 -17 7 -19 vhcurveto
          134 hlineto
          hintmask 11011000
          28 57 5 6 23 hvcurveto
          4 -6 -17 -13 -35 -34 -16 -17 rlinecurve
          -113 -120 8 -27 19 -29 21 -10 rlinecurve
          9 19 23 6 21 hhcurveto
          61 42 -38 -67 -77 -50 -43 -70 -53 -46 21 29 -37 hvcurveto
          -25 -20 -22 -33 -6 -29 rrcurveto
          -39 45 72 -30 88 hhcurveto
          119 113 74 142 119 -78 63 -99 7 hvcurveto
          12 9 12 10 10 10 rrcurveto
          endchar
        </CharString>
        <CharString name="three.smcp">
          -45 -14 99 168 76 118 101 hstem
          310 65 callgsubr
          389 425 rmoveto
          15 14 8 16 17 vvcurveto
          22 -12 31 -12 23 vhcurveto
          -321 hlineto
          -9 -20 -2 -22 -15 vvcurveto
          -10 1 -14 7 -20 vhcurveto
          111 hlineto
          22 56 2 5 22 hvcurveto
          3 -4 -13 -10 -31 -25 -16 -15 rlinecurve
          -96 -91 6 -23 22 -33 23 -11 rlinecurve
          6 15 18 5 19 hhcurveto
          53 32 -33 -46 -58 -42 -31 -57 -41 -42 16 25 -36 hvcurveto
          -26 -18 -20 -35 -5 -28 rrcurveto
          -34 42 66 -25 76 hhcurveto
          108 104 65 119 93 -68 59 -87 7 hvcurveto
          13 8 11 9 10 9 rrcurveto
          endchar
        </CharString>
        <CharString name="threequarters">
          461 0 -20 99 87 77 84 123 63 85 87 hstemhm
          248 108 -96 497 23 100 hintmask 10000010
          260 hmoveto
          -42 callsubr
          hintmask 00111100
          -319 -102 -63 callsubr
          hintmask 01000001
          515 -527 rmoveto
          -4 17 19 7 callsubr
          14 19 1 74 callgsubr
          74 53 vlineto
          5 16 3 19 18 vvcurveto
          11 -1 12 -3 11 vhcurveto
          -57 117 hlineto
          -3 4 rlineto
          -27 hlineto
          -43 -27 -29 -46 hvcurveto
          -46 vlineto
          -15 -37 -1 -3 -26 hvcurveto
          -2 2 21 27 26 53 14 32 rlinecurve
          66 144 -21 17 -46 9 -32 -3 rlinecurve
          -116 -255 rlineto
          -5 -11 -9 -20 -16 vvcurveto
          -18 10 -25 12 -20 vhcurveto
          114 hlineto
          18 12 1 16 hhcurveto
          endchar
        </CharString>
        <CharString name="threesuperior">
          -107 326 84 123 63 85 87 hstem
          247 108 vstem
          317 664 -63 callsubr
          endchar
        </CharString>
        <CharString name="tilde">
          555 98 -47 98 hstemhm
          18 362 57 callgsubr
          206 572 -79 callgsubr
        </CharString>
        <CharString name="tilde.cap">
          741 97 -47 98 hstemhm
          11 376 57 callgsubr
          206 757 -49 callgsubr
        </CharString>
        <CharString name="two">
          3 -1 108 400 -20 73 102 hstem
          337 65 callgsubr
          480 107 rmoveto
          -166 hlineto
          -36 -53 -3 -6 -51 hvcurveto
          11 27 39 39 42 36 75 64 rcurveline
          65 55 58 56 94 vvcurveto
          115 -79 78 -123 -106 -74 -71 -84 -27 vhcurveto
          -25 15 43 -14 30 hhcurveto
          49 18 37 43 52 hhcurveto
          52 35 -36 -52 -49 -27 -36 -40 -35 hvcurveto
          -102 -90 rlineto
          -64 -57 -57 -66 -63 vvcurveto
          -26 30 -35 16 -16 vhcurveto
          306 hlineto
          46 26 20 41 6 hvcurveto
          2 14 1 19 14 vvcurveto
          endchar
        </CharString>
        <CharString name="two.smcp">
          -45 -1 104 356 103 hstem
          293 125 vstem
          435 103 rmoveto
          -136 hlineto
          -29 -49 -3 -7 -48 hvcurveto
          9 20 31 26 31 25 70 57 rcurveline
          56 45 48 55 70 vvcurveto
          98 -71 73 -113 -92 -68 -61 -74 -23 vhcurveto
          15 -23 38 -18 34 -1 rrcurveto
          40 16 31 34 42 hhcurveto
          40 26 -30 -36 -33 -20 -29 -31 -25 hvcurveto
          -92 -79 rlineto
          -55 -47 -51 -59 -49 vvcurveto
          -25 28 -34 16 -14 vhcurveto
          268 hlineto
          44 26 19 39 6 hvcurveto
          3 13 0 22 11 vvcurveto
          endchar
        </CharString>
        <CharString name="twosuperior">
          -107 330 93 259 93 hstem
          238 110 vstem
          360 423 -54 callsubr
        </CharString>
        <CharString name="u">
          44 callgsubr
          hstem
          67 124 160 51 callgsubr
          -80 callsubr
          endchar
        </CharString>
        <CharString name="u.smcp">
          -10 callsubr
          47 callgsubr
          217 32 callsubr
          hintmask 11011000
          20 callsubr
          hintmask 10111000
          -92 callsubr
          endchar
        </CharString>
        <CharString name="uacute">
          44 callgsubr
          43 15 callgsubr
          67 124 -6 229 -63 124 hintmask 11010100
          -80 callsubr
          hintmask 00101000
          118 205 -99 callsubr
        </CharString>
        <CharString name="uacute.smcp">
          25 callsubr
          23 229 -35 -73 callgsubr
          -319 441 -99 callsubr
        </CharString>
        <CharString name="ucircumflex">
          21 68 0 117 195 endchar
        </CharString>
        <CharString name="ucircumflex.smcp">
          -10 callsubr
          157 94 47 callgsubr
          -47 304 -40 -73 callgsubr
          -141 401 -89 callgsubr
        </CharString>
        <CharString name="udieresis">
          44 callgsubr
          77 87 hstemhm
          67 124 -83 0 callsubr
          -67 124 hintmask 11010010
          -80 callsubr
          hintmask 00101100
          233 234 -107 callgsubr
        </CharString>
        <CharString name="udieresis.smcp">
          -10 callsubr
          92 87 47 callgsubr
          -54 0 callsubr
          -39 32 callsubr
          hintmask 11001001
          20 callsubr
          hintmask 10101001
          -92 callsubr
          hintmask 00010110
          -204 470 -107 callgsubr
        </CharString>
        <CharString name="ugrave">
          21 69 0 117 193 endchar
        </CharString>
        <CharString name="ugrave.smcp">
          25 callsubr
          -33 230 20 -73 callgsubr
          -294 604 -65 callsubr
        </CharString>
        <CharString name="underscore">
          16 -164 95 hstem
          -6 555 vstem
          544 -164 rmoveto
          30 callgsubr
          12 70 callsubr
          -545 81 callgsubr
          -20 -11 vvcurveto
          -13 1 -19 52 callsubr
          endchar
        </CharString>
        <CharString name="uni00AD">
          -28 callgsubr
        </CharString>
        <CharString name="uring">
          21 68 0 117 202 endchar
        </CharString>
        <CharString name="uring.smcp">
          -10 callsubr
          59 67 106 66 47 callgsubr
          -24 79 100 79 -17 125 hintmask 0000000000000000
          hintmask 1100010010000000
          20 callsubr
          hintmask 1010010010000000
          -92 callsubr
          hintmask 0001101100000000
          -366 513 -65 callgsubr
        </CharString>
        <CharString name="v">
          -62 -6 103 403 -20 24 -20 hstemhm
          2 458 hintmask 00000000
          hintmask 10110000
          241 97 rmoveto
          -6 -2 1 7 -1 hvcurveto
          -7 31 -12 60 -14 46 -58 206 rcurveline
          41 -10 -22 15 -37 hhcurveto
          -21 -25 -7 -11 -24 hvcurveto
          131 -427 rlineto
          -54 16 24 -11 48 hhcurveto
          30 34 2 4 27 hvcurveto
          37 112 67 223 44 150 -4 6 rcurveline
          hintmask 11010000
          7 -19 -22 2 -22 hhcurveto
          -15 -15 -1 -3 -16 hvcurveto
          endchar
        </CharString>
        <CharString name="v.smcp">
          -1 -5 103 455 -20 21 -20 hstemhm
          10 508 hintmask 00000000
          hintmask 10110000
          274 98 rmoveto
          -4 -3 0 9 -2 hvcurveto
          -12 59 -14 55 -14 48 -72 226 rcurveline
          45 -13 -20 14 -37 hhcurveto
          -25 -25 -5 -10 -23 hvcurveto
          153 -488 rlineto
          -48 14 30 -8 42 hhcurveto
          31 41 1 4 26 hvcurveto
          hintmask 11010000
          171 538 -5 6 rlineto
          7 -23 -22 2 -18 hhcurveto
          -15 -15 60 callsubr
          endchar
        </CharString>
        <CharString name="w">
          209 -5 97 291 109 9 -20 23 -20 hstemhm
          16 706 hintmask 00000000
          hintmask 10011000
          117 58 rmoveto
          -53 12 25 -10 44 hhcurveto
          30 40 1 4 27 hvcurveto
          35 184 rlineto
          hintmask 11001000
          10 52 15 77 10 70 rrcurveto
          6 hlineto
          11 -70 13 -78 9 -52 24 -127 rcurveline
          -53 9 26 -8 47 hhcurveto
          29 39 1 4 24 hvcurveto
          hintmask 10101000
          120 484 -4 7 rlineto
          8 -16 -29 2 -18 hhcurveto
          -17 -20 -2 -3 -13 hvcurveto
          -51 -234 -13 -60 -10 -57 -10 -53 rlinecurve
          -5 -1 1 7 -2 hvcurveto
          hintmask 11001000
          -71 392 rlineto
          5 -19 -38 50 callsubr
          -16 -37 -1 -5 -20 hvcurveto
          -73 -400 rlineto
          -5 -1 1 7 -2 hvcurveto
          -5 37 -11 62 -14 63 -39 190 rcurveline
          35 -8 -15 17 -36 hhcurveto
          -21 -24 -5 -11 -25 hvcurveto
          endchar
        </CharString>
        <CharString name="w.smcp">
          265 -7 108 326 113 12 -20 22 -20 hstemhm
          23 748 hintmask 00000000
          hintmask 10011000
          130 50 rmoveto
          -49 10 30 -7 39 hhcurveto
          34 45 2 4 26 hvcurveto
          48 233 rlineto
          hintmask 11001000
          12 62 12 79 9 53 rrcurveto
          6 hlineto
          8 -53 12 -81 11 -60 35 -184 rcurveline
          -48 9 31 -8 36 hhcurveto
          32 48 2 5 26 hvcurveto
          hintmask 10011000
          122 536 -6 7 rlineto
          hintmask 10101000
          6 -17 -23 3 -21 hhcurveto
          -17 -19 0 -5 -19 hvcurveto
          -59 -293 -9 -41 -11 -65 -6 -47 rlinecurve
          -5 -2 0 11 -2 hvcurveto
          hintmask 11001000
          -77 428 rlineto
          4 -23 -31 2 -24 hhcurveto
          -24 -31 -2 -4 -23 hvcurveto
          -85 -439 rlineto
          -6 -1 1 10 -1 hvcurveto
          -6 40 -11 62 -7 39 -45 232 rcurveline
          51 -10 -14 18 -42 hhcurveto
          -22 -30 -5 -8 -19 hvcurveto
          endchar
        </CharString>
        <CharString name="x">
          -59 501 -20 24 -20 hstemhm
          10 451 57 callgsubr
          328 496 rmoveto
          -86 -141 rlineto
          hintmask 01100000
          -73 112 rlineto
          25 -16 -16 13 -31 hhcurveto
          -26 -32 -10 -18 -26 hvcurveto
          144 -222 -156 -242 4 -9 rlineto
          -7 17 23 -3 24 hhcurveto
          18 20 2 4 12 hvcurveto
          98 162 86 -133 rlineto
          -25 16 17 -12 31 hhcurveto
          28 33 12 16 24 hvcurveto
          -160 244 141 219 -3 9 rlineto
          hintmask 10100000
          5 -17 -21 4 -23 hhcurveto
          -18 -19 -2 -3 -13 hvcurveto
          endchar
        </CharString>
        <CharString name="x.smcp">
          7 553 -20 22 -20 hstemhm
          8 517 57 callgsubr
          382 548 rmoveto
          -107 -162 rlineto
          hintmask 01100000
          -81 119 rlineto
          35 -23 -20 15 -35 hhcurveto
          -21 -33 -6 -20 -32 hvcurveto
          163 -241 -185 -277 5 -7 rlineto
          -6 18 21 -3 25 hhcurveto
          18 23 2 3 14 hvcurveto
          126 193 102 -150 rlineto
          -35 23 22 -15 34 hhcurveto
          20 36 5 22 30 hvcurveto
          -186 273 163 244 -2 7 rlineto
          hintmask 10100000
          6 -19 -26 3 -18 hhcurveto
          -18 -22 -1 -4 -15 hvcurveto
          endchar
        </CharString>
        <CharString name="y">
          69 callsubr
          hstemhm
          4 466 hintmask 00000000
          hintmask 11010000
          -14 callgsubr
          hintmask 10110000
          -39 callgsubr
          endchar
        </CharString>
        <CharString name="y.smcp">
          -71 555 -20 hstem
          166 51 callgsubr
          -78 callsubr
          endchar
        </CharString>
        <CharString name="yacute">
          -48 41 0 121 194 endchar
        </CharString>
        <CharString name="yacute.smcp">
          -71 555 -20 56 15 callgsubr
          149 229 -212 124 hintmask 10010000
          -78 callsubr
          hintmask 01100000
          -188 93 -99 callsubr
        </CharString>
        <CharString name="ydieresis">
          69 callsubr
          89 87 hstemhm
          4 466 -391 0 callsubr
          hintmask 00000000
          hintmask 11001000
          -14 callgsubr
          hintmask 10101000
          -39 callgsubr
          hintmask 00010110
          -70 602 -107 callgsubr
        </CharString>
        <CharString name="ydieresis.smcp">
          -71 555 -20 90 87 hstemhm
          72 118 -24 124 -26 118 hintmask 10010000
          -78 callsubr
          hintmask 01101000
          -73 122 -107 callgsubr
        </CharString>
        <CharString name="yen">
          1 162 81 74 81 237 20 hstem
          202 122 vstem
          472 162 rmoveto
          4 16 2 6 18 vvcurveto
          20 -2 5 70 callsubr
          -143 hlineto
          33 74 rlineto
          110 hlineto
          4 15 2 6 19 vvcurveto
          19 -2 5 24 callsubr
          -73 hlineto
          111 243 -5 7 rlineto
          6 -23 -17 1 -20 hhcurveto
          -17 -15 -1 -5 -18 hvcurveto
          -79 -186 -14 -31 -20 -56 -12 -38 rlinecurve
          -5 hlineto
          -11 34 -20 60 -12 29 -63 153 rcurveline
          29 -12 -13 15 -34 hhcurveto
          -24 -28 -8 -15 -27 hvcurveto
          106 -237 rlineto
          -74 hlineto
          -4 -17 -2 -7 -17 vvcurveto
          -18 2 -7 38 callsubr
          111 hlineto
          33 -74 rlineto
          -144 hlineto
          -4 -16 -2 -7 -18 vvcurveto
          -18 2 -6 52 callsubr
          149 -162 hlineto
          -4 19 25 -1 17 hhcurveto
          19 21 -21 callsubr
          162 vlineto
          endchar
        </CharString>
        <CharString name="yen.smcp">
          -52 130 74 60 74 196 20 hstem
          177 118 vstem
          430 130 rmoveto
          4 15 1 5 16 vvcurveto
          17 -1 6 -4 15 vhcurveto
          -129 hlineto
          28 60 rlineto
          101 hlineto
          4 16 1 4 16 vvcurveto
          17 -1 5 70 callsubr
          -65 hlineto
          96 202 -5 7 rlineto
          6 -23 -15 14 callsubr
          -17 -19 -1 -5 -18 hvcurveto
          -70 -162 -12 -28 -12 -31 -9 -34 rlinecurve
          -5 hlineto
          -9 31 -11 35 -12 28 -55 130 rcurveline
          25 -11 -15 15 -29 hhcurveto
          -26 -28 -10 -13 -25 hvcurveto
          91 -196 rlineto
          -67 82 callsubr
          -8 -15 vvcurveto
          -16 1 -4 52 callsubr
          102 hlineto
          28 -60 rlineto
          -130 82 callsubr
          -8 6 callsubr
          1 -6 38 callsubr
          136 -130 hlineto
          -4 18 26 80 callsubr
          20 -48 callsubr
          130 vlineto
          endchar
        </CharString>
        <CharString name="z">
          -80 0 94 308 94 hstem
          31 387 vstem
          -61 callsubr
          endchar
        </CharString>
        <CharString name="z.smcp">
          31 callgsubr
          hstem
          38 436 vstem
          -98 callsubr
          endchar
        </CharString>
        <CharString name="zacute">
          -80 27 0 122 194 endchar
        </CharString>
        <CharString name="zacute.smcp">
          31 callgsubr
          43 15 callgsubr
          38 436 -296 229 hintmask 11010000
          -98 callsubr
          hintmask 00101000
          -81 267 -99 callsubr
        </CharString>
        <CharString name="zcaron">
          -80 26 0 122 207 endchar
        </CharString>
        <CharString name="zcaron.smcp">
          31 callgsubr
          151 -20 hstemhm
          38 436 -365 305 hintmask 11010000
          -98 callsubr
          hintmask 00000000
          -94 415 -88 callgsubr
        </CharString>
        <CharString name="zdotaccent">
          -80 0 94 308 94 90 99 hstemhm
          31 387 -266 136 hintmask 11010000
          -61 callsubr
          hintmask 00101000
          -43 327 -90 callsubr
          endchar
        </CharString>
        <CharString name="zdotaccent.smcp">
          31 callgsubr
          90 99 hstemhm
          38 436 -287 136 hintmask 11010000
          -98 callsubr
          hintmask 00101000
          -72 315 -90 callsubr
          endchar
        </CharString>
        <CharString name="zero">
          3 -14 96 484 96 hstem
          40 128 194 72 callgsubr
          40 324 rmoveto
          -119 11 -91 61 -67 vhcurveto
          -36 36 43 -25 74 hhcurveto
          74 43 25 36 36 hvcurveto
          61 67 11 91 119 vvcurveto
          119 -11 91 -61 67 vhcurveto
          36 -36 -42 25 -75 hhcurveto
          -74 -43 -25 -36 -36 hvcurveto
          -62 -67 -10 -91 -119 vvcurveto
          128 hmoveto
          107 9 64 22 34 vhcurveto
          25 14 24 12 28 hhcurveto
          29 23 -12 -25 14 hvcurveto
          22 -34 9 -64 -107 vvcurveto
          -107 -9 -64 -22 -34 vhcurveto
          -25 -14 -23 -12 -29 hhcurveto
          -28 -24 12 25 -14 hvcurveto
          -22 34 -9 64 107 vvcurveto
          endchar
        </CharString>
        <CharString name="zero.smcp">
          -45 -14 92 392 92 hstem
          39 124 157 123 vstem
          39 274 rmoveto
          -88 6 -92 56 -54 vhcurveto
          -32 32 39 -22 69 hhcurveto
          69 39 22 32 32 hvcurveto
          56 54 6 92 88 vvcurveto
          89 -6 91 -56 55 vhcurveto
          31 -32 -38 22 -70 hhcurveto
          -69 -39 -22 -31 -32 hvcurveto
          -56 -54 -6 -92 -89 vvcurveto
          124 hmoveto
          88 6 58 18 24 vhcurveto
          16 12 17 10 25 hhcurveto
          26 17 -10 -16 11 hvcurveto
          19 -24 6 -58 -88 vvcurveto
          -88 -6 -57 -19 -25 vhcurveto
          -16 -11 -18 -10 -25 hhcurveto
          -25 -17 10 16 -12 hvcurveto
          -18 25 -6 57 88 vvcurveto
          endchar
        </CharString>
      <CharString index="0">
        52 callgsubr
        -18 5 -95 callsubr
        6 13 2 19 -5 callsubr
        -2 17 -6 -94 callgsubr
        -5 -14 -3 -17 -12 vvcurveto
        -192 hmoveto
        -12 2 -18 6 -95 callsubr
        5 13 3 19 62 callgsubr
        17 -5 -94 callgsubr
        -6 -14 -2 -17 -12 vvcurveto
        endchar
      </CharString>
      <CharString index="1">
        rmoveto
        -26 -16 -6 -8 -13 hvcurveto
        -9 -12 -3 -17 6 callsubr
        3 -19 9 -11 vhcurveto
        -9 13 16 -5 26 hhcurveto
        20 19 5 9 13 hvcurveto
        8 -49 callsubr
        -8 12 vhcurveto
        8 -13 -19 6 -20 hhcurveto
        -222 hmoveto
        -22 -18 -6 -8 -12 hvcurveto
        -8 -12 -2 -17 6 callsubr
        2 -19 8 -11 vhcurveto
        -9 12 18 -5 22 hhcurveto
        24 18 5 9 13 hvcurveto
        9 -49 callsubr
        -9 12 vhcurveto
        8 -13 -18 6 -24 hhcurveto
        endchar
      </CharString>
      <CharString index="2">
        526 106 rmoveto
        -248 hlineto
        -26 -22 -1 -1 -21 hvcurveto
        22 1 16 21 vvcurveto
        130 vlineto
        -1 24 25 -75 callgsubr
        -25 -50 callsubr
        65 hlineto
        225 hlineto
        6 -40 callsubr
        -413 -6 callsubr
        -601 vlineto
        -48 28 -29 45 vhcurveto
        return
      </CharString>
      <CharString index="3">
        266 101 rmoveto
        -27 -17 -1 -1 -19 hvcurveto
        18 1 13 21 vvcurveto
        77 -16 callgsubr
        20 -55 callgsubr
        68 67 callgsubr
        14 18 vvcurveto
        59 hlineto
        192 hlineto
        7 18 -73 callsubr
        246 hlineto
        46 -33 callsubr
        return
      </CharString>
      <CharString index="4">
        hintmask 11101000
        -106 callsubr
        return
      </CharString>
      <CharString index="5">
        hintmask 11101000
        -105 callsubr
        return
      </CharString>
      <CharString index="6">
        hintmask 11101000
        -104 callgsubr
        return
      </CharString>
      <CharString index="7">
        -28 44 81 -30 103 hhcurveto
        130 1 90 64 105 vvcurveto
        80 -60 55 -85 30 vhcurveto
        -95 34 rlineto
        -38 13 -23 11 27 vvcurveto
        32 27 23 48 vhcurveto
        49 1 64 -16 51 -22 rrcurveto
        26 20 16 39 36 vvcurveto
        22 -50 -80 21 -74 hhcurveto
        -131 -1 -78 -71 -96 vvcurveto
        -77 60 -45 78 -27 vhcurveto
        97 -34 rlineto
        44 -15 19 -22 -27 vvcurveto
        -38 -38 -23 -48 vhcurveto
        -67 -1 -64 25 -49 27 rrcurveto
        -26 -17 -21 -44 -32 vvcurveto
        return
      </CharString>
      <CharString index="8">
        503 385 rmoveto
        118 -91 49 -122 -67 -64 -2 -2 -74 vhcurveto
        51 callsubr
        -543 vlineto
        -4 20 27 -56 callsubr
        206 45 vlineto
        43 20 -11 -36 15 hvcurveto
        47 -107 rlineto
        -41 18 19 -19 39 hhcurveto
        35 33 18 21 16 hvcurveto
        -16 15 -15 24 -12 26 -32 75 rcurveline
        -16 36 -20 23 -35 12 rrcurveto
        59 14 56 55 74 vvcurveto
        -299 75 rmoveto
        -1 27 28 0 26 hhcurveto
        68 21 -38 -39 -38 -20 -41 -74 -16 -30 0 -1 -30 hvcurveto
        return
      </CharString>
      <CharString index="9">
        470 56 rmoveto
        -22 18 -6 25 -85 callsubr
        65 49 30 34 35 hvcurveto
        17 -30 28 -23 46 -5 18 13 19 29 6 22 rrcurveto
        -251 25 -52 callsubr
        return
      </CharString>
      <CharString index="10">
        60 129 rmoveto
        -11 -16 -5 -18 -17 vvcurveto
        -11 1 -11 14 -56 vhcurveto
        381 hlineto
        53 32 23 46 20 -4 23 -5 16 hvcurveto
        -12 -27 -38 -8 -51 hhcurveto
        -85 hlineto
        -36 -54 -3 -3 -42 hvcurveto
        -3 3 26 31 32 40 20 31 rlinecurve
        240 348 rlineto
        12 17 4 16 15 vvcurveto
        11 -2 11 -16 58 vhcurveto
        -424 hlineto
        -6 -22 -3 -18 -23 vvcurveto
        -13 1 -15 38 callsubr
        154 hlineto
        34 83 3 6 38 hvcurveto
        3 -3 -27 -34 -32 -40 -20 -29 rlinecurve
        return
      </CharString>
      <CharString index="11">
        36 callgsubr
        -35 38 -57 vhcurveto
        -16 hlineto
        -18 -28 -1 -3 -27 -67 callsubr
        12 hlineto
        34 11 -20 -34 hvcurveto
        -353 -66 callgsubr
        return
      </CharString>
      <CharString index="12">
        24 44 rmoveto
        -100 callgsubr
        return
      </CharString>
      <CharString index="13">
        1 callgsubr
        -14 -22 6 -19 hhcurveto
        -18 -23 -31 callgsubr
        return
      </CharString>
      <CharString index="14">
        -50 26 rlineto
        8 -16 -21 8 -22 hhcurveto
        -48 -38 -32 -47 -21 63 callsubr
        8 -22 28 -15 23 -1 rlinecurve
        10 14 rlineto
        16 12 12 9 13 -45 callsubr
      </CharString>
      <CharString index="15">
        rmoveto
        -17 -7 -26 -20 -8 -26 112 -108 rcurveline
        29 -5 48 -1 30 7 117 117 rcurveline
        -6 24 -29 22 -18 6 -117 -84 rcurveline
        endchar
      </CharString>
      <CharString index="16">
        rmoveto
        -9 16 21 -8 22 hhcurveto
        46 40 30 49 21 hvcurveto
        8 20 -9 22 -27 15 -23 -34 callgsubr
        -12 -9 -13 -34 callsubr
        return
      </CharString>
      <CharString index="17">
        95 -126 28 -8 47 -2 28 11 rlinecurve
        107 135 -14 25 -23 18 -19 7 rlinecurve
        -100 -97 rlineto
        endchar
      </CharString>
      <CharString index="18">
        rmoveto
        18 7 27 19 11 27 -95 126 rcurveline
        -29 7 -47 1 -27 -9 -106 -134 rcurveline
        14 -25 23 -17 19 -8 99 96 rcurveline
        endchar
      </CharString>
      <CharString index="19">
        -43 callgsubr
        hintmask 00101000
        -90 callgsubr
      </CharString>
      <CharString index="20">
        rmoveto
        13 43 20 70 10 49 rrcurveto
        5 hlineto
        15 -58 21 -75 18 -58 34 -112 rcurveline
        -15 -21 1 -8 hhcurveto
        -89 hlineto
        -9 -23 -1 -15 hhcurveto
        return
      </CharString>
      <CharString index="21">
        118 hintmask 10101000
        595 688 rmoveto
        -42 hlineto
        -50 -20 -21 -57 hvcurveto
        -200 vlineto
        -69 4 -114 6 -85 vhcurveto
        -3 -1 -18 39 -22 53 -26 55 rlinecurve
        -189 395 rlineto
        4 -26 -32 50 callsubr
        -15 -40 -2 -5 -20 hvcurveto
        -681 48 callgsubr
        24 7 callsubr
        16 21 -21 callsubr
        268 vlineto
        78 -4 113 -6 75 vhcurveto
        4 1 17 -41 20 -48 24 -50 rlinecurve
        191 -396 rlineto
        -4 27 32 7 callsubr
        16 41 2 5 20 hvcurveto
        680 vlineto
        return
      </CharString>
      <CharString index="22">
        rmoveto
        14 42 17 64 13 47 rrcurveto
        5 hlineto
        13 -49 19 -69 15 -47 24 -72 rcurveline
        -11 -15 1 -8 hhcurveto
        -76 hlineto
        -9 -18 -1 -12 hhcurveto
        return
      </CharString>
      <CharString index="23">
        rmoveto
        18 7 25 20 9 26 -113 108 rcurveline
        -29 5 -47 1 -31 -7 -115 -116 rcurveline
        6 -23 28 -24 18 -6 117 84 rcurveline
        endchar
      </CharString>
      <CharString index="24">
        236 156 rmoveto
        -23 callsubr
        30 -97 rlineto
        -53 16 19 -15 41 hhcurveto
        25 30 6 10 18 hvcurveto
        -221 674 rlineto
        return
      </CharString>
      <CharString index="25">
        26 36 rmoveto
        -26 45 68 -24 75 hhcurveto
        116 79 59 96 80 -54 46 -75 28 hvcurveto
        -61 23 rlineto
        -36 13 -17 14 24 vvcurveto
        29 23 19 38 48 50 -17 -17 37 vhcurveto
        21 17 16 41 -1 30 rrcurveto
        20 -43 -73 19 -56 hhcurveto
        -107 -76 -60 -95 -78 57 -41 69 -26 hvcurveto
        56 -21 rlineto
        38 -14 18 -21 -25 vvcurveto
        -30 -29 -21 -48 -44 -53 20 23 -43 vhcurveto
        -20 -19 -17 -39 -1 -27 rrcurveto
        return
      </CharString>
      <CharString index="26">
        112 -14 95 297 96 130 95 hstem
        101 126 206 37 callgsubr
        101 hmoveto
        -3 19 24 -2 20 hhcurveto
        20 25 2 3 18 hvcurveto
        490 vlineto
        70 30 44 71 70 35 -51 -60 -11 -1 -10 -2 -11 vhcurveto
        -59 -25 -34 -48 -45 vvcurveto
        -42 23 -33 41 -37 vhcurveto
        41 -36 rlineto
        21 -19 15 -19 -23 vvcurveto
        -32 -30 -21 -42 -22 -29 6 15 -28 vhcurveto
        -21 -19 -16 -41 -1 -27 rrcurveto
        -19 39 52 -10 38 hhcurveto
        112 79 57 92 45 -28 44 -45 43 hvcurveto
        -37 34 rlineto
        -22 19 -9 15 16 vvcurveto
        23 21 32 54 12 vhcurveto
        -2 1 rlineto
        2 hlineto
        10 26 6 28 23 vvcurveto
        124 -92 79 -138 -136 -92 -67 -129 vhcurveto
        -29 vlineto
        -86 1 rlineto
        -3 -14 -2 -19 -15 vvcurveto
        -14 2 -21 3 -14 vhcurveto
        86 1 rlineto
        endchar
      </CharString>
      <CharString index="27">
        88 hmoveto
        -61 callgsubr
        683 -67 callgsubr
        return
      </CharString>
      <CharString index="28">
        -91 callgsubr
        hintmask 01100000
        -93 callgsubr
      </CharString>
      <CharString index="29">
        4 -7 rlineto
        -6 14 23 -3 21 hhcurveto
        20 19 2 74 callgsubr
        38 113 rlineto
        14 21 -1 10 hhcurveto
        return
      </CharString>
      <CharString index="30">
        477 rmoveto
        -14 -35 -21 -56 -11 -44 rrcurveto
        -6 hlineto
        -12 46 -16 48 -15 38 -67 164 rcurveline
        37 -15 -17 16 -36 hhcurveto
        -26 -28 -9 -14 -25 hvcurveto
        192 -450 rlineto
        -218 vlineto
        -4 19 28 22 callsubr
        214 vlineto
        192 457 -6 8 rlineto
        6 -17 -23 3 -22 hhcurveto
        -17 -18 60 callgsubr
        return
      </CharString>
      <CharString index="31">
        rmoveto
        5 -24 18 -29 24 -12 39 18 28 19 21 27 rrcurveto
        -2 -27 -2 -29 -16 vvcurveto
        -130 -100 vlineto
        -3 -14 -2 -16 6 callsubr
        2 -15 3 -15 vhcurveto
        284 hlineto
        4 14 2 16 15 vvcurveto
        15 -2 16 -4 14 vhcurveto
        -82 344 hlineto
        4 -20 -12 2 -16 hhcurveto
        -15 -17 -2 71 callgsubr
        -29 -59 -35 -39 -72 -43 rrcurveto
        return
      </CharString>
      <CharString index="32">
        0 15 hhcurveto
        174 -54 callgsubr
        -174 hlineto
        -15 return
      </CharString>
      <CharString index="33">
        450 433 rmoveto
        -41 callsubr
        -176 67 -177 199 106 97 47 56 56 hvcurveto
        -51 callsubr
        return
      </CharString>
      <CharString index="34">
        32 callsubr
        hintmask 11001010
        20 callsubr
        hintmask 10101010
        -92 callsubr
        hintmask 00010100
        return
      </CharString>
      <CharString index="35">
        86 21 108 111 112 20 -108 -86 -85 -20 -107 -112 -111 -21 107 85 vhcurveto
        return
      </CharString>
      <CharString index="36">
        593 32 rmoveto
        -26 23 -9 24 -12 34 -49 137 rcurveline
        -23 62 -27 44 -67 13 18 16 15 19 13 24 140 246 rcurveline
        -8 10 rlineto
        2 -25 -28 1 -21 hhcurveto
        -40 -14 -16 -32 -17 hvcurveto
        -116 -202 rlineto
        -23 -12 -7 -7 -22 hhcurveto
        -44 -1 rlineto
        277 -67 callgsubr
        -683 2 callgsubr
        297 vlineto
        1 25 19 1 15 hhcurveto
        54 30 -25 -71 25 hvcurveto
        47 -135 rlineto
        -50 17 16 -25 48 hhcurveto
        33 35 14 25 17 hvcurveto
        return
      </CharString>
      <CharString index="37">
        hintmask 10010000
        -80 callgsubr
        return
      </CharString>
      <CharString index="38">
        38 -7 -21 22 -40 hhcurveto
        -46 35 callgsubr
        -495 -66 callgsubr
        343 vlineto
        33 32 41 17 32 hhcurveto
        43 12 -26 -58 23 callsubr
        28 11 15 19 vhcurveto
        -15 25 -5 33 36 vvcurveto
        return
      </CharString>
      <CharString index="39">
        -57 callgsubr
        349 vlineto
        -1 callsubr
        -729 -59 callsubr
        return
      </CharString>
      <CharString index="40">
        -20 callgsubr
        -19 hhcurveto
        -17 37 callsubr
        -19 hvcurveto
        return
      </CharString>
      <CharString index="41">
        -20 callsubr
        21 hhcurveto
        22 -19 callgsubr
        return
      </CharString>
      <CharString index="42">
        -62 callsubr
        23 30 30 20 -23 -30 -30 -20 -23 -30 -30 -20 23 30 vhcurveto
        endchar
      </CharString>
      <CharString index="43">
        9 -14 -30 6 -23 78 callsubr
        -14 hvcurveto
        -6 -11 -4 -26 -18 vvcurveto
        -18 4 -24 6 -10 vhcurveto
        9 -7 20 -4 15 -2 -2 -42 -42 -30 -33 -13 -2 -23 11 -25 21 -11 rrcurveto
        100 32 48 75 86 vvcurveto
        25 -3 25 -8 21 vhcurveto
        return
      </CharString>
      <CharString index="44">
        -58 callgsubr
        19 -3 15 -3 -2 -42 -41 -29 -33 -14 -2 -22 10 -26 22 -10 rrcurveto
        99 32 49 75 85 vvcurveto
        26 -4 24 -8 21 vhcurveto
        return
      </CharString>
      <CharString index="45">
        vvcurveto
        86 -26 97 -73 57 vhcurveto
        29 -38 -48 20 -77 hhcurveto
        -77 -47 -20 -30 -39 hvcurveto
        return
      </CharString>
      <CharString index="46">
        -37 callgsubr
        19 -32 callgsubr
        return
      </CharString>
      <CharString index="47">
        134 hintmask 11010100
        -83 callsubr
        hintmask 00101000
        return
      </CharString>
      <CharString index="48">
        rmoveto
        -24 -26 -16 -36 -6 -33 rrcurveto
        -28 45 61 -15 53 hhcurveto
        179 36 113 151 hvcurveto
        429 41 callsubr
        -18 18 callsubr
        -444 vlineto
        -96 -22 -47 -78 -35 -36 14 18 -29 vhcurveto
        return
      </CharString>
      <CharString index="49">
        9 -14 -30 6 -22 78 callsubr
        27 callsubr
        -10 -4 -27 -18 vvcurveto
        -18 5 -23 5 -11 vhcurveto
        10 -7 return
      </CharString>
      <CharString index="50">
        419 191 rmoveto
        -19 48 -29 28 -41 13 16 11 13 16 11 19 97 164 rcurveline
        -6 8 rlineto
        1 -23 -19 0 -26 hhcurveto
        -37 -20 -17 -32 -18 hvcurveto
        -73 -123 rlineto
        -12 -8 -6 -4 -12 hhcurveto
        -27 -1 rlineto
        return
      </CharString>
      <CharString index="51">
        333 497 rmoveto
        -122 -2 rlineto
        146 vlineto
        -6 7 rlineto
        -48 hlineto
        -50 -17 -22 -55 hvcurveto
        -76 vlineto
        -75 2 rlineto
        -4 -16 -1 -14 6 callsubr
        1 -15 38 callsubr
        75 1 rlineto
        -296 vlineto
        -79 39 -38 77 40 44 4 5 35 vhcurveto
        2 8 1 10 9 vvcurveto
        20 -4 23 -6 18 vhcurveto
        -64 hlineto
        -31 -12 17 28 hvcurveto
        272 vlineto
        122 -2 rlineto
        4 15 1 15 15 vvcurveto
        15 -1 14 70 callsubr
        return
      </CharString>
      <CharString index="52">
        10 callsubr
        71 callsubr
        -146 hlineto
        -12 -24 0 -1 -22 hvcurveto
        return
      </CharString>
      <CharString index="53">
        hlineto
        5 17 2 14 callgsubr
        -2 22 -5 17 vhcurveto
        return
      </CharString>
      <CharString index="54">
        446 -27 callsubr
        -73 94 -130 -147 -67 -114 -150 -134 47 -126 165 return
      </CharString>
      <CharString index="55">
        45 callsubr
        hintmask 01010100
        479 335 rmoveto
        hintmask 10010100
        13 callgsubr
        hintmask 01010100
        -69 callgsubr
        hintmask 00000000
        return
      </CharString>
      <CharString index="56">
        -19 22 -90 11 -98 vhcurveto
        16 -9 33 0 15 9 rrcurveto
        12 97 21 91 19 vvcurveto
        18 -3 18 24 callsubr
        9 -15 -21 5 -22 hhcurveto
        -23 -19 81 callsubr
        -4 -17 -3 -18 -18 vvcurveto
        return
      </CharString>
</ttFont>
